<?xml version="1.0" encoding="utf-8"?>
<!-- Generator: Adobe Illustrator 21.1.0, SVG Export Plug-In . SVG Version: 6.00 Build 0)  -->
<svg version="1.1" id="Layer_1" xmlns="http://www.w3.org/2000/svg" xmlns:xlink="http://www.w3.org/1999/xlink" x="0px" y="0px"
	 viewBox="0 0 200 200" style="enable-background:new 0 0 200 200;" xml:space="preserve">
<style type="text/css">
	.st0{fill:#8B6600;}
	.st1{fill:#775603;}
	.st2{fill:#FFFFFF;}
</style>
<circle class="st0" cx="100" cy="100" r="83.75"/>
<circle class="st1" cx="100" cy="100" r="62"/>
<g>
	<path class="st2" d="M56.9609375,91.4741211h5.6279297c0.7558594,0,1.4418945,0.0668945,2.0581055,0.199707
		c0.6157227,0.1333008,1.144043,0.3461914,1.5854492,0.640625c0.440918,0.2939453,0.7905273,0.6791992,1.0498047,1.1547852
		c0.2587891,0.4760742,0.409668,1.0498047,0.4516602,1.722168c0,0.7978516-0.175293,1.4907227-0.5249023,2.0786133
		c-0.3500977,0.5883789-0.9453125,1.043457-1.7851562,1.3652344c0.4897461,0.1962891,0.902832,0.409668,1.2387695,0.640625
		s0.609375,0.4970703,0.8193359,0.7978516c0.2099609,0.3012695,0.3598633,0.6616211,0.4511719,1.081543
		c0.0908203,0.4199219,0.1367188,0.9169922,0.1367188,1.4912109c0,0.5878906-0.1049805,1.1269531-0.3149414,1.6171875
		s-0.5429688,0.9101562-0.9975586,1.2597656c-0.4550781,0.3496094-1.0292969,0.6230469-1.722168,0.8183594
		c-0.6928711,0.1972656-1.5224609,0.2949219-2.4882812,0.2949219h-5.5859375V91.4741211z M59.8588867,97.5224609h2.8979492
		c0.699707,0,1.2211914-0.175293,1.5644531-0.5253906c0.3427734-0.3496094,0.5146484-0.7905273,0.5146484-1.3227539
		c0-0.5317383-0.171875-0.9731445-0.5146484-1.3232422c-0.3432617-0.3496094-0.8647461-0.5249023-1.5644531-0.5249023h-2.8979492
		V97.5224609z M59.8588867,104.2841797h2.8979492c0.8398438,0,1.4521484-0.1855469,1.8374023-0.5566406
		c0.3847656-0.3701172,0.5776367-0.9208984,0.5776367-1.6484375s-0.1928711-1.2773438-0.5776367-1.6484375
		c-0.3852539-0.3706055-0.9975586-0.5566406-1.8374023-0.5566406h-2.8979492V104.2841797z"/>
	<path class="st2" d="M72.0620117,106.6367188V91.4741211h6.0478516c0.8535156,0,1.5888672,0.1157227,2.2050781,0.3466797
		c0.6157227,0.230957,1.1162109,0.5493164,1.5014648,0.9555664c0.3847656,0.40625,0.671875,0.8818359,0.8608398,1.4277344
		s0.2836914,1.1342773,0.2836914,1.7641602c0.0136719,0.9379883-0.2138672,1.7568359-0.6826172,2.4570312
		c-0.4692383,0.7001953-1.1655273,1.1831055-2.0893555,1.4487305l3.3388672,6.7626953h-3.2128906l-2.855957-6.1743164h-2.4990234
		v6.1743164H72.0620117z M74.9599609,98.1103516h2.1420898c1.1337891,0,1.9106445-0.1787109,2.3305664-0.5356445
		c0.4204102-0.3569336,0.6303711-0.8925781,0.6303711-1.6064453s-0.2099609-1.2495117-0.6303711-1.6064453
		c-0.4199219-0.3569336-1.0288086-0.5356445-1.8266602-0.5356445h-2.6459961V98.1103516z"/>
	<path class="st2" d="M98.9077148,99.0551758c0,2.4916992-0.5390625,4.4135742-1.6171875,5.7651367
		c-1.078125,1.3505859-2.659668,2.0253906-4.7456055,2.0253906c-2.0864258,0-3.668457-0.6748047-4.7460938-2.0253906
		c-1.078125-1.3515625-1.6171875-3.2734375-1.6171875-5.7651367s0.5390625-4.4130859,1.6171875-5.7646484
		c1.0776367-1.3505859,2.659668-2.0263672,4.7460938-2.0263672c2.0859375,0,3.6674805,0.6757812,4.7456055,2.0263672
		C98.3686523,94.6420898,98.9077148,96.5634766,98.9077148,99.0551758z M96.0097656,99.0551758
		c0-1.7919922-0.2802734-3.1323242-0.8398438-4.0214844c-0.5600586-0.8886719-1.4355469-1.3334961-2.625-1.3334961
		c-1.1904297,0-2.0654297,0.4448242-2.625,1.3334961c-0.5600586,0.8891602-0.840332,2.2294922-0.840332,4.0214844
		c-0.027832,1.7924805,0.2416992,3.1323242,0.8085938,4.0209961c0.5668945,0.8896484,1.4521484,1.3339844,2.6567383,1.3339844
		c1.1894531,0,2.0649414-0.4443359,2.625-1.3339844C95.7294922,102.1875,96.0097656,100.8476562,96.0097656,99.0551758z"/>
	<path class="st2" d="M102.5957031,106.6367188V91.4741211h3.0234375l5.9648438,10.3325195H111.625V91.4741211h2.7304688v15.1625977
		H111.5625l-6.1953125-10.7944336h-0.0429688v10.7944336H102.5957031z"/>
	<path class="st2" d="M128.4257812,106.6367188h-10.7949219v-2.4570312l7.078125-10.2695312h-6.59375v-2.4360352h10.2480469
		v2.3100586l-7.3300781,10.4160156h7.3925781V106.6367188z"/>
	<path class="st2" d="M131.9296875,106.6367188V91.4741211h10.0371094v2.4360352h-7.1386719v3.6123047h5.1855469v2.4355469
		h-5.1855469v4.2421875h7.3710938v2.4365234H131.9296875z"/>
</g>
</svg>
