<?xml version="1.0" encoding="utf-8"?>
<!-- Generator: Adobe Illustrator 21.1.0, SVG Export Plug-In . SVG Version: 6.00 Build 0)  -->
<svg version="1.1" id="Layer_1" xmlns="http://www.w3.org/2000/svg" xmlns:xlink="http://www.w3.org/1999/xlink" x="0px" y="0px"
	 viewBox="0 0 500 97.3333359" style="enable-background:new 0 0 500 97.3333359;" xml:space="preserve">
<style type="text/css">
	.st0{fill:none;}
	.st1{fill:#BBBBBB;}
</style>
<g>
	<polygon class="st0" points="362.4023438,90.2760391 365.5527344,90.2760391 365.5527344,85.7672501 365.5234375,85.7672501 	"/>
	<path d="M258.0324097,54.1666679h-5.866394V37.3331718h-2.9995117v16.8334961h-10.5644531V46.250164h-1v7.9165039h-11.6484375
		V46.250164h-1v7.9165039h-11.6479492V46.250164h-1v7.9165039h-11.6484375V46.250164h-1v7.9165039h-11.6479492V46.250164h-1
		v7.9165039h-11.6479492V46.250164h-1v7.9165039h-11.6484375V46.250164h-1v7.9165039h-11.6479492V46.250164h-1v7.9165039
		h-10.7314453V37.3331718h-3v16.8334961h-10.6484375V46.250164h-1v7.9165039h-11.6479492V46.250164h-1v7.9165039H99.3886719
		V46.250164h-1v7.9165039H86.7407227V46.250164h-1v7.9165039H74.0927734V46.250164h-1v7.9165039H61.4443359V46.250164h-1v7.9165039
		H48.7963867V46.250164h-1v7.9165039H36.1479492V46.250164h-1v7.9165039H24.5V37.3331718h-3v36.6665001h3v-16.833004h10.6479492
		v7.9169884h1v-7.9169884h11.6484375v7.9169884h1v-7.9169884h11.6479492v7.9169884h1v-7.9169884h11.6484375v7.9169884h1v-7.9169884
		h11.6479492v7.9169884h1v-7.9169884h11.6479492v7.9169884h1v-7.9169884h11.6484375v7.9169884h1v-7.9169884h11.6479492v7.9169884h1
		v-7.9169884h10.6484375v16.833004h3v-16.833004h10.7314453v7.9169884h1v-7.9169884h11.6479492v7.9169884h1v-7.9169884h11.6484375
		v7.9169884h1v-7.9169884h11.6479492v7.9169884h1v-7.9169884h11.6479492v7.9169884h1v-7.9169884h11.6484375v7.9169884h1v-7.9169884
		h11.6479492v7.9169884h1v-7.9169884h11.6484375v7.9169884h1v-7.9169884h10.5644531v16.833004h2.9995117v-16.833004h5.866394
		c-0.1353149-0.477356-0.2125244-0.979248-0.2125244-1.5S257.8970947,54.6440239,258.0324097,54.1666679z"/>
	<path d="M476.8330078,57.1666679v16.833004h3V37.3331718h-3v16.8334961h-10.6474609V46.250164h-1v7.9165039h-11.6484375V46.250164
		h-1v7.9165039h-11.6484375V46.250164h-1v7.9165039h-11.6474609V46.250164h-1v7.9165039h-11.6484375V46.250164h-1v7.9165039
		h-11.6484375V46.250164h-1v7.9165039h-11.6484375V46.250164h-1v7.9165039h-11.6474609V46.250164h-1v7.9165039H366V37.3331718h-3
		v16.8334961h-10.6484375V46.250164h-1v7.9165039h-11.6474609V46.250164h-1v7.9165039h-11.6484375V46.250164h-1v7.9165039
		h-11.6484375V46.250164h-1v7.9165039h-11.6484375V46.250164h-1v7.9165039h-11.6474609V46.250164h-1v7.9165039h-11.6484375
		V46.250164h-1v7.9165039h-6.8656616c0.1353149,0.477356,0.2125244,0.979248,0.2125244,1.5s-0.0772095,1.022644-0.2125244,1.5
		h6.8656616v7.9169884h1v-7.9169884h11.6484375v7.9169884h1v-7.9169884h11.6474609v7.9169884h1v-7.9169884h11.6484375v7.9169884h1
		v-7.9169884h11.6484375v7.9169884h1v-7.9169884h11.6484375v7.9169884h1v-7.9169884h11.6474609v7.9169884h1v-7.9169884H363
		v16.833004h3v-16.833004h10.6484375v7.9169884h1v-7.9169884h11.6474609v7.9169884h1v-7.9169884h11.6484375v7.9169884h1v-7.9169884
		h11.6484375v7.9169884h1v-7.9169884h11.6484375v7.9169884h1v-7.9169884h11.6474609v7.9169884h1v-7.9169884h11.6484375v7.9169884h1
		v-7.9169884h11.6484375v7.9169884h1v-7.9169884H476.8330078z"/>
	<path d="M262.8144531,61.1363335v3.9473228h1v-3.9473228c-0.1647949,0.0148926-0.3309326,0.0252686-0.4996338,0.0252686
		C263.145874,61.161602,262.9794922,61.151226,262.8144531,61.1363335z"/>
	<path d="M24.7646484,83.7516251h-1.4140625c-0.2333984,0.2236328-0.5415039,0.3916016-0.9238281,0.5039062
		c-0.3828125,0.1123047-0.8076172,0.1777344-1.2744141,0.1962891v1.1757812h1.7919922v6.9716797h-1.5678711v1.4003906h4.9418945
		v-1.4003906h-1.5537109V83.7516251z"/>
	<path d="M138.8051758,89.6110001c0.4428711-0.4248047,0.7954102-0.8681641,1.0566406-1.3300781
		s0.3920898-1.0009766,0.3920898-1.6171875c0-0.4755859-0.0888672-0.8935547-0.2661133-1.2529297
		s-0.4150391-0.6630859-0.7138672-0.9101562s-0.6464844-0.4335938-1.0429688-0.5595703
		c-0.3969727-0.1259766-0.8188477-0.1894531-1.2670898-0.1894531c-0.4477539,0-0.8725586,0.0703125-1.2739258,0.2099609
		s-0.7558594,0.3339844-1.0639648,0.5810547s-0.5600586,0.5390625-0.7558594,0.875
		c-0.1962891,0.3359375-0.3222656,0.7001953-0.3779297,1.0917969l1.6240234,0.3505859
		c0.1118164-0.4667969,0.3168945-0.8496094,0.6157227-1.1484375s0.7001953-0.4482422,1.2041016-0.4482422
		c0.4667969,0,0.8330078,0.1220703,1.0991211,0.3642578c0.265625,0.2431641,0.3989258,0.5878906,0.3989258,1.0361328
		c0,0.3076172-0.1166992,0.625-0.3500977,0.9521484c-0.2333984,0.3261719-0.5249023,0.6552734-0.875,0.9863281
		c-0.3500977,0.3320312-0.7329102,0.6630859-1.1479492,0.9941406c-0.4155273,0.3320312-0.8076172,0.65625-1.1757812,0.9736328
		c-0.3691406,0.3173828-0.6884766,0.625-0.9594727,0.9238281c-0.2705078,0.2988281-0.4291992,0.5791016-0.4755859,0.8398438
		v1.6660156h6.8037109v-1.5683594h-4.7880859c0.6254883-0.5683594,1.2275391-1.0751953,1.8061523-1.5185547
		S138.3618164,90.0358047,138.8051758,89.6110001z"/>
	<path d="M252.3925781,88.539711c0.4853516-0.2148438,0.8603516-0.5058594,1.1269531-0.875
		c0.265625-0.3681641,0.3984375-0.8046875,0.3984375-1.3085938c0-0.4296875-0.0859375-0.8056641-0.2587891-1.1279297
		c-0.1728516-0.3212891-0.4111328-0.5917969-0.7138672-0.8115234c-0.3037109-0.21875-0.6582031-0.3847656-1.0644531-0.4970703
		c-0.4052734-0.1123047-0.8378906-0.1679688-1.2949219-0.1679688c-0.5229492,0-1.0429688,0.1074219-1.5610352,0.3222656
		s-1.0244141,0.5830078-1.519043,1.1054688l1.2041016,1.0927734c0.2519531-0.2714844,0.5297852-0.5068359,0.8330078-0.7070312
		c0.3032227-0.2011719,0.6694336-0.3017578,1.0991211-0.3017578c0.4204102,0,0.7680664,0.1103516,1.043457,0.3291016
		c0.2744141,0.2197266,0.4130859,0.5107422,0.4130859,0.875c0,0.2988281-0.0732422,0.5419922-0.2177734,0.7285156
		s-0.3408203,0.3310547-0.5878906,0.4335938s-0.5341797,0.1708984-0.8608398,0.203125
		c-0.3271484,0.0332031-0.6767578,0.0488281-1.050293,0.0488281v1.5117188c0.3081055,0,0.6391602,0.0126953,0.9941406,0.0351562
		c0.3544922,0.0234375,0.6835938,0.0908203,0.9873047,0.203125c0.3027344,0.1123047,0.5576172,0.2822266,0.7626953,0.5107422
		c0.2050781,0.2294922,0.3085938,0.5488281,0.3085938,0.9589844c0,0.2431641-0.0488281,0.4599609-0.1474609,0.6513672
		c-0.0976562,0.1914062-0.2285156,0.3525391-0.3916016,0.4833984c-0.1640625,0.1308594-0.3505859,0.2285156-0.5605469,0.2939453
		s-0.4267578,0.0976562-0.6508789,0.0976562c-0.4853516,0-0.9008789-0.1074219-1.2460938-0.3222656
		c-0.3452148-0.2138672-0.6391602-0.53125-0.8818359-0.9521484l-1.4560547,0.8261719
		c0.1772461,0.3271484,0.394043,0.6113281,0.6508789,0.8544922c0.2568359,0.2421875,0.543457,0.4453125,0.8608398,0.6083984
		c0.3173828,0.1640625,0.6513672,0.2871094,1.0009766,0.3710938c0.3500977,0.0839844,0.7026367,0.1259766,1.0571289,0.1259766
		c0.4482422,0,0.8867188-0.0576172,1.3164062-0.1748047c0.4287109-0.1162109,0.8115234-0.2988281,1.1474609-0.5458984
		c0.3369141-0.2470703,0.6074219-0.5625,0.8125-0.9453125c0.2050781-0.3818359,0.3076172-0.8398438,0.3076172-1.3720703
		c0-0.6337891-0.1582031-1.1728516-0.4755859-1.6162109S252.9990234,88.7262344,252.3925781,88.539711z"/>
	<path d="M367.2880859,83.8912735h-1.9736328l-4.3125,6.0068359v1.7773438h4.5507812v2.3242188h1.7353516v-2.3242188h1.4277344
		v-1.3994141h-1.4277344V83.8912735z M365.5527344,90.2760391h-3.1503906l3.1210938-4.5087891h0.0292969V90.2760391z"/>
	<path d="M481.5380859,89.3092422c-0.1445312-0.4003906-0.3496094-0.7597656-0.6162109-1.0771484
		c-0.265625-0.3173828-0.5830078-0.5742188-0.9511719-0.7705078c-0.3691406-0.1962891-0.7822266-0.2939453-1.2392578-0.2939453
		c-0.2705078,0-0.5068359,0.0136719-0.7070312,0.0419922c-0.2011719,0.0283203-0.3759766,0.0703125-0.5253906,0.1259766
		s-0.2753906,0.1191406-0.3779297,0.1894531c-0.1025391,0.0693359-0.1962891,0.1464844-0.2802734,0.2304688l0.140625-2.2958984
		h4.0878906v-1.5683594h-5.4599609l-0.3779297,5.3759766l1.4560547,0.2802734
		c0.1396484-0.2519531,0.3408203-0.4589844,0.6015625-0.6230469c0.2617188-0.1630859,0.5693359-0.2451172,0.9238281-0.2451172
		c0.2617188,0,0.5,0.046875,0.7148438,0.140625c0.2138672,0.0927734,0.3964844,0.2236328,0.5458984,0.3916016
		c0.1484375,0.1679688,0.2636719,0.3642578,0.3427734,0.5878906c0.0791016,0.2246094,0.1191406,0.4667969,0.1191406,0.7285156
		c0,0.6347656-0.1523438,1.1455078-0.4550781,1.5322266c-0.3037109,0.3876953-0.7773438,0.5722656-1.4208984,0.5537109
		c-0.3457031-0.0097656-0.6914062-0.1142578-1.0361328-0.3154297c-0.3457031-0.2001953-0.5976562-0.4775391-0.7558594-0.8330078
		l-1.5126953,0.7841797c0.2802734,0.5693359,0.6953125,1.0263672,1.2460938,1.3720703s1.2275391,0.5175781,2.0302734,0.5175781
		c0.6064453,0,1.1435547-0.0839844,1.6103516-0.2519531c0.4658203-0.1679688,0.8554688-0.4082031,1.1689453-0.7207031
		c0.3125-0.3125,0.5478516-0.6933594,0.7070312-1.140625c0.1582031-0.4482422,0.2373047-0.9472656,0.2373047-1.4980469
		C481.7548828,90.1168594,481.6826172,89.7106094,481.5380859,89.3092422z"/>
	<polygon points="260.9853516,18.666666 263.5048828,13.5216475 266.0253906,18.666666 269.1748047,18.666666 
		265.0800781,10.8966475 268.9228516,3.5045574 265.7734375,3.5045574 263.5048828,8.1876631 261.2373047,3.5045574 
		258.0869141,3.5045574 261.9296875,10.8966475 257.8349609,18.666666 	"/>
	<path class="st1" d="M268.597229,54.1666679c-0.5562134-1.9616699-2.170166-3.4780273-4.1898193-3.8855591V24.9174595h-2.1851807
		v25.3636494c-2.0196533,0.4075317-3.633606,1.9238892-4.1898193,3.8855591c-0.1353149,0.477356-0.2125244,0.979248-0.2125244,1.5
		s0.0772095,1.022644,0.2125244,1.5c0.6095581,2.1498413,2.4908447,3.7625122,4.7820435,3.9696655
		c0.1650391,0.0148926,0.3314209,0.0252686,0.5003662,0.0252686c0.1687012,0,0.3348389-0.010376,0.4996338-0.0252686
		c2.2915039-0.2067871,4.1731567-1.8195801,4.7827759-3.9696655c0.1353149-0.477356,0.2125244-0.979248,0.2125244-1.5
		S268.7325439,54.6440239,268.597229,54.1666679z"/>
</g>
</svg>
