<?xml version="1.0" encoding="utf-8"?>
<!-- Generator: Adobe Illustrator 21.1.0, SVG Export Plug-In . SVG Version: 6.00 Build 0)  -->
<svg version="1.1" id="Layer_1" xmlns="http://www.w3.org/2000/svg" xmlns:xlink="http://www.w3.org/1999/xlink" x="0px" y="0px"
	 viewBox="0 0 500 350" style="enable-background:new 0 0 500 350;" xml:space="preserve">
<style type="text/css">
	.st0{fill:none;}
	.st1{fill:#FF8217;}
	.st2{fill:#231F20;}
</style>
<g>
	<path class="st0" d="M293.0576172,15.0009766h-27.3720703v27.284668h27.3720703V15.0009766z M283.4599609,32.2006836
		c-0.2128906,0.6010742-0.5292969,1.1118164-0.9482422,1.5317383c-0.4208984,0.4199219-0.9433594,0.7421875-1.5703125,0.9677734
		c-0.6259766,0.2255859-1.3466797,0.3383789-2.1611328,0.3383789c-1.078125,0-1.9863281-0.2319336-2.7255859-0.6953125
		s-1.296875-1.0776367-1.671875-1.8422852l2.0292969-1.0522461c0.2128906,0.4760742,0.5517578,0.8491211,1.0146484,1.1181641
		c0.4638672,0.2695312,0.9277344,0.4106445,1.3916016,0.4228516c0.8642578,0.0253906,1.5-0.222168,1.9072266-0.7421875
		s0.6113281-1.2060547,0.6113281-2.0581055c0-0.3505859-0.0537109-0.6767578-0.1601562-0.9775391
		s-0.2597656-0.5634766-0.4599609-0.7890625c-0.2011719-0.2255859-0.4453125-0.4008789-0.7333984-0.5263672
		c-0.2880859-0.125-0.6083984-0.1879883-0.9589844-0.1879883c-0.4755859,0-0.8896484,0.1098633-1.2402344,0.3291016
		s-0.6201172,0.4980469-0.8076172,0.8359375l-1.9550781-0.3754883l0.5078125-7.2172852h7.3300781v2.1049805h-5.4882812
		l-0.1884766,3.0820312c0.1132812-0.112793,0.2382812-0.2158203,0.3759766-0.3100586
		c0.1376953-0.09375,0.3066406-0.1782227,0.5078125-0.253418c0.2001953-0.0751953,0.4345703-0.1318359,0.7050781-0.1694336
		c0.2685547-0.0375977,0.5849609-0.0561523,0.9482422-0.0561523c0.6142578,0,1.1689453,0.1313477,1.6640625,0.3945312
		c0.4941406,0.2631836,0.9208984,0.6079102,1.2773438,1.0336914c0.3574219,0.4262695,0.6328125,0.9086914,0.8271484,1.4472656
		c0.1943359,0.5390625,0.2919922,1.0839844,0.2919922,1.6352539
		C283.7802734,30.9287109,283.6728516,31.5991211,283.4599609,32.2006836z"/>
	<path class="st0" d="M461.4462891,81.9785156c-0.5224609,0-0.9238281,0.203125-1.2041016,0.6088867
		c-0.2792969,0.40625-0.4199219,0.996582-0.4199219,1.7709961c0,0.7749023,0.140625,1.3652344,0.4199219,1.7709961
		c0.2802734,0.40625,0.6816406,0.609375,1.2041016,0.609375c0.1865234,0,0.3457031-0.0209961,0.4765625-0.0634766
		c0.1308594-0.0419922,0.2451172-0.0927734,0.3427734-0.1538086c0.0976562-0.0605469,0.1865234-0.1279297,0.265625-0.203125
		c0.0800781-0.0742188,0.1660156-0.1489258,0.2597656-0.2236328v-3.5c-0.1777344-0.1586914-0.3759766-0.3012695-0.5957031-0.4272461
		C461.9765625,82.0415039,461.7265625,81.9785156,461.4462891,81.9785156z"/>
	<path class="st0" d="M204.9428711,15.0009766h-27.371582v27.284668h27.371582V15.0009766z M195.0546875,32.7456055v2.1049805
		h-9.1342773v-2.2368164c0.0625-0.3505859,0.2753906-0.7265625,0.6386719-1.1274414s0.7924805-0.8144531,1.2875977-1.2407227
		c0.4946289-0.4257812,1.0209961-0.8613281,1.5786133-1.3061523c0.5576172-0.4443359,1.0712891-0.8896484,1.5415039-1.3344727
		c0.4697266-0.4443359,0.8613281-0.8862305,1.1748047-1.3251953c0.3129883-0.4379883,0.4697266-0.8642578,0.4697266-1.277832
		c0-0.6015625-0.1787109-1.0649414-0.5356445-1.390625c-0.3574219-0.3256836-0.8491211-0.4887695-1.4755859-0.4887695
		c-0.6767578,0-1.215332,0.2006836-1.6162109,0.6015625c-0.4013672,0.4008789-0.6767578,0.9145508-0.8271484,1.5410156
		l-2.1801758-0.4697266c0.0751953-0.5263672,0.2441406-1.0151367,0.5073242-1.4663086s0.6015625-0.8422852,1.0151367-1.1748047
		c0.4135742-0.331543,0.8896484-0.5917969,1.4282227-0.7797852s1.1088867-0.2817383,1.7104492-0.2817383
		s1.168457,0.0844727,1.7011719,0.253418c0.5322266,0.1694336,0.9990234,0.4199219,1.3999023,0.7519531
		s0.7207031,0.7392578,0.9584961,1.2216797c0.2382812,0.4824219,0.3574219,1.0429688,0.3574219,1.6821289
		c0,0.8271484-0.1757812,1.5507812-0.5263672,2.1708984c-0.3510742,0.6201172-0.8242188,1.215332-1.4189453,1.7856445
		c-0.5952148,0.5703125-1.28125,1.152832-2.0581055,1.7475586c-0.7768555,0.5957031-1.5854492,1.2753906-2.4248047,2.0395508
		H195.0546875z"/>
	<path class="st0" d="M234.3144531,15.0009766h-27.371582v27.284668h27.371582V15.0009766z M224.1411133,32.8017578
		c-0.2758789,0.5141602-0.6391602,0.9370117-1.090332,1.269043c-0.4506836,0.3320312-0.9648438,0.5761719-1.5410156,0.7329102
		c-0.5766602,0.15625-1.1650391,0.2348633-1.7666016,0.2348633c-0.4765625,0-0.9492188-0.0566406-1.4189453-0.1694336
		c-0.4702148-0.1123047-0.9179688-0.2783203-1.3442383-0.4980469c-0.4257812-0.21875-0.8110352-0.4912109-1.1557617-0.8173828
		c-0.3447266-0.3256836-0.6362305-0.7075195-0.8740234-1.1464844l1.9545898-1.1088867
		c0.3256836,0.5639648,0.7207031,0.9897461,1.184082,1.277832c0.4638672,0.2885742,1.0214844,0.4326172,1.6728516,0.4326172
		c0.3007812,0,0.5922852-0.0439453,0.8740234-0.1318359c0.2822266-0.0874023,0.5327148-0.21875,0.7519531-0.3945312
		c0.2192383-0.175293,0.3945312-0.3916016,0.5263672-0.6484375c0.1313477-0.2568359,0.1972656-0.5478516,0.1972656-0.8740234
		c0-0.5512695-0.1381836-0.9804688-0.4135742-1.2875977c-0.2758789-0.3066406-0.6171875-0.5356445-1.0244141-0.6860352
		s-0.8491211-0.2407227-1.3251953-0.2724609c-0.4760742-0.0307617-0.9208984-0.046875-1.3339844-0.046875V26.637207
		c0.5009766,0,0.9707031-0.0219727,1.4091797-0.065918c0.4384766-0.043457,0.8237305-0.1342773,1.15625-0.2724609
		c0.331543-0.1376953,0.5947266-0.3320312,0.7890625-0.5825195s0.2915039-0.5761719,0.2915039-0.9775391
		c0-0.4887695-0.1850586-0.8798828-0.5541992-1.1748047c-0.3701172-0.2939453-0.8364258-0.4414062-1.4003906-0.4414062
		c-0.5766602,0-1.0683594,0.1347656-1.4755859,0.4038086c-0.4072266,0.2695312-0.7797852,0.5859375-1.1181641,0.9492188
		l-1.6162109-1.4658203c0.6635742-0.7016602,1.34375-1.1962891,2.0390625-1.4848633
		c0.6953125-0.2880859,1.3935547-0.4321289,2.0957031-0.4321289c0.6137695,0,1.1933594,0.0751953,1.7382812,0.2255859
		c0.5454102,0.1499023,1.0214844,0.3725586,1.4287109,0.6669922c0.4067383,0.2944336,0.7265625,0.6577148,0.9584961,1.090332
		c0.2314453,0.4321289,0.3476562,0.9365234,0.3476562,1.5126953c0,0.6767578-0.1787109,1.2626953-0.5356445,1.7573242
		c-0.3569336,0.4951172-0.8618164,0.8867188-1.5131836,1.1748047c0.8144531,0.2509766,1.4345703,0.6738281,1.8608398,1.2685547
		c0.4257812,0.5952148,0.6391602,1.3188477,0.6391602,2.1708984
		C224.5546875,31.6743164,224.4165039,32.2880859,224.1411133,32.8017578z"/>
	<path class="st0" d="M263.6855469,15.0009766h-27.3710938v27.284668h27.3710938V15.0009766z M254.6748047,31.7304688h-1.9169922
		v3.1201172h-2.3305664v-3.1201172h-6.1083984V29.34375l5.7885742-8.0629883h2.6503906v8.5703125h1.9169922V31.7304688z"/>
	<path class="st0" d="M175.5712891,15.0009766h-27.371582v27.284668h27.371582V15.0009766z M164.746582,34.8505859h-6.6347656
		v-1.8793945h2.1049805v-9.3598633h-2.4057617v-1.5791016c0.6264648-0.0249023,1.1962891-0.112793,1.7104492-0.2631836
		c0.5136719-0.1503906,0.9272461-0.3759766,1.2402344-0.6762695h1.8984375v11.878418h2.0864258V34.8505859z"/>
	<path class="st0" d="M468.8945312,81.8666992c-0.4199219,0-0.7539062,0.1396484-1.0009766,0.4199219
		c-0.2470703,0.2797852-0.3798828,0.671875-0.3984375,1.1757812h2.7998047
		c-0.0185547-0.5039062-0.1523438-0.8959961-0.3994141-1.1757812
		C469.6484375,82.0063477,469.3144531,81.8666992,468.8945312,81.8666992z"/>
	<polygon class="st0" points="99.53125,176.6298828 103.7602539,176.6298828 103.7602539,170.5786133 103.7226562,170.5786133 	"/>
	<path class="st0" d="M116.8286133,73.6572266h-27.371582v27.3710938h27.371582V73.6572266z M106.5795898,93.515625h-6.6347656
		v-1.8793945h2.1049805v-9.3598633H99.644043v-1.5791016c0.6264648-0.0249023,1.1962891-0.112793,1.7104492-0.2631836
		c0.5136719-0.1503906,0.9272461-0.3759766,1.2402344-0.6762695h1.8984375v11.878418h2.0864258V93.515625z"/>
	<path class="st0" d="M116.8286133,132.3999023h-27.371582v27.371582h27.371582V132.3999023z M106.9741211,151.2485352
		c-0.2758789,0.5141602-0.6391602,0.9370117-1.090332,1.269043c-0.4506836,0.3320312-0.9648438,0.5761719-1.5410156,0.7329102
		c-0.5766602,0.15625-1.1650391,0.2348633-1.7666016,0.2348633c-0.4765625,0-0.9492188-0.0566406-1.4189453-0.1694336
		c-0.4702148-0.1123047-0.9179688-0.2783203-1.3442383-0.4980469c-0.4257812-0.21875-0.8110352-0.4912109-1.1557617-0.8173828
		c-0.3447266-0.3256836-0.6362305-0.7075195-0.8740234-1.1464844l1.9545898-1.1088867
		c0.3256836,0.5639648,0.7207031,0.9897461,1.184082,1.277832c0.4638672,0.2885742,1.0214844,0.4326172,1.6728516,0.4326172
		c0.3007812,0,0.5922852-0.0439453,0.8740234-0.1318359c0.2822266-0.0874023,0.5327148-0.21875,0.7519531-0.3945312
		c0.2192383-0.175293,0.3945312-0.3916016,0.5263672-0.6484375c0.1313477-0.2568359,0.1972656-0.5478516,0.1972656-0.8740234
		c0-0.5512695-0.1381836-0.9804688-0.4135742-1.2875977c-0.2758789-0.3066406-0.6171875-0.5356445-1.0244141-0.6860352
		s-0.8491211-0.2407227-1.3251953-0.2724609c-0.4760742-0.0307617-0.9208984-0.046875-1.3339844-0.046875v-2.0297852
		c0.5009766,0,0.9707031-0.0219727,1.4091797-0.065918c0.4384766-0.043457,0.8237305-0.1342773,1.15625-0.2724609
		c0.331543-0.1376953,0.5947266-0.3320312,0.7890625-0.5825195s0.2915039-0.5761719,0.2915039-0.9775391
		c0-0.4887695-0.1850586-0.8798828-0.5541992-1.1748047c-0.3701172-0.2939453-0.8364258-0.4414062-1.4003906-0.4414062
		c-0.5766602,0-1.0683594,0.1347656-1.4755859,0.4038086c-0.4072266,0.2695312-0.7797852,0.5859375-1.1181641,0.9492188
		l-1.6162109-1.4658203c0.6635742-0.7016602,1.34375-1.1962891,2.0390625-1.4848633
		c0.6953125-0.2880859,1.3935547-0.4321289,2.0957031-0.4321289c0.6137695,0,1.1933594,0.0751953,1.7382812,0.2255859
		c0.5454102,0.1499023,1.0214844,0.3725586,1.4287109,0.6669922c0.4067383,0.2944336,0.7265625,0.6577148,0.9584961,1.090332
		c0.2314453,0.4321289,0.3476562,0.9365234,0.3476562,1.5126953c0,0.6767578-0.1787109,1.2626953-0.5356445,1.7573242
		c-0.3569336,0.4951172-0.8618164,0.8867188-1.5131836,1.1748047c0.8144531,0.2509766,1.4345703,0.6738281,1.8608398,1.2685547
		c0.4257812,0.5952148,0.6391602,1.3188477,0.6391602,2.1708984
		C107.3876953,150.1210938,107.2495117,150.7348633,106.9741211,151.2485352z"/>
	<path class="st0" d="M104.7470703,54.5356445c-0.2197266-0.3818359-0.4824219-0.6577148-0.7895508-0.8271484
		c-0.3071289-0.1689453-0.6484375-0.253418-1.0244141-0.253418s-0.7172852,0.0844727-1.0244141,0.253418
		c-0.3071289,0.1694336-0.5703125,0.4453125-0.7890625,0.8271484c-0.2197266,0.3823242-0.3886719,0.8896484-0.5078125,1.5224609
		s-0.1782227,1.4130859-0.1782227,2.3398438c0,0.9277344,0.059082,1.7075195,0.1782227,2.340332
		s0.2880859,1.1401367,0.5078125,1.5219727c0.21875,0.3828125,0.4819336,0.6582031,0.7890625,0.8271484
		c0.3071289,0.1694336,0.6484375,0.2539062,1.0244141,0.2539062s0.7172852-0.0844727,1.0244141-0.2539062
		c0.3071289-0.1689453,0.5698242-0.4443359,0.7895508-0.8271484c0.21875-0.3818359,0.3881836-0.8891602,0.5073242-1.5219727
		s0.1787109-1.4125977,0.1787109-2.340332c0-0.9267578-0.0595703-1.7070312-0.1787109-2.3398438
		S104.9658203,54.9179688,104.7470703,54.5356445z"/>
	<path class="st0" d="M116.8286133,44.3720703v-0.0864258h-27.371582v27.371582h27.371582V44.3720703z M107.6132812,61.1328125
		c-0.1757812,0.8457031-0.4604492,1.5820312-0.8554688,2.2084961c-0.3945312,0.6264648-0.9052734,1.121582-1.5317383,1.4848633
		s-1.390625,0.5449219-2.2929688,0.5449219c-0.9018555,0-1.6665039-0.1816406-2.2929688-0.5449219
		s-1.137207-0.8583984-1.5317383-1.4848633s-0.6796875-1.362793-0.8549805-2.2084961
		c-0.1757812-0.8457031-0.2631836-1.7573242-0.2631836-2.7348633c0-0.9770508,0.0874023-1.8886719,0.2631836-2.734375
		c0.175293-0.8461914,0.4604492-1.5820312,0.8549805-2.2084961s0.9052734-1.121582,1.5317383-1.4848633
		s1.3911133-0.5449219,2.2929688-0.5449219c0.9023438,0,1.6665039,0.1816406,2.2929688,0.5449219
		s1.137207,0.8583984,1.5317383,1.4848633c0.3950195,0.6264648,0.6796875,1.3623047,0.8554688,2.2084961
		c0.175293,0.8457031,0.2631836,1.7573242,0.2631836,2.734375
		C107.8764648,59.3754883,107.7885742,60.2871094,107.6132812,61.1328125z"/>
	<path class="st0" d="M146.199707,15.0009766h-27.3710938v27.284668h27.3710938V15.0009766z M136.2802734,30.800293
		c-0.1757812,0.8457031-0.4604492,1.5820312-0.8554688,2.2084961c-0.3945312,0.6264648-0.9052734,1.121582-1.5317383,1.4848633
		s-1.390625,0.5449219-2.2929688,0.5449219c-0.9018555,0-1.6665039-0.1816406-2.2929688-0.5449219
		s-1.137207-0.8583984-1.5317383-1.4848633s-0.6796875-1.362793-0.8549805-2.2084961
		c-0.1757812-0.8457031-0.2631836-1.7573242-0.2631836-2.7348633c0-0.9770508,0.0874023-1.8886719,0.2631836-2.734375
		c0.175293-0.8461914,0.4604492-1.5820312,0.8549805-2.2084961s0.9052734-1.121582,1.5317383-1.4848633
		s1.3911133-0.5449219,2.2929688-0.5449219c0.9023438,0,1.6665039,0.1816406,2.2929688,0.5449219
		s1.137207,0.8583984,1.5317383,1.4848633c0.3950195,0.6264648,0.6796875,1.3623047,0.8554688,2.2084961
		c0.175293,0.8457031,0.2631836,1.7573242,0.2631836,2.734375C136.543457,29.0429688,136.4555664,29.9545898,136.2802734,30.800293z
		"/>
	<path class="st0" d="M133.4140625,24.203125c-0.2197266-0.3818359-0.4824219-0.6577148-0.7895508-0.8271484
		c-0.3071289-0.1689453-0.6484375-0.253418-1.0244141-0.253418s-0.7172852,0.0844727-1.0244141,0.253418
		c-0.3071289,0.1694336-0.5703125,0.4453125-0.7890625,0.8271484c-0.2197266,0.3823242-0.3886719,0.8896484-0.5078125,1.5224609
		s-0.1782227,1.4130859-0.1782227,2.3398438c0,0.9277344,0.059082,1.7075195,0.1782227,2.340332
		s0.2880859,1.1401367,0.5078125,1.5219727c0.21875,0.3828125,0.4819336,0.6582031,0.7890625,0.8271484
		c0.3071289,0.1694336,0.6484375,0.2539062,1.0244141,0.2539062s0.7172852-0.0844727,1.0244141-0.2539062
		c0.3071289-0.1689453,0.5698242-0.4443359,0.7895508-0.8271484c0.21875-0.3818359,0.3881836-0.8891602,0.5073242-1.5219727
		s0.1787109-1.4125977,0.1787109-2.340332c0-0.9267578-0.0595703-1.7070312-0.1787109-2.3398438
		S133.6328125,24.5854492,133.4140625,24.203125z"/>
	<path class="st0" d="M116.8286133,103.0283203h-27.371582v27.371582h27.371582V103.0283203z M107.3876953,121.4106445v2.1049805
		H98.253418v-2.2368164c0.0625-0.3505859,0.2753906-0.7265625,0.6386719-1.1274414s0.7924805-0.8144531,1.2875977-1.2407227
		c0.4946289-0.4257812,1.0209961-0.8613281,1.5786133-1.3061523c0.5576172-0.4443359,1.0712891-0.8896484,1.5415039-1.3344727
		c0.4697266-0.4443359,0.8613281-0.8862305,1.1748047-1.3251953c0.3129883-0.4379883,0.4697266-0.8642578,0.4697266-1.277832
		c0-0.6015625-0.1787109-1.0649414-0.5356445-1.390625c-0.3574219-0.3256836-0.8491211-0.4887695-1.4755859-0.4887695
		c-0.6767578,0-1.215332,0.2006836-1.6162109,0.6015625c-0.4013672,0.4008789-0.6767578,0.9145508-0.8271484,1.5410156
		l-2.1801758-0.4697266c0.0751953-0.5263672,0.2441406-1.0151367,0.5073242-1.4663086s0.6015625-0.8422852,1.0151367-1.1748047
		c0.4135742-0.331543,0.8896484-0.5917969,1.4282227-0.7797852s1.1088867-0.2817383,1.7104492-0.2817383
		s1.168457,0.0844727,1.7011719,0.253418c0.5322266,0.1694336,0.9990234,0.4199219,1.3999023,0.7519531
		s0.7207031,0.7392578,0.9584961,1.2216797c0.2382812,0.4824219,0.3574219,1.0429688,0.3574219,1.6821289
		c0,0.8271484-0.1757812,1.5507812-0.5263672,2.1708984c-0.3510742,0.6201172-0.8242188,1.215332-1.4189453,1.7856445
		c-0.5952148,0.5703125-1.28125,1.152832-2.0581055,1.7475586c-0.7768555,0.5957031-1.5854492,1.2753906-2.4248047,2.0395508
		H107.3876953z"/>
	<rect x="236.3144531" y="191.1425781" class="st0" width="27.3710938" height="27.3720703"/>
	<path class="st0" d="M366.2939453,26.0073242c0.21875,0.1821289,0.4472656,0.3227539,0.6855469,0.4228516
		c0.2382812,0.1005859,0.4443359,0.1503906,0.6201172,0.1503906s0.3828125-0.0625,0.6201172-0.1879883
		c0.2382812-0.125,0.4667969-0.284668,0.6865234-0.4790039c0.21875-0.1943359,0.4042969-0.4135742,0.5546875-0.6577148
		c0.1503906-0.2446289,0.2255859-0.4916992,0.2255859-0.7426758c0-0.4511719-0.1572266-0.8203125-0.4697266-1.1088867
		c-0.3134766-0.2880859-0.859375-0.4321289-1.6357422-0.4321289c-0.7519531,0-1.2841797,0.144043-1.5976562,0.4321289
		c-0.3134766,0.2885742-0.4697266,0.6577148-0.4697266,1.1088867c0,0.3134766,0.0751953,0.5952148,0.2255859,0.8457031
		C365.8896484,25.6098633,366.0742188,25.8261719,366.2939453,26.0073242z"/>
	<rect x="353.7998047" y="249.8857422" class="st0" width="27.3720703" height="27.3710938"/>
	<rect x="206.9428711" y="191.1425781" class="st0" width="27.371582" height="27.3720703"/>
	<rect x="324.4287109" y="249.8857422" class="st0" width="27.3710938" height="27.3710938"/>
	<rect x="265.6855469" y="191.1425781" class="st0" width="27.3720703" height="27.3720703"/>
	<rect x="265.6855469" y="220.5146484" class="st0" width="27.3720703" height="27.3710938"/>
	<path class="st0" d="M369.0380859,29.503418c-0.3076172-0.2319336-0.6142578-0.4199219-0.9208984-0.5639648
		c-0.3076172-0.144043-0.5361328-0.2158203-0.6865234-0.2158203s-0.3603516,0.0625-0.6298828,0.1875
		c-0.2695312,0.1254883-0.5380859,0.3007812-0.8076172,0.5263672s-0.5019531,0.4887695-0.6953125,0.7895508
		c-0.1943359,0.3007812-0.2919922,0.6201172-0.2919922,0.9584961c0,0.6015625,0.2167969,1.0805664,0.6484375,1.4379883
		c0.4326172,0.3569336,1.0810547,0.5356445,1.9453125,0.5356445c0.8652344,0,1.5136719-0.1787109,1.9453125-0.5356445
		c0.4326172-0.3574219,0.6484375-0.8364258,0.6484375-1.4379883c0-0.3007812-0.1152344-0.5981445-0.3476562-0.8925781
		C369.6142578,29.9985352,369.3447266,29.7353516,369.0380859,29.503418z"/>
	<path class="st0" d="M351.7998047,15.0009766h-27.3710938v27.284668h27.3710938V15.0009766z M342.7607422,22.6899414
		l-5.5820312,12.1606445h-2.6875l5.4882812-11.4648438h-6.5214844v-2.1049805h9.3027344V22.6899414z"/>
	<path class="st0" d="M308.6748047,28.1972656c-1.0898438,0-1.9042969,0.5136719-2.4433594,1.5410156
		c0,0.5766602,0.0751953,1.0712891,0.2255859,1.4848633s0.3476562,0.7519531,0.5927734,1.0151367
		c0.2441406,0.2626953,0.5224609,0.4575195,0.8359375,0.5825195c0.3134766,0.1254883,0.6328125,0.1879883,0.9589844,0.1879883
		c0.6513672,0,1.1767578-0.2128906,1.578125-0.6391602c0.4013672-0.4257812,0.5947266-0.9960938,0.5830078-1.7104492
		c0.0117188-0.7514648-0.1816406-1.3500977-0.5830078-1.7949219
		C310.0214844,28.4199219,309.4394531,28.1972656,308.6748047,28.1972656z"/>
	<path class="st0" d="M322.4287109,15.0009766h-27.3710938v27.284668h27.3710938V15.0009766z M313.0830078,32.4633789
		c-0.2451172,0.5517578-0.5830078,1.0185547-1.015625,1.4003906c-0.4316406,0.3823242-0.9394531,0.6738281-1.5224609,0.8740234
		c-0.5820312,0.2001953-1.2119141,0.3007812-1.8886719,0.3007812c-0.7138672,0-1.3691406-0.1289062-1.9638672-0.3852539
		c-0.5957031-0.2568359-1.109375-0.6391602-1.5410156-1.1464844c-0.4326172-0.5073242-0.7675781-1.1464844-1.0058594-1.9169922
		c-0.2382812-0.7709961-0.3574219-1.6757812-0.3574219-2.7163086c0-1.1772461,0.1318359-2.2456055,0.3945312-3.2045898
		c0.2636719-0.9584961,0.6425781-1.7758789,1.1376953-2.4526367c0.4951172-0.6762695,1.1025391-1.199707,1.8232422-1.5693359
		c0.7197266-0.3691406,1.5439453-0.5541992,2.4716797-0.5541992c0.6640625,0,1.2587891,0.0874023,1.7851562,0.2631836
		c0.5263672,0.175293,1.0527344,0.4257812,1.5791016,0.7514648l-1.0712891,1.9545898
		c-0.2890625-0.2504883-0.6201172-0.4697266-0.9960938-0.6577148s-0.8085938-0.2817383-1.296875-0.2817383
		c-0.4638672,0-0.8994141,0.1064453-1.3066406,0.3193359c-0.4072266,0.2133789-0.7607422,0.5073242-1.0615234,0.8833008
		s-0.5429688,0.8149414-0.7236328,1.315918c-0.1826172,0.5009766-0.2792969,1.0400391-0.2919922,1.6162109
		c0.4384766-0.3881836,0.8994141-0.6669922,1.3818359-0.8364258c0.4824219-0.1689453,1.0361328-0.253418,1.6630859-0.253418
		c0.6015625,0,1.15625,0.1064453,1.6630859,0.3193359c0.5078125,0.2133789,0.9462891,0.5136719,1.3164062,0.9023438
		c0.3691406,0.3881836,0.6601562,0.8520508,0.8740234,1.390625c0.2128906,0.5390625,0.3193359,1.1342773,0.3193359,1.7856445
		C313.4492188,31.2792969,313.3271484,31.9125977,313.0830078,32.4633789z"/>
	<path class="st0" d="M453.4111328,84.9536133c-0.2333984,0.1074219-0.4228516,0.2451172-0.5673828,0.4130859
		s-0.2167969,0.3779297-0.2167969,0.6298828c0,0.2709961,0.0791016,0.480957,0.2373047,0.6298828
		c0.1591797,0.1494141,0.359375,0.2241211,0.6025391,0.2241211c0.1396484,0,0.2841797-0.0258789,0.4335938-0.0771484
		s0.2939453-0.1142578,0.4345703-0.1889648c0.1396484-0.074707,0.2724609-0.1586914,0.3984375-0.2519531
		s0.2363281-0.1772461,0.3291016-0.2519531v-1.5678711c-0.2890625,0.0556641-0.5791016,0.1166992-0.8681641,0.1816406
		C453.9052734,84.7597656,453.6435547,84.8461914,453.4111328,84.9536133z"/>
	<rect x="442.0136719" y="103.0283203" class="st0" width="27.3710938" height="27.371582"/>
	<rect x="353.7998047" y="279.2568359" class="st0" width="27.3720703" height="27.3720703"/>
	<path class="st0" d="M381.171875,15.0009766h-27.3720703v27.284668h27.3720703V15.0009766z M372.2519531,32.8676758
		c-0.2568359,0.4575195-0.6113281,0.8457031-1.0625,1.1655273c-0.4511719,0.3193359-0.9833984,0.5668945-1.5976562,0.7421875
		c-0.6132812,0.175293-1.2773438,0.2631836-1.9921875,0.2631836c-0.7138672,0-1.3779297-0.0878906-1.9921875-0.2631836
		s-1.1464844-0.4228516-1.5976562-0.7421875c-0.4511719-0.3198242-0.8046875-0.7080078-1.0615234-1.1655273
		c-0.2568359-0.4570312-0.3857422-0.9614258-0.3857422-1.5131836c0-0.9394531,0.2480469-1.7036133,0.7431641-2.2929688
		c0.4941406-0.5888672,1.1552734-1.0644531,1.9824219-1.4282227c-0.3378906-0.175293-0.6425781-0.3632812-0.9111328-0.5639648
		c-0.2695312-0.2001953-0.5019531-0.4257812-0.6953125-0.6767578c-0.1953125-0.2504883-0.3457031-0.5322266-0.4511719-0.8457031
		c-0.1074219-0.3129883-0.1601562-0.6699219-0.1601562-1.0712891c0-0.5136719,0.1064453-0.9799805,0.3193359-1.3999023
		s0.5166016-0.7768555,0.9121094-1.0717773c0.3945312-0.2939453,0.8701172-0.5195312,1.4277344-0.6762695
		s1.1816406-0.2348633,1.8701172-0.2348633c0.6894531,0,1.3125,0.078125,1.8701172,0.2348633
		s1.0341797,0.3823242,1.4287109,0.6762695c0.3945312,0.2949219,0.6982422,0.6518555,0.9111328,1.0717773
		s0.3203125,0.8862305,0.3203125,1.3999023c0,0.4013672-0.0537109,0.7583008-0.1601562,1.0712891
		c-0.1064453,0.3134766-0.2568359,0.5952148-0.4511719,0.8457031c-0.1943359,0.2509766-0.4257812,0.4765625-0.6953125,0.6767578
		c-0.2695312,0.2006836-0.5732422,0.3886719-0.9111328,0.5639648c0.8261719,0.3637695,1.4873047,0.8393555,1.9824219,1.4282227
		c0.4951172,0.5893555,0.7421875,1.3535156,0.7421875,2.2929688
		C372.6367188,31.90625,372.5087891,32.4106445,372.2519531,32.8676758z"/>
	<polygon class="st0" points="246.1982422,29.8510742 250.4272461,29.8510742 250.4272461,23.7993164 250.3896484,23.7993164 	"/>
	<path class="st0" d="M465.7714844,141.3666992c-0.4199219,0-0.7539062,0.1396484-1.0009766,0.4199219
		c-0.2470703,0.2797852-0.3798828,0.671875-0.3984375,1.1757812h2.7998047
		c-0.0185547-0.5039062-0.1523438-0.8959961-0.3994141-1.1757812
		C466.5253906,141.5063477,466.1914062,141.3666992,465.7714844,141.3666992z"/>
	<path class="st0" d="M116.8286133,249.8857422h-27.371582v27.3710938h27.371582V249.8857422z M107.5942383,257.5839844
		l-5.5820312,12.1601562h-2.6875l5.487793-11.4648438h-6.5214844v-2.1054688h9.3032227V257.5839844z"/>
	<path class="st0" d="M102.6513672,322.1611328c1.0898438,0,1.9042969-0.5136719,2.4433594-1.5419922
		c0-0.5761719-0.0751953-1.0712891-0.2255859-1.484375s-0.3476562-0.7519531-0.5922852-1.0146484
		c-0.2441406-0.2636719-0.5229492-0.4570312-0.8364258-0.5830078c-0.3129883-0.125-0.6328125-0.1875-0.9584961-0.1875
		c-0.6513672,0-1.1777344,0.2128906-1.5786133,0.6386719c-0.4013672,0.4257812-0.5952148,0.9960938-0.5825195,1.7099609
		c-0.0126953,0.7519531,0.1811523,1.3505859,0.5825195,1.7949219
		C101.3041992,321.9384766,101.8867188,322.1611328,102.6513672,322.1611328z"/>
	<path class="st0" d="M473.1074219,141.4785156c-0.5224609,0-0.9238281,0.203125-1.2041016,0.6088867
		c-0.2792969,0.40625-0.4199219,0.996582-0.4199219,1.7709961c0,0.7749023,0.140625,1.3652344,0.4199219,1.7709961
		c0.2802734,0.40625,0.6816406,0.609375,1.2041016,0.609375c0.1865234,0,0.3457031-0.0209961,0.4765625-0.0634766
		c0.1308594-0.0419922,0.2451172-0.0927734,0.3427734-0.1538086c0.0976562-0.0605469,0.1865234-0.1279297,0.265625-0.203125
		c0.0800781-0.0742188,0.1660156-0.1489258,0.2597656-0.2236328v-3.5c-0.1777344-0.1586914-0.3759766-0.3012695-0.5957031-0.4272461
		C473.6376953,141.5415039,473.3876953,141.4785156,473.1074219,141.4785156z"/>
	<path class="st0" d="M101.6269531,290.9003906c0.2192383,0.1826172,0.4477539,0.3232422,0.6860352,0.4238281
		c0.237793,0.0996094,0.4443359,0.1503906,0.6201172,0.1503906c0.175293,0,0.3823242-0.0625,0.6201172-0.1884766
		c0.2382812-0.125,0.4667969-0.2841797,0.6860352-0.4794922c0.2192383-0.1933594,0.4042969-0.4130859,0.5546875-0.6572266
		c0.1503906-0.2451172,0.2255859-0.4912109,0.2255859-0.7431641c0-0.4511719-0.1567383-0.8203125-0.4697266-1.1083984
		c-0.3134766-0.2880859-0.8588867-0.4326172-1.6352539-0.4326172c-0.7519531,0-1.284668,0.1445312-1.5976562,0.4326172
		c-0.3134766,0.2880859-0.4697266,0.6572266-0.4697266,1.1083984c0,0.3144531,0.074707,0.5957031,0.2250977,0.8457031
		C101.2226562,290.5039062,101.4077148,290.7197266,101.6269531,290.9003906z"/>
	<path class="st0" d="M104.3710938,294.3964844c-0.3071289-0.2314453-0.6142578-0.4199219-0.9208984-0.5634766
		c-0.3071289-0.1435547-0.5356445-0.2158203-0.6860352-0.2158203s-0.3603516,0.0625-0.6298828,0.1875
		s-0.5385742,0.3007812-0.8081055,0.5263672s-0.5014648,0.4892578-0.6953125,0.7900391
		c-0.1943359,0.3007812-0.2915039,0.6191406-0.2915039,0.9580078c0,0.6015625,0.2163086,1.0810547,0.6484375,1.4384766
		c0.4326172,0.3564453,1.0810547,0.5351562,1.9453125,0.5351562c0.8647461,0,1.5131836-0.1787109,1.9453125-0.5351562
		c0.4321289-0.3574219,0.6484375-0.8369141,0.6484375-1.4384766c0-0.3007812-0.1157227-0.5986328-0.3476562-0.8925781
		S104.6777344,294.6289062,104.3710938,294.3964844z"/>
	<path class="st0" d="M116.8286133,279.2568359h-27.371582v27.3720703h27.371582V279.2568359z M107.5849609,297.7617188
		c-0.2568359,0.4570312-0.6108398,0.8457031-1.0620117,1.1650391s-0.9838867,0.5673828-1.5976562,0.7421875
		s-1.277832,0.2626953-1.9921875,0.2626953s-1.378418-0.0878906-1.9921875-0.2626953
		c-0.6142578-0.1748047-1.1464844-0.4228516-1.5976562-0.7421875s-0.8051758-0.7080078-1.0620117-1.1650391
		s-0.3852539-0.9619141-0.3852539-1.5136719c0-0.9394531,0.2475586-1.703125,0.7426758-2.2929688
		c0.4946289-0.5888672,1.1557617-1.0644531,1.9829102-1.4277344c-0.3383789-0.1757812-0.6425781-0.3632812-0.9116211-0.5644531
		c-0.2695312-0.2001953-0.5014648-0.4257812-0.6953125-0.6767578c-0.1948242-0.2509766-0.3452148-0.5322266-0.4511719-0.8457031
		c-0.1069336-0.3134766-0.159668-0.6699219-0.159668-1.0712891c0-0.5136719,0.105957-0.9804688,0.3193359-1.4003906
		c0.2128906-0.4199219,0.5166016-0.7763672,0.9116211-1.0712891c0.3945312-0.2939453,0.8706055-0.5195312,1.4282227-0.6767578
		c0.5576172-0.15625,1.1811523-0.234375,1.8701172-0.234375s1.3125,0.078125,1.8701172,0.234375
		c0.5576172,0.1572266,1.0336914,0.3828125,1.4287109,0.6767578c0.3945312,0.2949219,0.6982422,0.6513672,0.9111328,1.0712891
		s0.3198242,0.8867188,0.3198242,1.4003906c0,0.4013672-0.0537109,0.7578125-0.159668,1.0712891
		c-0.1069336,0.3134766-0.2573242,0.5947266-0.4511719,0.8457031c-0.1943359,0.2509766-0.4262695,0.4765625-0.6953125,0.6767578
		c-0.2700195,0.2011719-0.5732422,0.3886719-0.9116211,0.5644531c0.8266602,0.3632812,1.487793,0.8388672,1.9829102,1.4277344
		c0.4946289,0.5898438,0.7421875,1.3535156,0.7421875,2.2929688
		C107.9702148,296.7998047,107.8417969,297.3046875,107.5849609,297.7617188z"/>
	<path class="st0" d="M383.171875,42.2856445h27.3710938v-27.284668H383.171875V42.2856445z M392.4101562,23.6674805
		c0.2451172-0.5512695,0.5830078-1.0180664,1.015625-1.4003906c0.4316406-0.3818359,0.9394531-0.6733398,1.5224609-0.8740234
		c0.5820312-0.2001953,1.2119141-0.300293,1.8886719-0.300293c0.7138672,0,1.3691406,0.128418,1.9638672,0.3852539
		s1.109375,0.6386719,1.5410156,1.1464844c0.4326172,0.5073242,0.7675781,1.1494141,1.0058594,1.9262695
		c0.2382812,0.7773438,0.3574219,1.6791992,0.3574219,2.706543c0,1.1904297-0.1318359,2.2646484-0.3955078,3.2236328
		c-0.2626953,0.9584961-0.6416016,1.7758789-1.1367188,2.4526367s-1.1054688,1.1967773-1.8320312,1.5600586
		c-0.7275391,0.3632812-1.5478516,0.5449219-2.4628906,0.5449219c-0.6640625,0-1.2587891-0.0878906-1.7851562-0.2631836
		s-1.0527344-0.4257812-1.5791016-0.7519531l1.0712891-1.9545898c0.2880859,0.2509766,0.6201172,0.4697266,0.9960938,0.6577148
		s0.8085938,0.2822266,1.296875,0.2822266c0.4638672,0,0.8994141-0.1064453,1.3066406-0.3198242
		c0.4072266-0.2128906,0.7607422-0.5073242,1.0615234-0.8833008s0.5419922-0.8144531,0.7236328-1.3154297
		s0.2792969-1.0400391,0.2919922-1.6166992c-0.4394531,0.3886719-0.8994141,0.6674805-1.3818359,0.8364258
		c-0.4824219,0.1694336-1.0371094,0.2539062-1.6630859,0.2539062c-0.6015625,0-1.15625-0.1064453-1.6640625-0.3193359
		c-0.5068359-0.2128906-0.9453125-0.5136719-1.3154297-0.9023438c-0.3691406-0.3881836-0.6611328-0.8520508-0.8740234-1.390625
		s-0.3193359-1.1342773-0.3193359-1.7856445C392.0439453,24.8515625,392.1660156,24.2192383,392.4101562,23.6674805z"/>
	<path class="st0" d="M396.8183594,27.934082c1.0898438,0,1.9042969-0.5136719,2.4433594-1.5415039
		c0-0.5761719-0.0751953-1.0712891-0.2255859-1.484375c-0.1503906-0.4135742-0.3476562-0.7519531-0.5927734-1.0151367
		c-0.2441406-0.2631836-0.5224609-0.4570312-0.8359375-0.5825195s-0.6328125-0.1879883-0.9589844-0.1879883
		c-0.6513672,0-1.1777344,0.2128906-1.578125,0.6391602c-0.4013672,0.4257812-0.5957031,0.9960938-0.5830078,1.7099609
		c-0.0126953,0.7519531,0.1816406,1.3505859,0.5830078,1.7949219
		C395.4707031,27.7119141,396.0537109,27.934082,396.8183594,27.934082z"/>
	<rect x="324.4287109" y="308.6289062" class="st0" width="27.3710938" height="27.3710938"/>
	<rect x="383.171875" y="308.6289062" class="st0" width="27.3710938" height="27.3710938"/>
	<path class="st0" d="M89.4570312,336h27.371582v-27.3710938h-27.371582V336z M98.2436523,317.8945312
		c0.2446289-0.5517578,0.5830078-1.0185547,1.0151367-1.4003906s0.9399414-0.6738281,1.5224609-0.8740234
		s1.2124023-0.3007812,1.8886719-0.3007812c0.7143555,0,1.3691406,0.1289062,1.9643555,0.3857422
		c0.5947266,0.2568359,1.1088867,0.6386719,1.5410156,1.1464844c0.4321289,0.5068359,0.7675781,1.1494141,1.0053711,1.9257812
		c0.2382812,0.7773438,0.3574219,1.6796875,0.3574219,2.7070312c0,1.1904297-0.1318359,2.2646484-0.3950195,3.2236328
		c-0.2626953,0.9580078-0.6420898,1.7753906-1.1367188,2.4521484c-0.4951172,0.6767578-1.105957,1.1972656-1.8325195,1.5605469
		c-0.7270508,0.3632812-1.5478516,0.5449219-2.4624023,0.5449219c-0.6640625,0-1.2592773-0.0878906-1.7856445-0.2636719
		c-0.5258789-0.1748047-1.0522461-0.4257812-1.5786133-0.7519531l1.0712891-1.9541016
		c0.2880859,0.2509766,0.6201172,0.4697266,0.9960938,0.6572266c0.3759766,0.1884766,0.8081055,0.2822266,1.296875,0.2822266
		c0.4633789,0,0.8989258-0.1064453,1.3061523-0.3193359s0.7612305-0.5078125,1.0620117-0.8837891
		s0.5419922-0.8144531,0.7236328-1.3154297s0.2788086-1.0400391,0.2915039-1.6162109
		c-0.4389648,0.3886719-0.8994141,0.6669922-1.3813477,0.8359375c-0.4829102,0.1699219-1.0371094,0.2539062-1.6635742,0.2539062
		c-0.6015625,0-1.1557617-0.1064453-1.6635742-0.3193359c-0.5073242-0.2128906-0.9458008-0.5136719-1.3154297-0.9023438
		c-0.3696289-0.3876953-0.6611328-0.8515625-0.8740234-1.390625c-0.2133789-0.5380859-0.3193359-1.1337891-0.3193359-1.7851562
		C97.8774414,319.078125,97.9995117,318.4462891,98.2436523,317.8945312z"/>
	<path class="st0" d="M103.0083008,234.7578125c-1.0898438,0-1.9047852,0.5136719-2.4433594,1.5410156
		c0,0.5771484,0.0751953,1.0712891,0.2255859,1.4853516c0.1503906,0.4130859,0.3476562,0.7519531,0.5922852,1.0146484
		c0.2441406,0.2626953,0.5229492,0.4580078,0.8359375,0.5830078c0.3134766,0.125,0.6328125,0.1875,0.9589844,0.1875
		c0.6513672,0,1.1772461-0.2128906,1.5786133-0.6386719c0.4008789-0.4257812,0.5947266-0.9960938,0.5825195-1.7109375
		c0.012207-0.7509766-0.1816406-1.3496094-0.5825195-1.7949219
		C104.3549805,234.9804688,103.7724609,234.7578125,103.0083008,234.7578125z"/>
	<path class="st0" d="M116.8286133,220.5146484h-27.371582v27.3710938h27.371582V220.5146484z M107.4160156,239.0244141
		c-0.2446289,0.5517578-0.5830078,1.0185547-1.0151367,1.4003906s-0.9399414,0.6738281-1.5224609,0.8740234
		s-1.2124023,0.3007812-1.8886719,0.3007812c-0.7143555,0-1.3691406-0.1289062-1.9643555-0.3857422
		s-1.1088867-0.6386719-1.5410156-1.1464844c-0.4326172-0.5068359-0.7675781-1.1464844-1.0058594-1.9169922
		c-0.237793-0.7705078-0.3569336-1.6757812-0.3569336-2.7158203c0-1.1777344,0.1318359-2.2460938,0.3945312-3.2050781
		c0.2631836-0.9580078,0.6420898-1.7753906,1.137207-2.4521484s1.1025391-1.2001953,1.8232422-1.5693359
		c0.7202148-0.3691406,1.5439453-0.5546875,2.4716797-0.5546875c0.6640625,0,1.2592773,0.0878906,1.7856445,0.2636719
		c0.5258789,0.1748047,1.0522461,0.4257812,1.5786133,0.7509766l-1.0712891,1.9550781
		c-0.2885742-0.2509766-0.6201172-0.4697266-0.9960938-0.6582031c-0.3759766-0.1875-0.8081055-0.28125-1.296875-0.28125
		c-0.4638672,0-0.8994141,0.1064453-1.3061523,0.3193359c-0.4077148,0.2128906-0.7612305,0.5068359-1.0620117,0.8828125
		s-0.5424805,0.8154297-0.7236328,1.3164062c-0.1821289,0.5009766-0.2792969,1.0400391-0.2915039,1.6162109
		c0.4384766-0.3886719,0.8989258-0.6669922,1.3813477-0.8369141c0.4824219-0.1689453,1.0366211-0.2529297,1.6635742-0.2529297
		c0.6015625,0,1.1557617,0.1064453,1.6630859,0.3193359c0.5078125,0.2128906,0.9462891,0.5136719,1.315918,0.9023438
		c0.3696289,0.3876953,0.6606445,0.8515625,0.8740234,1.390625c0.2128906,0.5390625,0.3193359,1.1337891,0.3193359,1.7851562
		C107.7822266,237.8398438,107.6601562,238.4736328,107.4160156,239.0244141z"/>
	<path class="st0" d="M116.8286133,191.1425781h-27.371582v27.3720703h27.371582V191.1425781z M107.293457,208.9794922
		c-0.2128906,0.6015625-0.5292969,1.1123047-0.9487305,1.5322266c-0.4204102,0.4199219-0.9433594,0.7421875-1.5698242,0.9677734
		s-1.3466797,0.3378906-2.1611328,0.3378906c-1.078125,0-1.9863281-0.2314453-2.7255859-0.6953125
		c-0.7392578-0.4628906-1.296875-1.0771484-1.6723633-1.8417969l2.0297852-1.0527344
		c0.2128906,0.4765625,0.5512695,0.8496094,1.0146484,1.1181641c0.4633789,0.2695312,0.9272461,0.4111328,1.3911133,0.4228516
		c0.8642578,0.0253906,1.5004883-0.2216797,1.9077148-0.7421875c0.4067383-0.5195312,0.6108398-1.2060547,0.6108398-2.0576172
		c0-0.3505859-0.0537109-0.6767578-0.159668-0.9775391c-0.1069336-0.3007812-0.2602539-0.5634766-0.4604492-0.7890625
		c-0.2006836-0.2255859-0.4453125-0.4013672-0.7333984-0.5263672s-0.6079102-0.1884766-0.9584961-0.1884766
		c-0.4760742,0-0.8896484,0.1103516-1.2402344,0.3291016c-0.3510742,0.2197266-0.6206055,0.4980469-0.8081055,0.8359375
		l-1.9550781-0.375l0.5078125-7.2177734h7.3300781v2.1054688h-5.4882812l-0.1879883,3.0820312
		c0.112793-0.1132812,0.237793-0.2158203,0.3759766-0.3105469c0.1376953-0.09375,0.3066406-0.1777344,0.5073242-0.2529297
		c0.2001953-0.0751953,0.4350586-0.1318359,0.7050781-0.1699219c0.269043-0.0371094,0.5854492-0.0556641,0.9487305-0.0556641
		c0.6137695,0,1.168457,0.1308594,1.6635742,0.3945312c0.4946289,0.2626953,0.9208984,0.6074219,1.277832,1.0332031
		c0.3574219,0.4267578,0.6328125,0.9091797,0.8271484,1.4472656c0.1943359,0.5390625,0.2915039,1.0839844,0.2915039,1.6357422
		C107.6132812,207.7080078,107.5063477,208.3779297,107.293457,208.9794922z"/>
	<path class="st0" d="M116.8286133,161.7714844h-27.371582v27.3710938h27.371582V161.7714844z M108.0078125,178.5097656h-1.9169922
		v3.1201172h-2.3305664v-3.1201172h-6.1083984v-2.3867188l5.7885742-8.0629883h2.6503906v8.5698242h1.9169922V178.5097656z"/>
	<rect x="118.8286133" y="44.3720703" class="st1" width="27.3710938" height="27.2851562"/>
	<rect x="148.199707" y="44.3720703" class="st1" width="27.371582" height="27.2851562"/>
	<rect x="177.5712891" y="44.3720703" class="st1" width="27.371582" height="27.2851562"/>
	<rect x="206.9428711" y="44.3720703" class="st1" width="27.371582" height="27.2851562"/>
	<rect x="236.3144531" y="44.3720703" class="st1" width="27.3710938" height="27.2851562"/>
	<rect x="265.6855469" y="44.3720703" class="st1" width="27.3720703" height="27.2851562"/>
	<rect x="295.0576172" y="44.3720703" class="st1" width="27.3710938" height="27.2851562"/>
	<rect x="324.4287109" y="44.3720703" class="st1" width="27.3710938" height="27.2851562"/>
	<rect x="353.7998047" y="44.3720703" class="st1" width="27.3720703" height="27.2851562"/>
	<rect x="383.171875" y="44.3720703" class="st1" width="27.3710938" height="27.2851562"/>
	<path class="st2" d="M381.171875,13.0009766h-27.3720703h-2h-27.3710938h-2h-27.3710938h-2h-27.3720703h-2h-27.3710938h-2
		h-27.371582h-2h-27.371582h-2h-27.371582h-2h-29.3710938v29.284668h-29.371582v29.371582v2v27.3710938v2v27.371582v2v27.371582v2
		v27.3710938v2v27.3720703v2v27.3710938v2v27.3710938v2v27.3720703v2V338h29.371582h2h27.3710938h2h27.371582h2h27.371582h2
		h27.371582h2h27.3710938h2h27.3720703h2h27.3710938h2h27.3710938h2h27.3720703h2h29.3710938v-29.3710938v-2v-27.3720703v-2
		v-27.3710938v-2v-27.3710938v-2v-27.3720703v-2v-27.3710938v-2v-27.371582v-2v-27.371582v-2V73.6572266v-2V44.3720703v-2.0864258
		v-29.284668H383.171875H381.171875z M381.171875,336h-27.3720703v-27.3710938h27.3720703V336z M322.4287109,336h-27.3710938
		v-27.3710938h27.3710938V336z M293.0576172,336h-27.3720703v-27.3710938h27.3720703V336z M263.6855469,336h-27.3710938v-27.3710938
		h27.3710938V336z M234.3144531,336h-27.371582v-27.3710938h27.371582V336z M204.9428711,336h-27.371582v-27.3710938h27.371582V336z
		 M175.5712891,336h-27.371582v-27.3710938h27.371582V336z M146.199707,336h-27.3710938v-27.3710938h27.3710938V336z
		 M353.7998047,306.6289062v-27.3720703h27.3720703v27.3720703H353.7998047z M118.8286133,279.2568359h27.3710938v27.3720703
		h-27.3710938V279.2568359z M118.8286133,249.8857422h27.3710938v27.3710938h-27.3710938V249.8857422z M118.8286133,220.5146484
		h27.3710938v27.3710938h-27.3710938V220.5146484z M118.8286133,191.1425781h27.3710938v27.3720703h-27.3710938V191.1425781z
		 M118.8286133,161.7714844h27.3710938v27.3710938h-27.3710938V161.7714844z M118.8286133,132.3999023h27.3710938v27.371582
		h-27.3710938V132.3999023z M118.8286133,103.0283203h27.3710938v27.371582h-27.3710938V103.0283203z M118.8286133,73.6572266
		h27.3710938v27.3710938h-27.3710938V73.6572266z M118.8286133,44.3720703h27.3710938v27.2851562h-27.3710938V44.3720703z
		 M381.171875,44.3720703v27.2851562h-27.3720703V44.3720703H381.171875z M381.171875,101.0283203h-27.3720703V73.6572266
		h27.3720703V101.0283203z M381.171875,130.3999023h-27.3720703v-27.371582h27.3720703V130.3999023z M381.171875,159.7714844
		h-27.3720703v-27.371582h27.3720703V159.7714844z M381.171875,189.1425781h-27.3720703v-27.3710938h27.3720703V189.1425781z
		 M381.171875,218.5146484h-27.3720703v-27.3720703h27.3720703V218.5146484z M381.171875,247.8857422h-27.3720703v-27.3710938
		h27.3720703V247.8857422z M381.171875,277.2568359h-27.3720703v-27.3710938h27.3720703V277.2568359z M148.199707,249.8857422
		h27.371582v27.3710938h-27.371582V249.8857422z M148.199707,220.5146484h27.371582v27.3710938h-27.371582V220.5146484z
		 M148.199707,191.1425781h27.371582v27.3720703h-27.371582V191.1425781z M148.199707,161.7714844h27.371582v27.3710938h-27.371582
		V161.7714844z M148.199707,132.3999023h27.371582v27.371582h-27.371582V132.3999023z M148.199707,103.0283203h27.371582v27.371582
		h-27.371582V103.0283203z M148.199707,73.6572266h27.371582v27.3710938h-27.371582V73.6572266z M351.7998047,101.0283203
		h-27.3710938V73.6572266h27.3710938V101.0283203z M351.7998047,130.3999023h-27.3710938v-27.371582h27.3710938V130.3999023z
		 M351.7998047,159.7714844h-27.3710938v-27.371582h27.3710938V159.7714844z M351.7998047,189.1425781h-27.3710938v-27.3710938
		h27.3710938V189.1425781z M351.7998047,218.5146484h-27.3710938v-27.3720703h27.3710938V218.5146484z M351.7998047,247.8857422
		h-27.3710938v-27.3710938h27.3710938V247.8857422z M177.5712891,220.5146484h27.371582v27.3710938h-27.371582V220.5146484z
		 M177.5712891,191.1425781h27.371582v27.3720703h-27.371582V191.1425781z M177.5712891,161.7714844h27.371582v27.3710938
		h-27.371582V161.7714844z M177.5712891,132.3999023h27.371582v27.371582h-27.371582V132.3999023z M177.5712891,103.0283203
		h27.371582v27.371582h-27.371582V103.0283203z M322.4287109,130.3999023h-27.3710938v-27.371582h27.3710938V130.3999023z
		 M322.4287109,159.7714844h-27.3710938v-27.371582h27.3710938V159.7714844z M322.4287109,189.1425781h-27.3710938v-27.3710938
		h27.3710938V189.1425781z M322.4287109,218.5146484h-27.3710938v-27.3720703h27.3710938V218.5146484z M234.3144531,218.5146484
		h-27.371582v-27.3720703h27.371582V218.5146484z M206.9428711,161.7714844h27.371582v27.3710938h-27.371582V161.7714844z
		 M206.9428711,132.3999023h27.371582v27.371582h-27.371582V132.3999023z M293.0576172,159.7714844h-27.3720703v-27.371582
		h27.3720703V159.7714844z M293.0576172,189.1425781h-27.3720703v-27.3710938h27.3720703V189.1425781z M236.3144531,161.7714844
		h27.3710938v27.3710938h-27.3710938V161.7714844z M263.6855469,159.7714844h-27.3710938v-27.371582h27.3710938V159.7714844z
		 M206.9428711,220.5146484h27.371582v27.3710938h-27.371582V220.5146484z M236.3144531,218.5146484v-27.3720703h27.3710938
		v27.3720703H236.3144531z M265.6855469,191.1425781h27.3720703v27.3720703h-27.3720703V191.1425781z M293.0576172,130.3999023
		h-27.3720703v-27.371582h27.3720703V130.3999023z M263.6855469,130.3999023h-27.3710938v-27.371582h27.3710938V130.3999023z
		 M234.3144531,130.3999023h-27.371582v-27.371582h27.371582V130.3999023z M236.3144531,247.8857422v-27.3710938h27.3710938
		v27.3710938H236.3144531z M265.6855469,220.5146484h27.3720703v27.3710938h-27.3720703V220.5146484z M177.5712891,249.8857422
		h27.371582v27.3710938h-27.371582V249.8857422z M206.9428711,249.8857422h27.371582v27.3710938h-27.371582V249.8857422z
		 M236.3144531,249.8857422h27.3710938v27.3710938h-27.3710938V249.8857422z M295.0576172,247.8857422v-27.3710938h27.3710938
		v27.3710938H295.0576172z M322.4287109,101.0283203h-27.3710938V73.6572266h27.3710938V101.0283203z M293.0576172,101.0283203
		h-27.3720703V73.6572266h27.3720703V101.0283203z M263.6855469,101.0283203h-27.3710938V73.6572266h27.3710938V101.0283203z
		 M234.3144531,101.0283203h-27.371582V73.6572266h27.371582V101.0283203z M204.9428711,101.0283203h-27.371582V73.6572266
		h27.371582V101.0283203z M265.6855469,277.2568359v-27.3710938h27.3720703v27.3710938H265.6855469z M295.0576172,249.8857422
		h27.3710938v27.3710938h-27.3710938V249.8857422z M148.199707,279.2568359h27.371582v27.3720703h-27.371582V279.2568359z
		 M177.5712891,279.2568359h27.371582v27.3720703h-27.371582V279.2568359z M206.9428711,279.2568359h27.371582v27.3720703
		h-27.371582V279.2568359z M236.3144531,279.2568359h27.3710938v27.3720703h-27.3710938V279.2568359z M265.6855469,279.2568359
		h27.3720703v27.3720703h-27.3720703V279.2568359z M324.4287109,277.2568359v-27.3710938h27.3710938v27.3710938H324.4287109z
		 M351.7998047,44.3720703v27.2851562h-27.3710938V44.3720703H351.7998047z M322.4287109,44.3720703v27.2851562h-27.3710938
		V44.3720703H322.4287109z M293.0576172,44.3720703v27.2851562h-27.3720703V44.3720703H293.0576172z M263.6855469,44.3720703
		v27.2851562h-27.3710938V44.3720703H263.6855469z M234.3144531,44.3720703v27.2851562h-27.371582V44.3720703H234.3144531z
		 M204.9428711,44.3720703v27.2851562h-27.371582V44.3720703H204.9428711z M175.5712891,44.3720703v27.2851562h-27.371582
		V44.3720703H175.5712891z M295.0576172,306.6289062v-27.3720703h27.3710938v27.3720703H295.0576172z M324.4287109,279.2568359
		h27.3710938v27.3720703h-27.3710938V279.2568359z M410.5429688,306.6289062H383.171875v-27.3720703h27.3710938V306.6289062z
		 M410.5429688,277.2568359H383.171875v-27.3710938h27.3710938V277.2568359z M410.5429688,247.8857422H383.171875v-27.3710938
		h27.3710938V247.8857422z M410.5429688,218.5146484H383.171875v-27.3720703h27.3710938V218.5146484z M410.5429688,189.1425781
		H383.171875v-27.3710938h27.3710938V189.1425781z M410.5429688,159.7714844H383.171875v-27.371582h27.3710938V159.7714844z
		 M410.5429688,130.3999023H383.171875v-27.371582h27.3710938V130.3999023z M410.5429688,101.0283203H383.171875V73.6572266
		h27.3710938V101.0283203z M383.171875,71.6572266V44.3720703h27.3710938v27.2851562H383.171875z M353.7998047,15.0009766
		h27.3720703v27.284668h-27.3720703V15.0009766z M324.4287109,15.0009766h27.3710938v27.284668h-27.3710938V15.0009766z
		 M295.0576172,15.0009766h27.3710938v27.284668h-27.3710938V15.0009766z M265.6855469,15.0009766h27.3720703v27.284668h-27.3720703
		V15.0009766z M236.3144531,15.0009766h27.3710938v27.284668h-27.3710938V15.0009766z M206.9428711,15.0009766h27.371582v27.284668
		h-27.371582V15.0009766z M177.5712891,15.0009766h27.371582v27.284668h-27.371582V15.0009766z M148.199707,15.0009766h27.371582
		v27.284668h-27.371582V15.0009766z M118.8286133,15.0009766h27.3710938v27.284668h-27.3710938V15.0009766z M89.4570312,44.2856445
		h27.371582v0.0864258v27.2851562h-27.371582V44.2856445z M89.4570312,73.6572266h27.371582v27.3710938h-27.371582V73.6572266z
		 M89.4570312,103.0283203h27.371582v27.371582h-27.371582V103.0283203z M89.4570312,132.3999023h27.371582v27.371582h-27.371582
		V132.3999023z M89.4570312,161.7714844h27.371582v27.3710938h-27.371582V161.7714844z M89.4570312,191.1425781h27.371582
		v27.3720703h-27.371582V191.1425781z M89.4570312,220.5146484h27.371582v27.3710938h-27.371582V220.5146484z
		 M89.4570312,249.8857422h27.371582v27.3710938h-27.371582V249.8857422z M89.4570312,279.2568359h27.371582v27.3720703h-27.371582
		V279.2568359z M116.8286133,336h-27.371582v-27.3710938h27.371582V336z M351.7998047,336h-27.3710938v-27.3710938h27.3710938V336z
		 M410.5429688,336H383.171875v-27.3710938h27.3710938V336z M410.5429688,15.0009766v27.284668H383.171875v-27.284668H410.5429688z"
		/>
	<rect x="118.8286133" y="73.6572266" class="st1" width="27.3710938" height="27.3710938"/>
	<rect x="148.199707" y="73.6572266" class="st1" width="27.371582" height="27.3710938"/>
	<rect x="177.5712891" y="73.6572266" class="st1" width="27.371582" height="27.3710938"/>
	<rect x="206.9428711" y="73.6572266" class="st1" width="27.371582" height="27.3710938"/>
	<rect x="236.3144531" y="73.6572266" class="st1" width="27.3710938" height="27.3710938"/>
	<rect x="265.6855469" y="73.6572266" class="st1" width="27.3720703" height="27.3710938"/>
	<rect x="295.0576172" y="73.6572266" class="st1" width="27.3710938" height="27.3710938"/>
	<rect x="324.4287109" y="73.6572266" class="st1" width="27.3710938" height="27.3710938"/>
	<rect x="353.7998047" y="73.6572266" class="st1" width="27.3720703" height="27.3710938"/>
	<rect x="383.171875" y="73.6572266" class="st1" width="27.3710938" height="27.3710938"/>
	<rect x="118.8286133" y="103.0283203" class="st1" width="27.3710938" height="27.371582"/>
	<rect x="148.199707" y="103.0283203" class="st1" width="27.371582" height="27.371582"/>
	<rect x="177.5712891" y="103.0283203" class="st1" width="27.371582" height="27.371582"/>
	<rect x="206.9428711" y="103.0283203" class="st1" width="27.371582" height="27.371582"/>
	<rect x="236.3144531" y="103.0283203" class="st1" width="27.3710938" height="27.371582"/>
	<rect x="265.6855469" y="103.0283203" class="st1" width="27.3720703" height="27.371582"/>
	<rect x="295.0576172" y="103.0283203" class="st1" width="27.3710938" height="27.371582"/>
	<rect x="324.4287109" y="103.0283203" class="st1" width="27.3710938" height="27.371582"/>
	<rect x="353.7998047" y="103.0283203" class="st1" width="27.3720703" height="27.371582"/>
	<rect x="383.171875" y="103.0283203" class="st1" width="27.3710938" height="27.371582"/>
	<rect x="118.8286133" y="132.3999023" class="st1" width="27.3710938" height="27.371582"/>
	<rect x="148.199707" y="132.3999023" class="st1" width="27.371582" height="27.371582"/>
	<rect x="177.5712891" y="132.3999023" class="st1" width="27.371582" height="27.371582"/>
	<rect x="206.9428711" y="132.3999023" class="st1" width="27.371582" height="27.371582"/>
	<rect x="236.3144531" y="132.3999023" class="st1" width="27.3710938" height="27.371582"/>
	<rect x="265.6855469" y="132.3999023" class="st1" width="27.3720703" height="27.371582"/>
	<rect x="295.0576172" y="132.3999023" class="st1" width="27.3710938" height="27.371582"/>
	<rect x="324.4287109" y="132.3999023" class="st1" width="27.3710938" height="27.371582"/>
	<rect x="353.7998047" y="132.3999023" class="st1" width="27.3720703" height="27.371582"/>
	<rect x="383.171875" y="132.3999023" class="st1" width="27.3710938" height="27.371582"/>
	<rect x="118.8286133" y="161.7714844" class="st1" width="27.3710938" height="27.3710938"/>
	<rect x="148.199707" y="161.7714844" class="st1" width="27.371582" height="27.3710938"/>
	<rect x="177.5712891" y="161.7714844" class="st1" width="27.371582" height="27.3710938"/>
	<rect x="206.9428711" y="161.7714844" class="st1" width="27.371582" height="27.3710938"/>
	<rect x="236.3144531" y="161.7714844" class="st1" width="27.3710938" height="27.3710938"/>
	<rect x="265.6855469" y="161.7714844" class="st1" width="27.3720703" height="27.3710938"/>
	<rect x="295.0576172" y="161.7714844" class="st1" width="27.3710938" height="27.3710938"/>
	<rect x="324.4287109" y="161.7714844" class="st1" width="27.3710938" height="27.3710938"/>
	<rect x="353.7998047" y="161.7714844" class="st1" width="27.3720703" height="27.3710938"/>
	<rect x="383.171875" y="161.7714844" class="st1" width="27.3710938" height="27.3710938"/>
	<rect x="118.8286133" y="191.1425781" class="st1" width="27.3710938" height="27.3720703"/>
	<rect x="148.199707" y="191.1425781" class="st1" width="27.371582" height="27.3720703"/>
	<rect x="177.5712891" y="191.1425781" class="st1" width="27.371582" height="27.3720703"/>
	<rect x="295.0576172" y="191.1425781" class="st1" width="27.3710938" height="27.3720703"/>
	<rect x="324.4287109" y="191.1425781" class="st1" width="27.3710938" height="27.3720703"/>
	<rect x="353.7998047" y="191.1425781" class="st1" width="27.3720703" height="27.3720703"/>
	<rect x="383.171875" y="191.1425781" class="st1" width="27.3710938" height="27.3720703"/>
	<rect x="118.8286133" y="220.5146484" class="st1" width="27.3710938" height="27.3710938"/>
	<rect x="148.199707" y="220.5146484" class="st1" width="27.371582" height="27.3710938"/>
	<rect x="177.5712891" y="220.5146484" class="st1" width="27.371582" height="27.3710938"/>
	<rect x="206.9428711" y="220.5146484" class="st1" width="27.371582" height="27.3710938"/>
	<rect x="236.3144531" y="220.5146484" class="st1" width="27.3710938" height="27.3710938"/>
	<rect x="295.0576172" y="220.5146484" class="st1" width="27.3710938" height="27.3710938"/>
	<rect x="324.4287109" y="220.5146484" class="st1" width="27.3710938" height="27.3710938"/>
	<rect x="353.7998047" y="220.5146484" class="st1" width="27.3720703" height="27.3710938"/>
	<rect x="383.171875" y="220.5146484" class="st1" width="27.3710938" height="27.3710938"/>
	<rect x="118.8286133" y="249.8857422" class="st1" width="27.3710938" height="27.3710938"/>
	<rect x="148.199707" y="249.8857422" class="st1" width="27.371582" height="27.3710938"/>
	<rect x="177.5712891" y="249.8857422" class="st1" width="27.371582" height="27.3710938"/>
	<rect x="206.9428711" y="249.8857422" class="st1" width="27.371582" height="27.3710938"/>
	<rect x="236.3144531" y="249.8857422" class="st1" width="27.3710938" height="27.3710938"/>
	<rect x="265.6855469" y="249.8857422" class="st1" width="27.3720703" height="27.3710938"/>
	<rect x="295.0576172" y="249.8857422" class="st1" width="27.3710938" height="27.3710938"/>
	<rect x="383.171875" y="249.8857422" class="st1" width="27.3710938" height="27.3710938"/>
	<rect x="118.8286133" y="279.2568359" class="st1" width="27.3710938" height="27.3720703"/>
	<rect x="148.199707" y="279.2568359" class="st1" width="27.371582" height="27.3720703"/>
	<rect x="177.5712891" y="279.2568359" class="st1" width="27.371582" height="27.3720703"/>
	<rect x="206.9428711" y="279.2568359" class="st1" width="27.371582" height="27.3720703"/>
	<rect x="236.3144531" y="279.2568359" class="st1" width="27.3710938" height="27.3720703"/>
	<rect x="265.6855469" y="279.2568359" class="st1" width="27.3720703" height="27.3720703"/>
	<rect x="295.0576172" y="279.2568359" class="st1" width="27.3710938" height="27.3720703"/>
	<rect x="324.4287109" y="279.2568359" class="st1" width="27.3710938" height="27.3720703"/>
	<rect x="383.171875" y="279.2568359" class="st1" width="27.3710938" height="27.3720703"/>
	<rect x="442.0136719" y="44.2856445" class="st1" width="27.3710938" height="27.371582"/>
	<path class="st2" d="M471.3847656,42.2856445h-31.3710938v31.371582h31.3710938V42.2856445z M469.3847656,71.6572266h-27.3710938
		v-27.371582h27.3710938V71.6572266z"/>
	<path class="st2" d="M471.3847656,101.0283203h-31.3710938v31.371582h31.3710938V101.0283203z M469.3847656,130.3999023
		h-27.3710938v-27.371582h27.3710938V130.3999023z"/>
	<rect x="118.8286133" y="308.6289062" class="st1" width="27.3710938" height="27.3710938"/>
	<rect x="148.199707" y="308.6289062" class="st1" width="27.371582" height="27.3710938"/>
	<rect x="177.5712891" y="308.6289062" class="st1" width="27.371582" height="27.3710938"/>
	<rect x="206.9428711" y="308.6289062" class="st1" width="27.371582" height="27.3710938"/>
	<rect x="236.3144531" y="308.6289062" class="st1" width="27.3710938" height="27.3710938"/>
	<rect x="265.6855469" y="308.6289062" class="st1" width="27.3720703" height="27.3710938"/>
	<rect x="295.0576172" y="308.6289062" class="st1" width="27.3710938" height="27.3710938"/>
	<rect x="353.7998047" y="308.6289062" class="st1" width="27.3720703" height="27.3710938"/>
	<path d="M106.7578125,53.4550781c-0.3945312-0.6264648-0.9052734-1.121582-1.5317383-1.4848633
		s-1.390625-0.5449219-2.2929688-0.5449219c-0.9018555,0-1.6665039,0.1816406-2.2929688,0.5449219
		s-1.137207,0.8583984-1.5317383,1.4848633s-0.6796875,1.3623047-0.8549805,2.2084961
		c-0.1757812,0.8457031-0.2631836,1.7573242-0.2631836,2.734375c0,0.9775391,0.0874023,1.8891602,0.2631836,2.7348633
		c0.175293,0.8457031,0.4604492,1.5820312,0.8549805,2.2084961s0.9052734,1.121582,1.5317383,1.4848633
		s1.3911133,0.5449219,2.2929688,0.5449219c0.9023438,0,1.6665039-0.1816406,2.2929688-0.5449219
		s1.137207-0.8583984,1.5317383-1.4848633c0.3950195-0.6264648,0.6796875-1.362793,0.8554688-2.2084961
		c0.175293-0.8457031,0.2631836-1.7573242,0.2631836-2.7348633c0-0.9770508-0.0878906-1.8886719-0.2631836-2.734375
		C107.4375,54.8173828,107.152832,54.081543,106.7578125,53.4550781z M105.2543945,60.7382812
		c-0.1191406,0.6328125-0.2885742,1.1401367-0.5073242,1.5219727c-0.2197266,0.3828125-0.4824219,0.6582031-0.7895508,0.8271484
		c-0.3071289,0.1694336-0.6484375,0.2539062-1.0244141,0.2539062s-0.7172852-0.0844727-1.0244141-0.2539062
		c-0.3071289-0.1689453-0.5703125-0.4443359-0.7890625-0.8271484c-0.2197266-0.3818359-0.3886719-0.8891602-0.5078125-1.5219727
		s-0.1782227-1.4125977-0.1782227-2.340332c0-0.9267578,0.059082-1.7070312,0.1782227-2.3398438
		s0.2880859-1.1401367,0.5078125-1.5224609c0.21875-0.3818359,0.4819336-0.6577148,0.7890625-0.8271484
		c0.3071289-0.1689453,0.6484375-0.253418,1.0244141-0.253418s0.7172852,0.0844727,1.0244141,0.253418
		c0.3071289,0.1694336,0.5698242,0.4453125,0.7895508,0.8271484c0.21875,0.3823242,0.3881836,0.8896484,0.5073242,1.5224609
		s0.1787109,1.4130859,0.1787109,2.3398438C105.4331055,59.3256836,105.3735352,60.1054688,105.2543945,60.7382812z"/>
	<path class="st1" d="M135.4248047,23.1225586c-0.3945312-0.6264648-0.9052734-1.121582-1.5317383-1.4848633
		s-1.390625-0.5449219-2.2929688-0.5449219c-0.9018555,0-1.6665039,0.1816406-2.2929688,0.5449219
		s-1.137207,0.8583984-1.5317383,1.4848633s-0.6796875,1.3623047-0.8549805,2.2084961
		c-0.1757812,0.8457031-0.2631836,1.7573242-0.2631836,2.734375c0,0.9775391,0.0874023,1.8891602,0.2631836,2.7348633
		c0.175293,0.8457031,0.4604492,1.5820312,0.8549805,2.2084961s0.9052734,1.121582,1.5317383,1.4848633
		s1.3911133,0.5449219,2.2929688,0.5449219c0.9023438,0,1.6665039-0.1816406,2.2929688-0.5449219
		s1.137207-0.8583984,1.5317383-1.4848633c0.3950195-0.6264648,0.6796875-1.362793,0.8554688-2.2084961
		c0.175293-0.8457031,0.2631836-1.7573242,0.2631836-2.7348633c0-0.9770508-0.0878906-1.8886719-0.2631836-2.734375
		C136.1044922,24.4848633,135.8198242,23.7490234,135.4248047,23.1225586z M133.9213867,30.4057617
		c-0.1191406,0.6328125-0.2885742,1.1401367-0.5073242,1.5219727c-0.2197266,0.3828125-0.4824219,0.6582031-0.7895508,0.8271484
		c-0.3071289,0.1694336-0.6484375,0.2539062-1.0244141,0.2539062s-0.7172852-0.0844727-1.0244141-0.2539062
		c-0.3071289-0.1689453-0.5703125-0.4443359-0.7890625-0.8271484c-0.2197266-0.3818359-0.3886719-0.8891602-0.5078125-1.5219727
		s-0.1782227-1.4125977-0.1782227-2.340332c0-0.9267578,0.059082-1.7070312,0.1782227-2.3398438
		s0.2880859-1.1401367,0.5078125-1.5224609c0.21875-0.3818359,0.4819336-0.6577148,0.7890625-0.8271484
		c0.3071289-0.1689453,0.6484375-0.253418,1.0244141-0.253418s0.7172852,0.0844727,1.0244141,0.253418
		c0.3071289,0.1694336,0.5698242,0.4453125,0.7895508,0.8271484c0.21875,0.3823242,0.3881836,0.8896484,0.5073242,1.5224609
		s0.1787109,1.4130859,0.1787109,2.3398438C134.1000977,28.9931641,134.0405273,29.7729492,133.9213867,30.4057617z"/>
	<path class="st1" d="M162.6601562,21.0927734h-1.8984375c-0.3129883,0.300293-0.7265625,0.5258789-1.2402344,0.6762695
		c-0.5141602,0.1503906-1.0839844,0.2382812-1.7104492,0.2631836v1.5791016h2.4057617v9.3598633h-2.1049805v1.8793945h6.6347656
		v-1.8793945h-2.0864258V21.0927734z"/>
	<path class="st1" d="M193.109375,28.9584961c0.5947266-0.5703125,1.0678711-1.1655273,1.4189453-1.7856445
		c0.3505859-0.6201172,0.5263672-1.34375,0.5263672-2.1708984c0-0.6391602-0.1191406-1.199707-0.3574219-1.6821289
		c-0.237793-0.4824219-0.5576172-0.8896484-0.9584961-1.2216797s-0.8676758-0.5825195-1.3999023-0.7519531
		c-0.5327148-0.1689453-1.0996094-0.253418-1.7011719-0.253418s-1.171875,0.09375-1.7104492,0.2817383
		s-1.0146484,0.4482422-1.4282227,0.7797852c-0.4135742,0.3325195-0.7519531,0.7236328-1.0151367,1.1748047
		s-0.4321289,0.9399414-0.5073242,1.4663086l2.1801758,0.4697266c0.1503906-0.6264648,0.4257812-1.1401367,0.8271484-1.5410156
		c0.4008789-0.4008789,0.9394531-0.6015625,1.6162109-0.6015625c0.6264648,0,1.1181641,0.1630859,1.4755859,0.4887695
		c0.3569336,0.3256836,0.5356445,0.7890625,0.5356445,1.390625c0,0.4135742-0.1567383,0.8398438-0.4697266,1.277832
		c-0.3134766,0.4389648-0.7050781,0.8808594-1.1748047,1.3251953c-0.4702148,0.4448242-0.9838867,0.8901367-1.5415039,1.3344727
		c-0.5576172,0.4448242-1.0839844,0.8803711-1.5786133,1.3061523c-0.4951172,0.4262695-0.9243164,0.8398438-1.2875977,1.2407227
		s-0.5761719,0.7768555-0.6386719,1.1274414v2.2368164h9.1342773v-2.1049805h-6.4282227
		c0.8393555-0.7641602,1.6479492-1.4438477,2.4248047-2.0395508
		C191.828125,30.1113281,192.5141602,29.5288086,193.109375,28.9584961z"/>
	<path class="st1" d="M222.0546875,27.5205078c0.6513672-0.2880859,1.15625-0.6796875,1.5131836-1.1748047
		c0.3569336-0.4946289,0.5356445-1.0805664,0.5356445-1.7573242c0-0.5761719-0.1162109-1.0805664-0.3476562-1.5126953
		c-0.2319336-0.4326172-0.5517578-0.7958984-0.9584961-1.090332c-0.4072266-0.2944336-0.8833008-0.5170898-1.4287109-0.6669922
		c-0.5449219-0.1503906-1.1245117-0.2255859-1.7382812-0.2255859c-0.7021484,0-1.4003906,0.144043-2.0957031,0.4321289
		c-0.6953125,0.2885742-1.3754883,0.7832031-2.0390625,1.4848633l1.6162109,1.4658203
		c0.3383789-0.3632812,0.7109375-0.6796875,1.1181641-0.9492188c0.4072266-0.269043,0.8989258-0.4038086,1.4755859-0.4038086
		c0.5639648,0,1.0302734,0.1474609,1.4003906,0.4414062c0.3691406,0.2949219,0.5541992,0.6860352,0.5541992,1.1748047
		c0,0.4013672-0.097168,0.7270508-0.2915039,0.9775391s-0.4575195,0.4448242-0.7890625,0.5825195
		c-0.3325195,0.1381836-0.7177734,0.2290039-1.15625,0.2724609c-0.4384766,0.0439453-0.9082031,0.065918-1.4091797,0.065918
		v2.0297852c0.4130859,0,0.8579102,0.0161133,1.3339844,0.046875c0.4760742,0.0317383,0.9179688,0.1220703,1.3251953,0.2724609
		s0.7485352,0.3793945,1.0244141,0.6860352c0.2753906,0.3071289,0.4135742,0.7363281,0.4135742,1.2875977
		c0,0.3261719-0.065918,0.6171875-0.1972656,0.8740234c-0.1318359,0.2568359-0.3071289,0.4731445-0.5263672,0.6484375
		c-0.2192383,0.1757812-0.4697266,0.3071289-0.7519531,0.3945312c-0.2817383,0.0878906-0.5732422,0.1318359-0.8740234,0.1318359
		c-0.6513672,0-1.2089844-0.144043-1.6728516-0.4326172c-0.4633789-0.2880859-0.8583984-0.7138672-1.184082-1.277832
		l-1.9545898,1.1088867c0.237793,0.4389648,0.5292969,0.8208008,0.8740234,1.1464844
		c0.3447266,0.3261719,0.7299805,0.5986328,1.1557617,0.8173828c0.4262695,0.2197266,0.8740234,0.3857422,1.3442383,0.4980469
		c0.4697266,0.112793,0.9423828,0.1694336,1.4189453,0.1694336c0.6015625,0,1.1899414-0.0786133,1.7666016-0.2348633
		c0.5761719-0.1567383,1.090332-0.4008789,1.5410156-0.7329102c0.4511719-0.3320312,0.8144531-0.7548828,1.090332-1.269043
		c0.2753906-0.5136719,0.4135742-1.1274414,0.4135742-1.8417969c0-0.8520508-0.2133789-1.5756836-0.6391602-2.1708984
		C223.4892578,28.1943359,222.8691406,27.7714844,222.0546875,27.5205078z"/>
	<path class="st1" d="M252.7578125,21.2807617h-2.6503906l-5.7885742,8.0629883v2.3867188h6.1083984v3.1201172h2.3305664v-3.1201172
		h1.9169922v-1.8793945h-1.9169922V21.2807617z M250.4272461,29.8510742h-4.2290039l4.1914062-6.0517578h0.0375977V29.8510742z"/>
	<path class="st1" d="M282.6611328,27.1069336c-0.3564453-0.4257812-0.7832031-0.7705078-1.2773438-1.0336914
		c-0.4951172-0.2631836-1.0498047-0.3945312-1.6640625-0.3945312c-0.3632812,0-0.6796875,0.0185547-0.9482422,0.0561523
		c-0.2705078,0.0375977-0.5048828,0.0942383-0.7050781,0.1694336c-0.2011719,0.0751953-0.3701172,0.159668-0.5078125,0.253418
		c-0.1376953,0.0942383-0.2626953,0.1972656-0.3759766,0.3100586l0.1884766-3.0820312h5.4882812v-2.1049805h-7.3300781
		l-0.5078125,7.2172852l1.9550781,0.3754883c0.1875-0.3378906,0.4570312-0.6166992,0.8076172-0.8359375
		s0.7646484-0.3291016,1.2402344-0.3291016c0.3505859,0,0.6708984,0.0629883,0.9589844,0.1879883
		c0.2880859,0.1254883,0.5322266,0.3007812,0.7333984,0.5263672c0.2001953,0.2255859,0.3535156,0.4882812,0.4599609,0.7890625
		s0.1601562,0.6269531,0.1601562,0.9775391c0,0.8520508-0.2041016,1.5380859-0.6113281,2.0581055
		s-1.0429688,0.7675781-1.9072266,0.7421875c-0.4638672-0.012207-0.9277344-0.1533203-1.3916016-0.4228516
		c-0.4628906-0.269043-0.8017578-0.6420898-1.0146484-1.1181641l-2.0292969,1.0522461
		c0.375,0.7646484,0.9326172,1.3789062,1.671875,1.8422852s1.6474609,0.6953125,2.7255859,0.6953125
		c0.8144531,0,1.5351562-0.112793,2.1611328-0.3383789c0.6269531-0.2255859,1.1494141-0.5478516,1.5703125-0.9677734
		c0.4189453-0.4199219,0.7353516-0.9306641,0.9482422-1.5317383c0.2128906-0.6015625,0.3203125-1.2719727,0.3203125-2.0112305
		c0-0.5512695-0.0976562-1.0961914-0.2919922-1.6352539C283.2939453,28.015625,283.0185547,27.5332031,282.6611328,27.1069336z"/>
	<path class="st1" d="M312.2558594,27.3891602c-0.3701172-0.3886719-0.8085938-0.6889648-1.3164062-0.9023438
		c-0.5068359-0.2128906-1.0615234-0.3193359-1.6630859-0.3193359c-0.6269531,0-1.1806641,0.0844727-1.6630859,0.253418
		c-0.4824219,0.1694336-0.9433594,0.4482422-1.3818359,0.8364258c0.0126953-0.5761719,0.109375-1.1152344,0.2919922-1.6162109
		c0.1806641-0.5009766,0.4228516-0.9399414,0.7236328-1.315918s0.6542969-0.6699219,1.0615234-0.8833008
		c0.4072266-0.2128906,0.8427734-0.3193359,1.3066406-0.3193359c0.4882812,0,0.9208984,0.09375,1.296875,0.2817383
		s0.7070312,0.4072266,0.9960938,0.6577148l1.0712891-1.9545898c-0.5263672-0.3256836-1.0527344-0.5761719-1.5791016-0.7514648
		c-0.5263672-0.1757812-1.1210938-0.2631836-1.7851562-0.2631836c-0.9277344,0-1.7519531,0.1850586-2.4716797,0.5541992
		c-0.7207031,0.3696289-1.328125,0.8930664-1.8232422,1.5693359c-0.4951172,0.6767578-0.8740234,1.4941406-1.1376953,2.4526367
		c-0.2626953,0.9589844-0.3945312,2.0273438-0.3945312,3.2045898c0,1.0405273,0.1191406,1.9453125,0.3574219,2.7163086
		c0.2382812,0.7705078,0.5732422,1.409668,1.0058594,1.9169922c0.4316406,0.5073242,0.9453125,0.8896484,1.5410156,1.1464844
		c0.5947266,0.2563477,1.25,0.3852539,1.9638672,0.3852539c0.6767578,0,1.3066406-0.1005859,1.8886719-0.3007812
		c0.5830078-0.2001953,1.0908203-0.4916992,1.5224609-0.8740234c0.4326172-0.3818359,0.7705078-0.8486328,1.015625-1.4003906
		c0.2441406-0.5507812,0.3662109-1.184082,0.3662109-1.8979492c0-0.6513672-0.1064453-1.246582-0.3193359-1.7856445
		C312.9160156,28.2412109,312.625,27.7773438,312.2558594,27.3891602z M310.4228516,32.3696289
		c-0.4013672,0.4262695-0.9267578,0.6391602-1.578125,0.6391602c-0.3261719,0-0.6455078-0.0625-0.9589844-0.1879883
		c-0.3134766-0.125-0.5917969-0.3198242-0.8359375-0.5825195c-0.2451172-0.2631836-0.4423828-0.6015625-0.5927734-1.0151367
		s-0.2255859-0.9082031-0.2255859-1.4848633c0.5390625-1.0273438,1.3535156-1.5410156,2.4433594-1.5410156
		c0.7646484,0,1.3466797,0.2226562,1.7480469,0.6669922c0.4013672,0.4448242,0.5947266,1.043457,0.5830078,1.7949219
		C311.0175781,31.3735352,310.8242188,31.9438477,310.4228516,32.3696289z"/>
	<polygon class="st1" points="333.4580078,23.3857422 339.9794922,23.3857422 334.4912109,34.8505859 337.1787109,34.8505859 
		342.7607422,22.6899414 342.7607422,21.2807617 333.4580078,21.2807617 	"/>
	<path class="st1" d="M369.9121094,27.6333008c0.3378906-0.175293,0.6416016-0.3632812,0.9111328-0.5639648
		c0.2695312-0.2001953,0.5009766-0.4257812,0.6953125-0.6767578c0.1943359-0.2504883,0.3447266-0.5322266,0.4511719-0.8457031
		c0.1064453-0.3129883,0.1601562-0.6699219,0.1601562-1.0712891c0-0.5136719-0.1074219-0.9799805-0.3203125-1.3999023
		s-0.5166016-0.7768555-0.9111328-1.0717773c-0.3945312-0.2939453-0.8710938-0.5195312-1.4287109-0.6762695
		s-1.1806641-0.2348633-1.8701172-0.2348633c-0.6884766,0-1.3125,0.078125-1.8701172,0.2348633
		s-1.0332031,0.3823242-1.4277344,0.6762695c-0.3955078,0.2949219-0.6992188,0.6518555-0.9121094,1.0717773
		s-0.3193359,0.8862305-0.3193359,1.3999023c0,0.4013672,0.0527344,0.7583008,0.1601562,1.0712891
		c0.1054688,0.3134766,0.2558594,0.5952148,0.4511719,0.8457031c0.1933594,0.2509766,0.4257812,0.4765625,0.6953125,0.6767578
		c0.2685547,0.2006836,0.5732422,0.3886719,0.9111328,0.5639648c-0.8271484,0.3637695-1.4882812,0.8393555-1.9824219,1.4282227
		c-0.4951172,0.5893555-0.7431641,1.3535156-0.7431641,2.2929688c0,0.5517578,0.1289062,1.0561523,0.3857422,1.5131836
		c0.2568359,0.4575195,0.6103516,0.8457031,1.0615234,1.1655273c0.4511719,0.3193359,0.9833984,0.5668945,1.5976562,0.7421875
		s1.2783203,0.2631836,1.9921875,0.2631836c0.7148438,0,1.3789062-0.0878906,1.9921875-0.2631836
		c0.6142578-0.175293,1.1464844-0.4228516,1.5976562-0.7421875c0.4511719-0.3198242,0.8056641-0.7080078,1.0625-1.1655273
		c0.2568359-0.4570312,0.3847656-0.9614258,0.3847656-1.5131836c0-0.9394531-0.2470703-1.7036133-0.7421875-2.2929688
		C371.3994141,28.4726562,370.7382812,27.9970703,369.9121094,27.6333008z M365.9833984,23.4042969
		c0.3134766-0.2880859,0.8457031-0.4321289,1.5976562-0.4321289c0.7763672,0,1.3222656,0.144043,1.6357422,0.4321289
		c0.3125,0.2885742,0.4697266,0.6577148,0.4697266,1.1088867c0,0.2509766-0.0751953,0.4980469-0.2255859,0.7426758
		C369.3105469,25.5,369.125,25.7192383,368.90625,25.9135742c-0.2197266,0.1943359-0.4482422,0.3540039-0.6865234,0.4790039
		c-0.2373047,0.1254883-0.4443359,0.1879883-0.6201172,0.1879883s-0.3818359-0.0498047-0.6201172-0.1503906
		c-0.2382812-0.1000977-0.4667969-0.2407227-0.6855469-0.4228516c-0.2197266-0.1811523-0.4042969-0.3974609-0.5546875-0.6484375
		c-0.1503906-0.2504883-0.2255859-0.5322266-0.2255859-0.8457031
		C365.5136719,24.0620117,365.6699219,23.6928711,365.9833984,23.4042969z M369.5449219,32.6235352
		c-0.4316406,0.3569336-1.0800781,0.5356445-1.9453125,0.5356445c-0.8642578,0-1.5126953-0.1787109-1.9453125-0.5356445
		c-0.4316406-0.3574219-0.6484375-0.8364258-0.6484375-1.4379883c0-0.3383789,0.0976562-0.6577148,0.2919922-0.9584961
		c0.1933594-0.3007812,0.4257812-0.5639648,0.6953125-0.7895508s0.5380859-0.4008789,0.8076172-0.5263672
		c0.2695312-0.125,0.4794922-0.1875,0.6298828-0.1875s0.3789062,0.0717773,0.6865234,0.2158203
		c0.3066406,0.144043,0.6132812,0.3320312,0.9208984,0.5639648c0.3066406,0.2319336,0.5761719,0.4951172,0.8076172,0.7895508
		c0.2324219,0.2944336,0.3476562,0.5917969,0.3476562,0.8925781
		C370.1933594,31.7871094,369.9775391,32.2661133,369.5449219,32.6235352z"/>
	<path class="st1" d="M393.2373047,28.7421875c0.3701172,0.3886719,0.8085938,0.6894531,1.3154297,0.9023438
		c0.5078125,0.2128906,1.0625,0.3193359,1.6640625,0.3193359c0.6259766,0,1.1806641-0.0844727,1.6630859-0.2539062
		c0.4824219-0.1689453,0.9423828-0.4477539,1.3818359-0.8364258c-0.0126953,0.5766602-0.1103516,1.1157227-0.2919922,1.6166992
		s-0.4228516,0.9394531-0.7236328,1.3154297s-0.6542969,0.6704102-1.0615234,0.8833008
		c-0.4072266,0.2133789-0.8427734,0.3198242-1.3066406,0.3198242c-0.4882812,0-0.9208984-0.0942383-1.296875-0.2822266
		s-0.7080078-0.4067383-0.9960938-0.6577148l-1.0712891,1.9545898c0.5263672,0.3261719,1.0527344,0.5766602,1.5791016,0.7519531
		s1.1210938,0.2631836,1.7851562,0.2631836c0.9150391,0,1.7353516-0.1816406,2.4628906-0.5449219
		c0.7265625-0.3632812,1.3369141-0.8833008,1.8320312-1.5600586s0.8740234-1.4941406,1.1367188-2.4526367
		c0.2636719-0.9589844,0.3955078-2.0332031,0.3955078-3.2236328c0-1.0273438-0.1191406-1.9291992-0.3574219-2.706543
		c-0.2382812-0.7768555-0.5732422-1.4189453-1.0058594-1.9262695c-0.4316406-0.5078125-0.9462891-0.8896484-1.5410156-1.1464844
		s-1.25-0.3852539-1.9638672-0.3852539c-0.6767578,0-1.3066406,0.1000977-1.8886719,0.300293
		c-0.5830078,0.2006836-1.0908203,0.4921875-1.5224609,0.8740234c-0.4326172,0.3823242-0.7705078,0.8491211-1.015625,1.4003906
		c-0.2441406,0.5517578-0.3662109,1.184082-0.3662109,1.8984375c0,0.6513672,0.1064453,1.2470703,0.3193359,1.7856445
		S392.8681641,28.3540039,393.2373047,28.7421875z M395.0703125,23.7617188
		c0.4003906-0.4262695,0.9267578-0.6391602,1.578125-0.6391602c0.3261719,0,0.6455078,0.0625,0.9589844,0.1879883
		s0.5917969,0.3193359,0.8359375,0.5825195c0.2451172,0.2631836,0.4423828,0.6015625,0.5927734,1.0151367
		c0.1503906,0.4130859,0.2255859,0.9082031,0.2255859,1.484375c-0.5390625,1.027832-1.3535156,1.5415039-2.4433594,1.5415039
		c-0.7646484,0-1.3476562-0.222168-1.7480469-0.6674805c-0.4013672-0.4443359-0.5957031-1.0429688-0.5830078-1.7949219
		C394.4746094,24.7578125,394.6689453,24.1875,395.0703125,23.7617188z"/>
	<path d="M104.4931641,79.7578125h-1.8984375c-0.3129883,0.300293-0.7265625,0.5258789-1.2402344,0.6762695
		c-0.5141602,0.1503906-1.0839844,0.2382812-1.7104492,0.2631836v1.5791016h2.4057617v9.3598633h-2.1049805v1.8793945h6.6347656
		v-1.8793945h-2.0864258V79.7578125z"/>
	<path d="M105.4423828,117.6235352c0.5947266-0.5703125,1.0678711-1.1655273,1.4189453-1.7856445
		c0.3505859-0.6201172,0.5263672-1.34375,0.5263672-2.1708984c0-0.6391602-0.1191406-1.199707-0.3574219-1.6821289
		c-0.237793-0.4824219-0.5576172-0.8896484-0.9584961-1.2216797s-0.8676758-0.5825195-1.3999023-0.7519531
		c-0.5327148-0.1689453-1.0996094-0.253418-1.7011719-0.253418s-1.171875,0.09375-1.7104492,0.2817383
		s-1.0146484,0.4482422-1.4282227,0.7797852c-0.4135742,0.3325195-0.7519531,0.7236328-1.0151367,1.1748047
		s-0.4321289,0.9399414-0.5073242,1.4663086l2.1801758,0.4697266c0.1503906-0.6264648,0.4257812-1.1401367,0.8271484-1.5410156
		c0.4008789-0.4008789,0.9394531-0.6015625,1.6162109-0.6015625c0.6264648,0,1.1181641,0.1630859,1.4755859,0.4887695
		c0.3569336,0.3256836,0.5356445,0.7890625,0.5356445,1.390625c0,0.4135742-0.1567383,0.8398438-0.4697266,1.277832
		c-0.3134766,0.4389648-0.7050781,0.8808594-1.1748047,1.3251953c-0.4702148,0.4448242-0.9838867,0.8901367-1.5415039,1.3344727
		c-0.5576172,0.4448242-1.0839844,0.8803711-1.5786133,1.3061523c-0.4951172,0.4262695-0.9243164,0.8398438-1.2875977,1.2407227
		s-0.5761719,0.7768555-0.6386719,1.1274414v2.2368164h9.1342773v-2.1049805h-6.4282227
		c0.8393555-0.7641602,1.6479492-1.4438477,2.4248047-2.0395508
		C104.1611328,118.7763672,104.847168,118.1938477,105.4423828,117.6235352z"/>
	<path d="M104.8876953,145.9672852c0.6513672-0.2880859,1.15625-0.6796875,1.5131836-1.1748047
		c0.3569336-0.4946289,0.5356445-1.0805664,0.5356445-1.7573242c0-0.5761719-0.1162109-1.0805664-0.3476562-1.5126953
		c-0.2319336-0.4326172-0.5517578-0.7958984-0.9584961-1.090332c-0.4072266-0.2944336-0.8833008-0.5170898-1.4287109-0.6669922
		c-0.5449219-0.1503906-1.1245117-0.2255859-1.7382812-0.2255859c-0.7021484,0-1.4003906,0.144043-2.0957031,0.4321289
		c-0.6953125,0.2885742-1.3754883,0.7832031-2.0390625,1.4848633l1.6162109,1.4658203
		c0.3383789-0.3632812,0.7109375-0.6796875,1.1181641-0.9492188c0.4072266-0.269043,0.8989258-0.4038086,1.4755859-0.4038086
		c0.5639648,0,1.0302734,0.1474609,1.4003906,0.4414062c0.3691406,0.2949219,0.5541992,0.6860352,0.5541992,1.1748047
		c0,0.4013672-0.097168,0.7270508-0.2915039,0.9775391s-0.4575195,0.4448242-0.7890625,0.5825195
		c-0.3325195,0.1381836-0.7177734,0.2290039-1.15625,0.2724609c-0.4384766,0.0439453-0.9082031,0.065918-1.4091797,0.065918
		v2.0297852c0.4130859,0,0.8579102,0.0161133,1.3339844,0.046875c0.4760742,0.0317383,0.9179688,0.1220703,1.3251953,0.2724609
		s0.7485352,0.3793945,1.0244141,0.6860352c0.2753906,0.3071289,0.4135742,0.7363281,0.4135742,1.2875977
		c0,0.3261719-0.065918,0.6171875-0.1972656,0.8740234c-0.1318359,0.2568359-0.3071289,0.4731445-0.5263672,0.6484375
		c-0.2192383,0.1757812-0.4697266,0.3071289-0.7519531,0.3945312c-0.2817383,0.0878906-0.5732422,0.1318359-0.8740234,0.1318359
		c-0.6513672,0-1.2089844-0.144043-1.6728516-0.4326172c-0.4633789-0.2880859-0.8583984-0.7138672-1.184082-1.277832
		l-1.9545898,1.1088867c0.237793,0.4389648,0.5292969,0.8208008,0.8740234,1.1464844
		c0.3447266,0.3261719,0.7299805,0.5986328,1.1557617,0.8173828c0.4262695,0.2197266,0.8740234,0.3857422,1.3442383,0.4980469
		c0.4697266,0.112793,0.9423828,0.1694336,1.4189453,0.1694336c0.6015625,0,1.1899414-0.0786133,1.7666016-0.2348633
		c0.5761719-0.1567383,1.090332-0.4008789,1.5410156-0.7329102c0.4511719-0.3320312,0.8144531-0.7548828,1.090332-1.269043
		c0.2753906-0.5136719,0.4135742-1.1274414,0.4135742-1.8417969c0-0.8520508-0.2133789-1.5756836-0.6391602-2.1708984
		C106.3222656,146.6411133,105.7021484,146.2182617,104.8876953,145.9672852z"/>
	<path d="M106.0908203,168.0600586h-2.6503906l-5.7885742,8.0629883v2.3867188h6.1083984v3.1201172h2.3305664v-3.1201172h1.9169922
		v-1.8798828h-1.9169922V168.0600586z M103.7602539,176.6298828H99.53125l4.1914062-6.0512695h0.0375977V176.6298828z"/>
	<path d="M106.4946289,203.8857422c-0.3569336-0.4257812-0.7832031-0.7705078-1.277832-1.0332031
		c-0.4951172-0.2636719-1.0498047-0.3945312-1.6635742-0.3945312c-0.3632812,0-0.6796875,0.0185547-0.9487305,0.0556641
		c-0.2700195,0.0380859-0.5048828,0.0947266-0.7050781,0.1699219c-0.2006836,0.0751953-0.3696289,0.1591797-0.5073242,0.2529297
		c-0.1381836,0.0947266-0.2631836,0.1972656-0.3759766,0.3105469l0.1879883-3.0820312h5.4882812v-2.1054688h-7.3300781
		l-0.5078125,7.2177734l1.9550781,0.375c0.1875-0.3378906,0.4570312-0.6162109,0.8081055-0.8359375
		c0.3505859-0.21875,0.7641602-0.3291016,1.2402344-0.3291016c0.3505859,0,0.6704102,0.0634766,0.9584961,0.1884766
		s0.5327148,0.3007812,0.7333984,0.5263672c0.2001953,0.2255859,0.3535156,0.4882812,0.4604492,0.7890625
		c0.105957,0.3007812,0.159668,0.6269531,0.159668,0.9775391c0,0.8515625-0.2041016,1.5380859-0.6108398,2.0576172
		c-0.4072266,0.5205078-1.043457,0.7675781-1.9077148,0.7421875c-0.4638672-0.0117188-0.9277344-0.1533203-1.3911133-0.4228516
		c-0.4633789-0.2685547-0.8017578-0.6416016-1.0146484-1.1181641l-2.0297852,1.0527344
		c0.3754883,0.7646484,0.9331055,1.3789062,1.6723633,1.8417969c0.7392578,0.4638672,1.6474609,0.6953125,2.7255859,0.6953125
		c0.8144531,0,1.534668-0.1123047,2.1611328-0.3378906s1.1494141-0.5478516,1.5698242-0.9677734
		c0.4194336-0.4199219,0.7358398-0.9306641,0.9487305-1.5322266s0.3198242-1.2714844,0.3198242-2.0107422
		c0-0.5517578-0.097168-1.0966797-0.2915039-1.6357422C107.1274414,204.7949219,106.8520508,204.3125,106.4946289,203.8857422z"/>
	<path d="M106.5888672,233.9501953c-0.3696289-0.3886719-0.8081055-0.6894531-1.315918-0.9023438
		c-0.5073242-0.2128906-1.0615234-0.3193359-1.6630859-0.3193359c-0.6269531,0-1.1811523,0.0839844-1.6635742,0.2529297
		c-0.4824219,0.1699219-0.9428711,0.4482422-1.3813477,0.8369141c0.012207-0.5761719,0.109375-1.1152344,0.2915039-1.6162109
		c0.1811523-0.5009766,0.4228516-0.9404297,0.7236328-1.3164062s0.6542969-0.6699219,1.0620117-0.8828125
		c0.4067383-0.2128906,0.8422852-0.3193359,1.3061523-0.3193359c0.4887695,0,0.9208984,0.09375,1.296875,0.28125
		c0.3759766,0.1884766,0.7075195,0.4072266,0.9960938,0.6582031l1.0712891-1.9550781
		c-0.5263672-0.3251953-1.0527344-0.5761719-1.5786133-0.7509766c-0.5263672-0.1757812-1.121582-0.2636719-1.7856445-0.2636719
		c-0.9277344,0-1.7514648,0.1855469-2.4716797,0.5546875c-0.7207031,0.3691406-1.328125,0.8925781-1.8232422,1.5693359
		s-0.8740234,1.4941406-1.137207,2.4521484c-0.2626953,0.9589844-0.3945312,2.0273438-0.3945312,3.2050781
		c0,1.0400391,0.1191406,1.9453125,0.3569336,2.7158203c0.2382812,0.7705078,0.5732422,1.4101562,1.0058594,1.9169922
		c0.4321289,0.5078125,0.9458008,0.8896484,1.5410156,1.1464844s1.25,0.3857422,1.9643555,0.3857422
		c0.6762695,0,1.3061523-0.1005859,1.8886719-0.3007812s1.090332-0.4921875,1.5224609-0.8740234
		s0.7705078-0.8486328,1.0151367-1.4003906c0.2441406-0.5507812,0.3662109-1.1845703,0.3662109-1.8984375
		c0-0.6513672-0.1064453-1.2460938-0.3193359-1.7851562C107.2495117,234.8017578,106.9584961,234.3378906,106.5888672,233.9501953z
		 M104.7563477,238.9306641c-0.4013672,0.4257812-0.9272461,0.6386719-1.5786133,0.6386719
		c-0.3261719,0-0.6455078-0.0625-0.9589844-0.1875c-0.3129883-0.125-0.5917969-0.3203125-0.8359375-0.5830078
		c-0.2446289-0.2626953-0.4418945-0.6015625-0.5922852-1.0146484c-0.1503906-0.4140625-0.2255859-0.9082031-0.2255859-1.4853516
		c0.5385742-1.0273438,1.3535156-1.5410156,2.4433594-1.5410156c0.7641602,0,1.3466797,0.2226562,1.7480469,0.6669922
		c0.4008789,0.4453125,0.5947266,1.0439453,0.5825195,1.7949219
		C105.3510742,237.9345703,105.1572266,238.5048828,104.7563477,238.9306641z"/>
	<polygon points="98.2910156,258.2792969 104.8125,258.2792969 99.324707,269.7441406 102.012207,269.7441406 
		107.5942383,257.5839844 107.5942383,256.1738281 98.2910156,256.1738281 	"/>
	<path d="M105.2451172,292.5273438c0.3383789-0.1757812,0.6416016-0.3632812,0.9116211-0.5644531
		c0.269043-0.2001953,0.5009766-0.4257812,0.6953125-0.6767578c0.1938477-0.2509766,0.3442383-0.5322266,0.4511719-0.8457031
		c0.105957-0.3134766,0.159668-0.6699219,0.159668-1.0712891c0-0.5136719-0.1069336-0.9804688-0.3198242-1.4003906
		s-0.5166016-0.7763672-0.9111328-1.0712891c-0.3950195-0.2939453-0.8710938-0.5195312-1.4287109-0.6767578
		c-0.5576172-0.15625-1.1811523-0.234375-1.8701172-0.234375s-1.3125,0.078125-1.8701172,0.234375
		c-0.5576172,0.1572266-1.0336914,0.3828125-1.4282227,0.6767578c-0.3950195,0.2949219-0.6987305,0.6513672-0.9116211,1.0712891
		c-0.2133789,0.4199219-0.3193359,0.8867188-0.3193359,1.4003906c0,0.4013672,0.0527344,0.7578125,0.159668,1.0712891
		c0.105957,0.3134766,0.2563477,0.5947266,0.4511719,0.8457031c0.1938477,0.2509766,0.4257812,0.4765625,0.6953125,0.6767578
		c0.269043,0.2011719,0.5732422,0.3886719,0.9116211,0.5644531c-0.8271484,0.3632812-1.4882812,0.8388672-1.9829102,1.4277344
		c-0.4951172,0.5898438-0.7426758,1.3535156-0.7426758,2.2929688c0,0.5517578,0.128418,1.0566406,0.3852539,1.5136719
		s0.6108398,0.8457031,1.0620117,1.1650391s0.9833984,0.5673828,1.5976562,0.7421875
		c0.6137695,0.1748047,1.277832,0.2626953,1.9921875,0.2626953s1.378418-0.0878906,1.9921875-0.2626953
		s1.1464844-0.4228516,1.5976562-0.7421875s0.8051758-0.7080078,1.0620117-1.1650391s0.3852539-0.9619141,0.3852539-1.5136719
		c0-0.9394531-0.2475586-1.703125-0.7421875-2.2929688C106.7329102,293.3662109,106.0717773,292.890625,105.2451172,292.5273438z
		 M101.3168945,288.2978516c0.3129883-0.2880859,0.8457031-0.4326172,1.5976562-0.4326172
		c0.7763672,0,1.3217773,0.1445312,1.6352539,0.4326172c0.3129883,0.2880859,0.4697266,0.6572266,0.4697266,1.1083984
		c0,0.2519531-0.0751953,0.4980469-0.2255859,0.7431641c-0.1503906,0.2441406-0.3354492,0.4638672-0.5546875,0.6572266
		c-0.2192383,0.1953125-0.4477539,0.3544922-0.6860352,0.4794922c-0.237793,0.1259766-0.4448242,0.1884766-0.6201172,0.1884766
		c-0.1757812,0-0.3823242-0.0507812-0.6201172-0.1503906c-0.2382812-0.1005859-0.4667969-0.2412109-0.6860352-0.4238281
		c-0.2192383-0.1806641-0.4042969-0.3964844-0.5546875-0.6484375c-0.1503906-0.25-0.2250977-0.53125-0.2250977-0.8457031
		C100.847168,288.9550781,101.003418,288.5859375,101.3168945,288.2978516z M104.878418,297.5175781
		c-0.4321289,0.3564453-1.0805664,0.5351562-1.9453125,0.5351562c-0.8642578,0-1.5126953-0.1787109-1.9453125-0.5351562
		c-0.4321289-0.3574219-0.6484375-0.8369141-0.6484375-1.4384766c0-0.3388672,0.097168-0.6572266,0.2915039-0.9580078
		c0.1938477-0.3007812,0.4257812-0.5644531,0.6953125-0.7900391s0.5385742-0.4013672,0.8081055-0.5263672
		s0.4794922-0.1875,0.6298828-0.1875s0.3789062,0.0722656,0.6860352,0.2158203
		c0.3066406,0.1435547,0.6137695,0.3320312,0.9208984,0.5634766c0.3066406,0.2324219,0.5761719,0.4960938,0.8081055,0.7900391
		s0.3476562,0.5917969,0.3476562,0.8925781C105.5268555,296.6806641,105.3105469,297.1601562,104.878418,297.5175781z"/>
	<path d="M99.0708008,322.96875c0.3696289,0.3886719,0.8081055,0.6894531,1.3154297,0.9023438
		c0.5078125,0.2128906,1.0620117,0.3193359,1.6635742,0.3193359c0.6264648,0,1.1806641-0.0839844,1.6635742-0.2539062
		c0.4819336-0.1689453,0.9423828-0.4472656,1.3813477-0.8359375c-0.0126953,0.5761719-0.1098633,1.1152344-0.2915039,1.6162109
		s-0.4228516,0.9394531-0.7236328,1.3154297s-0.6547852,0.6708984-1.0620117,0.8837891s-0.8427734,0.3193359-1.3061523,0.3193359
		c-0.4887695,0-0.9208984-0.09375-1.296875-0.2822266c-0.3759766-0.1875-0.7080078-0.40625-0.9960938-0.6572266L98.347168,328.25
		c0.5263672,0.3261719,1.0527344,0.5771484,1.5786133,0.7519531c0.5263672,0.1757812,1.121582,0.2636719,1.7856445,0.2636719
		c0.9145508,0,1.7353516-0.1816406,2.4624023-0.5449219c0.7265625-0.3632812,1.3374023-0.8837891,1.8325195-1.5605469
		c0.4946289-0.6767578,0.8740234-1.4941406,1.1367188-2.4521484c0.2631836-0.9589844,0.3950195-2.0332031,0.3950195-3.2236328
		c0-1.0273438-0.1191406-1.9296875-0.3574219-2.7070312c-0.237793-0.7763672-0.5732422-1.4189453-1.0053711-1.9257812
		c-0.4321289-0.5078125-0.9462891-0.8896484-1.5410156-1.1464844c-0.5952148-0.2568359-1.25-0.3857422-1.9643555-0.3857422
		c-0.6762695,0-1.3061523,0.1005859-1.8886719,0.3007812s-1.090332,0.4921875-1.5224609,0.8740234
		s-0.7705078,0.8486328-1.0151367,1.4003906c-0.2441406,0.5517578-0.3662109,1.1835938-0.3662109,1.8984375
		c0,0.6513672,0.105957,1.2470703,0.3193359,1.7851562C98.409668,322.1171875,98.7011719,322.5810547,99.0708008,322.96875z
		 M100.9033203,317.9882812c0.4008789-0.4257812,0.9272461-0.6386719,1.5786133-0.6386719
		c0.3256836,0,0.6455078,0.0625,0.9584961,0.1875c0.3134766,0.1259766,0.5922852,0.3193359,0.8364258,0.5830078
		c0.2446289,0.2626953,0.4418945,0.6015625,0.5922852,1.0146484s0.2255859,0.9082031,0.2255859,1.484375
		c-0.5390625,1.0283203-1.3535156,1.5419922-2.4433594,1.5419922c-0.7646484,0-1.347168-0.2226562-1.7480469-0.6679688
		c-0.4013672-0.4443359-0.5952148-1.0429688-0.5825195-1.7949219
		C100.3081055,318.984375,100.5019531,318.4140625,100.9033203,317.9882812z"/>
	<polygon points="449.5048828,87.9985352 449.5048828,77.890625 446.7607422,77.890625 444.8007812,84.9467773 
		444.7724609,84.9467773 442.8261719,77.890625 440.1103516,77.890625 440.1103516,87.9985352 441.7910156,87.9985352 
		441.7910156,80.0463867 441.8183594,80.0463867 444.0585938,87.9985352 445.5283203,87.9985352 447.796875,80.0463867 
		447.8242188,80.0463867 447.8242188,87.9985352 	"/>
	<path d="M451.9130859,84.2817383c-0.6816406,0.4526367-1.0224609,1.0942383-1.0224609,1.9248047
		c0,0.2519531,0.0419922,0.4921875,0.1259766,0.7211914c0.0839844,0.2285156,0.2080078,0.4335938,0.3710938,0.6157227
		s0.3681641,0.3266602,0.6162109,0.434082c0.2470703,0.1074219,0.5341797,0.1611328,0.8603516,0.1611328
		c0.4580078,0,0.8613281-0.0678711,1.2109375-0.203125c0.3505859-0.1352539,0.703125-0.3242188,1.0576172-0.5668945
		l0.1123047,0.6298828h1.6933594c-0.0556641-0.1586914-0.0927734-0.3266602-0.1113281-0.5039062
		c-0.0195312-0.1772461-0.0283203-0.359375-0.0283203-0.5458984v-3.4301758c0-0.5410156-0.0537109-0.9985352-0.1611328-1.3720703
		c-0.1074219-0.3730469-0.2753906-0.6743164-0.5039062-0.902832s-0.5205078-0.3945312-0.875-0.4970703
		s-0.7753906-0.1586914-1.2597656-0.1679688c-0.2714844-0.0092773-0.5419922,0.0185547-0.8125,0.0839844
		s-0.5292969,0.1586914-0.7763672,0.2797852c-0.2480469,0.121582-0.4697266,0.2641602-0.6650391,0.4272461
		c-0.1962891,0.1630859-0.3505859,0.3427734-0.4628906,0.5390625l1.1201172,0.8540039
		c0.1679688-0.2333984,0.3730469-0.440918,0.6162109-0.6230469s0.5693359-0.2729492,0.9804688-0.2729492
		c0.3076172,0,0.5615234,0.074707,0.7626953,0.2236328c0.2001953,0.1494141,0.3007812,0.3642578,0.3007812,0.644043v0.6162109
		C453.6435547,83.5185547,452.59375,83.8291016,451.9130859,84.2817383z M455.0625,86.0805664
		c-0.0927734,0.074707-0.203125,0.1586914-0.3291016,0.2519531s-0.2587891,0.1772461-0.3984375,0.2519531
		c-0.140625,0.074707-0.2851562,0.1376953-0.4345703,0.1889648s-0.2939453,0.0771484-0.4335938,0.0771484
		c-0.2431641,0-0.4433594-0.074707-0.6025391-0.2241211c-0.1582031-0.1489258-0.2373047-0.3588867-0.2373047-0.6298828
		c0-0.2519531,0.0722656-0.4619141,0.2167969-0.6298828s0.3339844-0.3056641,0.5673828-0.4130859
		c0.2324219-0.1074219,0.4941406-0.1938477,0.7832031-0.2592773c0.2890625-0.0649414,0.5791016-0.1259766,0.8681641-0.1816406
		V86.0805664z"/>
	<path d="M462.7626953,81.390625c-0.0839844-0.1123047-0.1962891-0.2192383-0.3359375-0.3222656
		c-0.1396484-0.1025391-0.2919922-0.1889648-0.4550781-0.2587891s-0.3291016-0.1259766-0.4970703-0.1679688
		s-0.3271484-0.0629883-0.4755859-0.0629883c-0.4667969,0-0.8828125,0.1025391-1.2460938,0.3081055
		c-0.3642578,0.2050781-0.6699219,0.4755859-0.9169922,0.8120117c-0.2480469,0.3359375-0.4345703,0.71875-0.5605469,1.1479492
		s-0.1884766,0.8676758-0.1884766,1.315918c0,0.5693359,0.0605469,1.0966797,0.1816406,1.5820312
		s0.3037109,0.9052734,0.5458984,1.2597656c0.2431641,0.3549805,0.5458984,0.6323242,0.9101562,0.8330078
		s0.7890625,0.3012695,1.2744141,0.3012695c0.3916016,0,0.7412109-0.0795898,1.0498047-0.2382812
		c0.3076172-0.1586914,0.6162109-0.387207,0.9238281-0.6860352l0.0839844,0.7841797h1.4697266V77.890625h-1.7353516v3.5H462.7626953
		z M462.7910156,86.0947266c-0.09375,0.074707-0.1796875,0.1494141-0.2597656,0.2236328
		c-0.0791016,0.0751953-0.1679688,0.1425781-0.265625,0.203125c-0.0976562,0.0610352-0.2119141,0.1118164-0.3427734,0.1538086
		c-0.1308594,0.0424805-0.2900391,0.0634766-0.4765625,0.0634766c-0.5224609,0-0.9238281-0.203125-1.2041016-0.609375
		c-0.2792969-0.4057617-0.4199219-0.9960938-0.4199219-1.7709961c0-0.7744141,0.140625-1.3647461,0.4199219-1.7709961
		c0.2802734-0.4057617,0.6816406-0.6088867,1.2041016-0.6088867c0.2802734,0,0.5302734,0.0629883,0.7490234,0.1889648
		c0.2197266,0.1259766,0.4179688,0.2685547,0.5957031,0.4272461V86.0947266z"/>
	<path d="M470.1894531,80.8515625c-0.3681641-0.1821289-0.7910156-0.2729492-1.2666016-0.2729492
		c-0.4951172,0-0.9384766,0.0888672-1.3300781,0.2661133s-0.7236328,0.4291992-0.9941406,0.7558594
		s-0.4785156,0.7231445-0.6230469,1.1899414s-0.2167969,0.9892578-0.2167969,1.5678711
		c0,0.5791016,0.0722656,1.1015625,0.2167969,1.5683594s0.3505859,0.8632812,0.6162109,1.1899414
		s0.5878906,0.5786133,0.9658203,0.7558594s0.8056641,0.2661133,1.28125,0.2661133
		c0.7001953,0,1.2998047-0.1171875,1.7988281-0.3500977c0.4990234-0.2333984,0.9169922-0.6113281,1.2529297-1.1342773
		l-1.2597656-0.7836914c-0.2148438,0.2519531-0.4384766,0.4599609-0.671875,0.6230469s-0.5507812,0.2451172-0.9521484,0.2451172
		c-0.4111328,0-0.7607422-0.1611328-1.0498047-0.4833984c-0.2900391-0.3217773-0.4433594-0.8608398-0.4619141-1.6166992h4.3955078
		v-0.7143555c0-0.4384766-0.0654297-0.8608398-0.1953125-1.2666016c-0.1308594-0.40625-0.3222656-0.7631836-0.5742188-1.0712891
		S470.5585938,81.0336914,470.1894531,80.8515625z M467.4951172,83.4624023
		c0.0185547-0.5039062,0.1513672-0.8959961,0.3984375-1.1757812c0.2470703-0.2802734,0.5810547-0.4199219,1.0009766-0.4199219
		s0.7539062,0.1396484,1.0009766,0.4199219c0.2470703,0.2797852,0.3808594,0.671875,0.3994141,1.1757812H467.4951172z"/>
	<polygon points="440.1386719,144.4467773 440.1103516,144.4467773 438.1640625,137.390625 435.4482422,137.390625 
		435.4482422,147.4985352 437.1289062,147.4985352 437.1289062,139.5463867 437.15625,139.5463867 439.3964844,147.4985352 
		440.8662109,147.4985352 443.1347656,139.5463867 443.1621094,139.5463867 443.1621094,147.4985352 444.8427734,147.4985352 
		444.8427734,137.390625 442.0986328,137.390625 	"/>
	<rect x="447.0546875" y="140.21875" width="1.7363281" height="7.2797852"/>
	<rect x="447.0546875" y="137.2504883" width="1.7363281" height="1.6240234"/>
	<path d="M454.6630859,143.6694336c-0.265625-0.1821289-0.5576172-0.3266602-0.875-0.434082
		c-0.3173828-0.1069336-0.609375-0.2119141-0.875-0.3149414c-0.265625-0.1025391-0.4902344-0.2167969-0.671875-0.3427734
		s-0.2734375-0.2915039-0.2734375-0.4970703c0-0.2148438,0.0791016-0.387207,0.2382812-0.5180664
		c0.1591797-0.1303711,0.40625-0.1958008,0.7421875-0.1958008c0.2705078,0,0.5205078,0.081543,0.7490234,0.2446289
		c0.2285156,0.1635742,0.4316406,0.3383789,0.609375,0.5253906l1.0917969-0.9521484
		c-0.3173828-0.3730469-0.703125-0.6508789-1.1552734-0.8330078c-0.453125-0.1821289-0.921875-0.2729492-1.4072266-0.2729492
		c-0.3173828,0-0.6201172,0.046875-0.9101562,0.1401367c-0.2890625,0.0932617-0.5458984,0.2285156-0.7695312,0.4057617
		s-0.4013672,0.3989258-0.5322266,0.6650391s-0.1962891,0.5668945-0.1962891,0.902832
		c0,0.4199219,0.0917969,0.765625,0.2734375,1.0361328c0.1816406,0.2709961,0.40625,0.4946289,0.671875,0.671875
		c0.2666016,0.1777344,0.5576172,0.324707,0.875,0.440918c0.3173828,0.1171875,0.609375,0.2265625,0.875,0.3291016
		c0.2666016,0.1030273,0.4902344,0.2197266,0.671875,0.3500977c0.1826172,0.1308594,0.2734375,0.2988281,0.2734375,0.5039062
		c0,0.2431641-0.0957031,0.440918-0.2871094,0.5952148c-0.1914062,0.1538086-0.4414062,0.230957-0.7490234,0.230957
		c-0.3730469,0-0.6982422-0.1049805-0.9726562-0.3149414c-0.2753906-0.2099609-0.5166016-0.4550781-0.7216797-0.7353516
		l-1.1621094,0.8681641c0.3271484,0.4760742,0.7216797,0.8398438,1.1835938,1.0922852
		c0.4619141,0.2519531,0.9863281,0.3779297,1.5751953,0.3779297c0.3818359,0,0.7363281-0.0419922,1.0634766-0.1259766
		s0.609375-0.2172852,0.8466797-0.3989258c0.2382812-0.1821289,0.4248047-0.4082031,0.5605469-0.6791992
		c0.1347656-0.2705078,0.203125-0.597168,0.203125-0.9799805c0-0.4384766-0.0908203-0.800293-0.2734375-1.0849609
		C455.1533203,144.0849609,454.9287109,143.8515625,454.6630859,143.6694336z"/>
	<path d="M460.8789062,143.6694336c-0.265625-0.1821289-0.5576172-0.3266602-0.875-0.434082
		c-0.3173828-0.1069336-0.609375-0.2119141-0.875-0.3149414c-0.265625-0.1025391-0.4902344-0.2167969-0.671875-0.3427734
		s-0.2734375-0.2915039-0.2734375-0.4970703c0-0.2148438,0.0791016-0.387207,0.2382812-0.5180664
		c0.1591797-0.1303711,0.40625-0.1958008,0.7421875-0.1958008c0.2705078,0,0.5205078,0.081543,0.7490234,0.2446289
		c0.2285156,0.1635742,0.4316406,0.3383789,0.609375,0.5253906l1.0917969-0.9521484
		c-0.3173828-0.3730469-0.703125-0.6508789-1.1552734-0.8330078c-0.453125-0.1821289-0.921875-0.2729492-1.4072266-0.2729492
		c-0.3173828,0-0.6201172,0.046875-0.9101562,0.1401367c-0.2890625,0.0932617-0.5458984,0.2285156-0.7695312,0.4057617
		s-0.4013672,0.3989258-0.5322266,0.6650391s-0.1962891,0.5668945-0.1962891,0.902832
		c0,0.4199219,0.0917969,0.765625,0.2734375,1.0361328c0.1816406,0.2709961,0.40625,0.4946289,0.671875,0.671875
		c0.2666016,0.1777344,0.5576172,0.324707,0.875,0.440918c0.3173828,0.1171875,0.609375,0.2265625,0.875,0.3291016
		c0.2666016,0.1030273,0.4902344,0.2197266,0.671875,0.3500977c0.1826172,0.1308594,0.2734375,0.2988281,0.2734375,0.5039062
		c0,0.2431641-0.0957031,0.440918-0.2871094,0.5952148c-0.1914062,0.1538086-0.4414062,0.230957-0.7490234,0.230957
		c-0.3730469,0-0.6982422-0.1049805-0.9726562-0.3149414c-0.2753906-0.2099609-0.5166016-0.4550781-0.7216797-0.7353516
		l-1.1621094,0.8681641c0.3271484,0.4760742,0.7216797,0.8398438,1.1835938,1.0922852
		c0.4619141,0.2519531,0.9863281,0.3779297,1.5751953,0.3779297c0.3818359,0,0.7363281-0.0419922,1.0634766-0.1259766
		s0.609375-0.2172852,0.8466797-0.3989258c0.2382812-0.1821289,0.4248047-0.4082031,0.5605469-0.6791992
		c0.1347656-0.2705078,0.203125-0.597168,0.203125-0.9799805c0-0.4384766-0.0908203-0.800293-0.2734375-1.0849609
		C461.3691406,144.0849609,461.1445312,143.8515625,460.8789062,143.6694336z"/>
	<path d="M467.9980469,141.0864258c-0.2519531-0.3081055-0.5625-0.5527344-0.9316406-0.7348633
		c-0.3681641-0.1821289-0.7910156-0.2729492-1.2666016-0.2729492c-0.4951172,0-0.9384766,0.0888672-1.3300781,0.2661133
		s-0.7236328,0.4291992-0.9941406,0.7558594s-0.4785156,0.7231445-0.6230469,1.1899414s-0.2167969,0.9892578-0.2167969,1.5678711
		c0,0.5791016,0.0722656,1.1015625,0.2167969,1.5683594s0.3505859,0.8632812,0.6162109,1.1899414
		s0.5878906,0.5786133,0.9658203,0.7558594s0.8056641,0.2661133,1.28125,0.2661133
		c0.7001953,0,1.2998047-0.1171875,1.7988281-0.3500977c0.4990234-0.2333984,0.9169922-0.6113281,1.2529297-1.1342773
		l-1.2597656-0.7836914c-0.2148438,0.2519531-0.4384766,0.4599609-0.671875,0.6230469s-0.5507812,0.2451172-0.9521484,0.2451172
		c-0.4111328,0-0.7607422-0.1611328-1.0498047-0.4833984c-0.2900391-0.3217773-0.4433594-0.8608398-0.4619141-1.6166992h4.3955078
		v-0.7143555c0-0.4384766-0.0654297-0.8608398-0.1953125-1.2666016
		C468.4414062,141.7514648,468.25,141.3945312,467.9980469,141.0864258z M464.3720703,142.9624023
		c0.0185547-0.5039062,0.1513672-0.8959961,0.3984375-1.1757812c0.2470703-0.2802734,0.5810547-0.4199219,1.0009766-0.4199219
		s0.7539062,0.1396484,1.0009766,0.4199219c0.2470703,0.2797852,0.3808594,0.671875,0.3994141,1.1757812H464.3720703z"/>
	<path d="M474.4521484,137.390625v3.5h-0.0283203c-0.0839844-0.1123047-0.1962891-0.2192383-0.3359375-0.3222656
		c-0.1396484-0.1025391-0.2919922-0.1889648-0.4550781-0.2587891s-0.3291016-0.1259766-0.4970703-0.1679688
		s-0.3271484-0.0629883-0.4755859-0.0629883c-0.4667969,0-0.8828125,0.1025391-1.2460938,0.3081055
		c-0.3642578,0.2050781-0.6699219,0.4755859-0.9169922,0.8120117c-0.2480469,0.3359375-0.4345703,0.71875-0.5605469,1.1479492
		s-0.1884766,0.8676758-0.1884766,1.315918c0,0.5693359,0.0605469,1.0966797,0.1816406,1.5820312
		s0.3037109,0.9052734,0.5458984,1.2597656c0.2431641,0.3549805,0.5458984,0.6323242,0.9101562,0.8330078
		s0.7890625,0.3012695,1.2744141,0.3012695c0.3916016,0,0.7412109-0.0795898,1.0498047-0.2382812
		c0.3076172-0.1586914,0.6162109-0.387207,0.9238281-0.6860352l0.0839844,0.7841797H476.1875V137.390625H474.4521484z
		 M474.4521484,145.5947266c-0.09375,0.074707-0.1796875,0.1494141-0.2597656,0.2236328
		c-0.0791016,0.0751953-0.1679688,0.1425781-0.265625,0.203125c-0.0976562,0.0610352-0.2119141,0.1118164-0.3427734,0.1538086
		c-0.1308594,0.0424805-0.2900391,0.0634766-0.4765625,0.0634766c-0.5224609,0-0.9238281-0.203125-1.2041016-0.609375
		c-0.2792969-0.4057617-0.4199219-0.9960938-0.4199219-1.7709961c0-0.7744141,0.140625-1.3647461,0.4199219-1.7709961
		c0.2802734-0.4057617,0.6816406-0.6088867,1.2041016-0.6088867c0.2802734,0,0.5302734,0.0629883,0.7490234,0.1889648
		c0.2197266,0.1259766,0.4179688,0.2685547,0.5957031,0.4272461V145.5947266z"/>
</g>
</svg>
