<?xml version="1.0" encoding="utf-8"?>
<!-- Generator: Adobe Illustrator 21.1.0, SVG Export Plug-In . SVG Version: 6.00 Build 0)  -->
<svg version="1.1" id="Layer_1" xmlns="http://www.w3.org/2000/svg" xmlns:xlink="http://www.w3.org/1999/xlink" x="0px" y="0px"
	 viewBox="0 0 785.333313 350" style="enable-background:new 0 0 785.333313 350;" xml:space="preserve">
<style type="text/css">
	.st0{fill:#F7F7F7;}
	.st1{fill:#179AC4;}
	.st2{fill:#1B9524;}
	.st3{fill:#961497;}
	.st4{fill:#3669C9;}
	.st5{fill:#FD9827;}
	.st6{fill:#DA3A22;}
</style>
<g>
	<path d="M130.5022736,335.1259766v-14.4404297h5.2792969c0.7734375,0,1.4765625,0.0839844,2.1103516,0.25
		c0.6328125,0.1669922,1.1699219,0.4277344,1.6103516,0.7802734c0.4394531,0.3535156,0.7792969,0.7998047,1.0195312,1.3398438
		s0.3603516,1.1835938,0.3603516,1.9306641c0,0.7460938-0.1201172,1.3935547-0.3603516,1.9394531
		c-0.2402344,0.546875-0.5800781,0.9931641-1.0195312,1.3398438c-0.4404297,0.3476562-0.9775391,0.6035156-1.6103516,0.7705078
		c-0.6337891,0.1669922-1.3369141,0.25-2.1103516,0.25h-2.5195312v5.8398438H130.5022736z M133.2620392,327.0458984h2.2001953
		c0.5195312,0,0.9492188-0.046875,1.2900391-0.1396484c0.3398438-0.09375,0.6123047-0.2304688,0.8193359-0.4101562
		s0.3505859-0.3964844,0.4306641-0.6503906c0.0800781-0.2529297,0.1201172-0.5400391,0.1201172-0.859375
		c0-0.3203125-0.0400391-0.6064453-0.1201172-0.8603516c-0.0800781-0.2529297-0.2236328-0.4697266-0.4306641-0.6503906
		c-0.2070312-0.1796875-0.4794922-0.3164062-0.8193359-0.4091797c-0.3408203-0.09375-0.7705078-0.140625-1.2900391-0.140625
		h-2.2001953V327.0458984z"/>
	<path d="M142.9016876,335.1259766v-14.4404297h2.4794922v14.4404297H142.9016876z"/>
	<path d="M153.5022736,335.1259766l-0.1601562-0.9003906c-0.5068359,0.3476562-1.0097656,0.6171875-1.5097656,0.8105469
		s-1.0771484,0.2900391-1.7304688,0.2900391c-0.4667969,0-0.8769531-0.0771484-1.2294922-0.2304688
		c-0.3535156-0.1533203-0.6474609-0.359375-0.8798828-0.6201172c-0.2333984-0.2597656-0.4101562-0.5527344-0.5302734-0.8798828
		c-0.1201172-0.3261719-0.1796875-0.6699219-0.1796875-1.0292969c0-1.1865234,0.4863281-2.1035156,1.4599609-2.75
		c0.9726562-0.6474609,2.4726562-1.0908203,4.5-1.3300781v-0.8798828c0-0.4003906-0.1435547-0.7070312-0.4306641-0.9208984
		c-0.2861328-0.2128906-0.6494141-0.3193359-1.0898438-0.3193359c-0.5869141,0-1.0537109,0.1298828-1.3994141,0.3896484
		c-0.3476562,0.2597656-0.640625,0.5566406-0.8808594,0.8896484l-1.5996094-1.2197266
		c0.1601562-0.2802734,0.3798828-0.5361328,0.6601562-0.7695312s0.5966797-0.4365234,0.9501953-0.6103516
		c0.3525391-0.1728516,0.7226562-0.3066406,1.109375-0.4003906c0.3867188-0.0927734,0.7734375-0.1328125,1.1601562-0.1191406
		c0.6933594,0.0126953,1.2929688,0.0927734,1.7998047,0.2392578c0.5068359,0.1474609,0.9238281,0.3837891,1.25,0.7099609
		c0.3271484,0.3271484,0.5673828,0.7568359,0.7207031,1.2900391c0.1523438,0.5341797,0.2294922,1.1875,0.2294922,1.9599609
		v4.9003906c0,0.2666016,0.0136719,0.5273438,0.0400391,0.7802734s0.0800781,0.4931641,0.1601562,0.7197266H153.5022736z
		 M153.2425079,330.1455078c-0.4140625,0.0800781-0.8271484,0.1669922-1.2402344,0.2607422
		c-0.4130859,0.0927734-0.7871094,0.2167969-1.1201172,0.3701172s-0.6035156,0.3496094-0.8095703,0.5898438
		c-0.2070312,0.2402344-0.3105469,0.5400391-0.3105469,0.8994141c0,0.3876953,0.1132812,0.6875,0.3398438,0.9003906
		c0.2265625,0.2138672,0.5136719,0.3203125,0.8603516,0.3203125c0.2001953,0,0.40625-0.0371094,0.6201172-0.1103516
		c0.2128906-0.0732422,0.4199219-0.1630859,0.6201172-0.2695312c0.2001953-0.1074219,0.3896484-0.2265625,0.5693359-0.3603516
		c0.1806641-0.1328125,0.3369141-0.2529297,0.4707031-0.3603516V330.1455078z"/>
	<path d="M157.1223907,336.8056641c0.1865234,0.0400391,0.359375,0.0634766,0.5195312,0.0703125
		s0.3330078,0.0097656,0.5205078,0.0097656c0.4267578,0,0.7695312-0.0634766,1.0292969-0.1894531
		c0.2607422-0.1269531,0.4638672-0.3369141,0.6103516-0.6298828c0.1201172-0.2539062,0.2167969-0.4677734,0.2900391-0.640625
		s0.1103516-0.3662109,0.1103516-0.5800781c0-0.1865234-0.0371094-0.3867188-0.1103516-0.5996094
		s-0.1435547-0.4267578-0.2099609-0.6396484l-2.7802734-8.8808594h2.5l1.7207031,6.4003906h0.0400391l1.7792969-6.4003906h2.4804688
		l-3.2802734,10.4199219c-0.2802734,0.7470703-0.5498047,1.3632812-0.8095703,1.8505859
		c-0.2607422,0.4863281-0.5439453,0.8730469-0.8505859,1.1601562c-0.3066406,0.2861328-0.6494141,0.4863281-1.0292969,0.5996094
		c-0.3808594,0.1132812-0.8242188,0.1699219-1.3300781,0.1699219c-0.3076172,0-0.546875-0.0068359-0.7207031-0.0195312
		c-0.1728516-0.0136719-0.3330078-0.0341797-0.4794922-0.0605469V336.8056641z"/>
	<path d="M168.7610626,330.3261719c0.0263672,1.0800781,0.2470703,1.8496094,0.6601562,2.3095703s0.9130859,0.6904297,1.5,0.6904297
		c0.5732422,0,1.0263672-0.1171875,1.3603516-0.3505859c0.3330078-0.2324219,0.6523438-0.5292969,0.9599609-0.8896484
		l1.7998047,1.1201172c-0.4804688,0.7470703-1.0771484,1.2871094-1.7900391,1.6201172
		c-0.7138672,0.3330078-1.5703125,0.5-2.5703125,0.5c-0.6796875,0-1.2900391-0.1269531-1.8300781-0.3798828
		c-0.5400391-0.2539062-1-0.6132812-1.3798828-1.0800781s-0.6738281-1.0332031-0.8798828-1.7001953
		c-0.2070312-0.6669922-0.3095703-1.4130859-0.3095703-2.2402344c0-0.8261719,0.1025391-1.5732422,0.3095703-2.2402344
		c0.2060547-0.6660156,0.5029297-1.2324219,0.8896484-1.6992188s0.8603516-0.8271484,1.4199219-1.0800781
		c0.5605469-0.2529297,1.1933594-0.3798828,1.9003906-0.3798828c0.6796875,0,1.2832031,0.1298828,1.8095703,0.3896484
		c0.5273438,0.2597656,0.9707031,0.6103516,1.3300781,1.0498047c0.3603516,0.4404297,0.6337891,0.9501953,0.8203125,1.5302734
		s0.2802734,1.1835938,0.2802734,1.8095703v1.0205078H168.7610626z M172.7610626,328.6455078
		c-0.0263672-0.7197266-0.2167969-1.2792969-0.5703125-1.6796875c-0.3535156-0.3994141-0.8300781-0.5996094-1.4296875-0.5996094
		s-1.0771484,0.2001953-1.4296875,0.5996094c-0.3535156,0.4003906-0.5439453,0.9599609-0.5703125,1.6796875H172.7610626z"/>
	<path d="M176.9212189,335.1259766v-10.4003906h2.2802734v1.7802734h0.0400391
		c0.3056641-0.6259766,0.6826172-1.1064453,1.1298828-1.4394531c0.4462891-0.3339844,1.0429688-0.5136719,1.7900391-0.5400391
		v2.6191406c-0.0673828-0.0126953-0.1337891-0.0195312-0.2001953-0.0195312c-0.0673828,0-0.1474609,0-0.2402344,0
		c-0.3066406,0-0.5996094,0.0771484-0.8798828,0.2304688s-0.5273438,0.3261719-0.7402344,0.5195312
		s-0.3828125,0.3798828-0.5097656,0.5595703c-0.1269531,0.1806641-0.1904297,0.3037109-0.1904297,0.3701172v6.3203125H176.9212189z"
		/>
	<path d="M188.9612579,320.6855469h3l2.1591797,4.4599609l2.1601562-4.4599609h3l-3.6601562,7.0400391l3.9003906,7.4003906h-3
		l-2.4003906-4.9003906l-2.3994141,4.9003906h-3l3.8994141-7.4003906L188.9612579,320.6855469z"/>
</g>
<g>
	<circle class="st0" cx="171.6291962" cy="154.6376495" r="129.9092712"/>
	<path class="st1" d="M171.6291962,298.9812927c-79.7187805,0-144.3436279-64.6248627-144.3436279-144.3436432
		S91.9104156,10.2940197,171.6291962,10.2940197V298.9812927z"/>
</g>
<g>
	<g>
		<g>
			<g>
				<path d="M443.0120544,335.1259766v-14.4404297h5.2792969c0.7734375,0,1.4765625,0.0839844,2.1103516,0.25
					c0.6328125,0.1669922,1.1699219,0.4277344,1.6103516,0.7802734c0.4394531,0.3535156,0.7792969,0.7998047,1.0195312,1.3398438
					s0.3603516,1.1835938,0.3603516,1.9306641c0,0.7460938-0.1201172,1.3935547-0.3603516,1.9394531
					c-0.2402344,0.546875-0.5800781,0.9931641-1.0195312,1.3398438c-0.4404297,0.3476562-0.9775391,0.6035156-1.6103516,0.7705078
					c-0.6337891,0.1669922-1.3369141,0.25-2.1103516,0.25h-2.5195312v5.8398438H443.0120544z M445.7718201,327.0458984h2.2001953
					c0.5195312,0,0.9492188-0.046875,1.2900391-0.1396484c0.3398438-0.09375,0.6123047-0.2304688,0.8193359-0.4101562
					s0.3505859-0.3964844,0.4306641-0.6503906c0.0800781-0.2529297,0.1201172-0.5400391,0.1201172-0.859375
					c0-0.3203125-0.0400391-0.6064453-0.1201172-0.8603516c-0.0800781-0.2529297-0.2236328-0.4697266-0.4306641-0.6503906
					c-0.2070312-0.1796875-0.4794922-0.3164062-0.8193359-0.4091797c-0.3408203-0.09375-0.7705078-0.140625-1.2900391-0.140625
					h-2.2001953V327.0458984z"/>
				<path d="M455.4114685,335.1259766v-14.4404297h2.4794922v14.4404297H455.4114685z"/>
				<path d="M466.0120544,335.1259766l-0.1601562-0.9003906c-0.5068359,0.3476562-1.0097656,0.6171875-1.5097656,0.8105469
					s-1.0771484,0.2900391-1.7304688,0.2900391c-0.4667969,0-0.8769531-0.0771484-1.2294922-0.2304688
					c-0.3535156-0.1533203-0.6474609-0.359375-0.8798828-0.6201172c-0.2333984-0.2597656-0.4101562-0.5527344-0.5302734-0.8798828
					c-0.1201172-0.3261719-0.1796875-0.6699219-0.1796875-1.0292969c0-1.1865234,0.4863281-2.1035156,1.4599609-2.75
					c0.9726562-0.6474609,2.4726562-1.0908203,4.5-1.3300781v-0.8798828c0-0.4003906-0.1435547-0.7070312-0.4306641-0.9208984
					c-0.2861328-0.2128906-0.6494141-0.3193359-1.0898438-0.3193359c-0.5869141,0-1.0537109,0.1298828-1.3994141,0.3896484
					c-0.3476562,0.2597656-0.640625,0.5566406-0.8808594,0.8896484l-1.5996094-1.2197266
					c0.1601562-0.2802734,0.3798828-0.5361328,0.6601562-0.7695312s0.5966797-0.4365234,0.9501953-0.6103516
					c0.3525391-0.1728516,0.7226562-0.3066406,1.109375-0.4003906c0.3867188-0.0927734,0.7734375-0.1328125,1.1601562-0.1191406
					c0.6933594,0.0126953,1.2929688,0.0927734,1.7998047,0.2392578c0.5068359,0.1474609,0.9238281,0.3837891,1.25,0.7099609
					c0.3271484,0.3271484,0.5673828,0.7568359,0.7207031,1.2900391c0.1523438,0.5341797,0.2294922,1.1875,0.2294922,1.9599609
					v4.9003906c0,0.2666016,0.0136719,0.5273438,0.0400391,0.7802734s0.0800781,0.4931641,0.1601562,0.7197266H466.0120544z
					 M465.7522888,330.1455078c-0.4140625,0.0800781-0.8271484,0.1669922-1.2402344,0.2607422
					c-0.4130859,0.0927734-0.7871094,0.2167969-1.1201172,0.3701172s-0.6035156,0.3496094-0.8095703,0.5898438
					c-0.2070312,0.2402344-0.3105469,0.5400391-0.3105469,0.8994141c0,0.3876953,0.1132812,0.6875,0.3398438,0.9003906
					c0.2265625,0.2138672,0.5136719,0.3203125,0.8603516,0.3203125c0.2001953,0,0.40625-0.0371094,0.6201172-0.1103516
					c0.2128906-0.0732422,0.4199219-0.1630859,0.6201172-0.2695312c0.2001953-0.1074219,0.3896484-0.2265625,0.5693359-0.3603516
					c0.1806641-0.1328125,0.3369141-0.2529297,0.4707031-0.3603516V330.1455078z"/>
				<path d="M469.6321716,336.8056641c0.1865234,0.0400391,0.359375,0.0634766,0.5195312,0.0703125
					s0.3330078,0.0097656,0.5205078,0.0097656c0.4267578,0,0.7695312-0.0634766,1.0292969-0.1894531
					c0.2607422-0.1269531,0.4638672-0.3369141,0.6103516-0.6298828c0.1201172-0.2539062,0.2167969-0.4677734,0.2900391-0.640625
					s0.1103516-0.3662109,0.1103516-0.5800781c0-0.1865234-0.0371094-0.3867188-0.1103516-0.5996094
					s-0.1435547-0.4267578-0.2099609-0.6396484l-2.7802734-8.8808594h2.5l1.7207031,6.4003906h0.0400391l1.7792969-6.4003906
					h2.4804688l-3.2802734,10.4199219c-0.2802734,0.7470703-0.5498047,1.3632812-0.8095703,1.8505859
					c-0.2607422,0.4863281-0.5439453,0.8730469-0.8505859,1.1601562c-0.3066406,0.2861328-0.6494141,0.4863281-1.0292969,0.5996094
					c-0.3808594,0.1132812-0.8242188,0.1699219-1.3300781,0.1699219c-0.3076172,0-0.546875-0.0068359-0.7207031-0.0195312
					c-0.1728516-0.0136719-0.3330078-0.0341797-0.4794922-0.0605469V336.8056641z"/>
				<path d="M481.2708435,330.3261719c0.0263672,1.0800781,0.2470703,1.8496094,0.6601562,2.3095703
					s0.9130859,0.6904297,1.5,0.6904297c0.5732422,0,1.0263672-0.1171875,1.3603516-0.3505859
					c0.3330078-0.2324219,0.6523438-0.5292969,0.9599609-0.8896484l1.7998047,1.1201172
					c-0.4804688,0.7470703-1.0771484,1.2871094-1.7900391,1.6201172c-0.7138672,0.3330078-1.5703125,0.5-2.5703125,0.5
					c-0.6796875,0-1.2900391-0.1269531-1.8300781-0.3798828c-0.5400391-0.2539062-1-0.6132812-1.3798828-1.0800781
					s-0.6738281-1.0332031-0.8798828-1.7001953c-0.2070312-0.6669922-0.3095703-1.4130859-0.3095703-2.2402344
					c0-0.8261719,0.1025391-1.5732422,0.3095703-2.2402344c0.2060547-0.6660156,0.5029297-1.2324219,0.8896484-1.6992188
					s0.8603516-0.8271484,1.4199219-1.0800781c0.5605469-0.2529297,1.1933594-0.3798828,1.9003906-0.3798828
					c0.6796875,0,1.2832031,0.1298828,1.8095703,0.3896484c0.5273438,0.2597656,0.9707031,0.6103516,1.3300781,1.0498047
					c0.3603516,0.4404297,0.6337891,0.9501953,0.8203125,1.5302734s0.2802734,1.1835938,0.2802734,1.8095703v1.0205078H481.2708435z
					 M485.2708435,328.6455078c-0.0263672-0.7197266-0.2167969-1.2792969-0.5703125-1.6796875
					c-0.3535156-0.3994141-0.8300781-0.5996094-1.4296875-0.5996094s-1.0771484,0.2001953-1.4296875,0.5996094
					c-0.3535156,0.4003906-0.5439453,0.9599609-0.5703125,1.6796875H485.2708435z"/>
				<path d="M489.4309998,335.1259766v-10.4003906h2.2802734v1.7802734h0.0400391
					c0.3056641-0.6259766,0.6826172-1.1064453,1.1298828-1.4394531c0.4462891-0.3339844,1.0429688-0.5136719,1.7900391-0.5400391
					v2.6191406c-0.0673828-0.0126953-0.1337891-0.0195312-0.2001953-0.0195312c-0.0673828,0-0.1474609,0-0.2402344,0
					c-0.3066406,0-0.5996094,0.0771484-0.8798828,0.2304688s-0.5273438,0.3261719-0.7402344,0.5195312
					s-0.3828125,0.3798828-0.5097656,0.5595703c-0.1269531,0.1806641-0.1904297,0.3037109-0.1904297,0.3701172v6.3203125
					H489.4309998z"/>
				<path d="M502.6302185,320.6855469h4.7802734c0.9599609,0,1.8330078,0.1376953,2.6201172,0.4101562
					c0.7861328,0.2734375,1.4667969,0.7041016,2.0400085,1.2900391c0.5732422,0.5869141,1.0195312,1.3339844,1.3398438,2.2402344
					c0.3203125,0.9072266,0.4804688,2,0.4804688,3.2802734c0,1.2792969-0.1601562,2.3730469-0.4804688,3.2792969
					c-0.3203125,0.9072266-0.7666016,1.6542969-1.3398438,2.2402344c-0.5732117,0.5869141-1.2538757,1.0166016-2.0400085,1.2900391
					c-0.7871094,0.2734375-1.6601562,0.4101562-2.6201172,0.4101562h-4.7802734V320.6855469z M505.3909607,332.8056641h1.8398438
					c0.7861328,0,1.4326172-0.1328125,1.9394531-0.3994141s0.9033203-0.6269531,1.1904297-1.0800781
					c0.2861328-0.453125,0.4863281-0.9765625,0.5996094-1.5703125c0.1132812-0.5927734,0.1699219-1.2099609,0.1699219-1.8496094
					c0-0.640625-0.0566406-1.2568359-0.1699219-1.8505859c-0.1132812-0.5927734-0.3134766-1.1162109-0.5996094-1.5693359
					c-0.2871094-0.453125-0.6835938-0.8134766-1.1904297-1.0800781s-1.1533203-0.4003906-1.9394531-0.4003906h-1.8398438
					V332.8056641z"/>
			</g>
			<g>
				<circle class="st0" cx="478.0316772" cy="246.990036" r="50.9995613"/>
				<path class="st2" d="M500.0887146,194.7769775c20.3383484,8.6023865,34.6091614,28.7411652,34.6091614,52.2130585
					c0,31.2958832-25.3703308,56.6661835-56.6661987,56.6661835s-56.6661682-25.3703003-56.6661682-56.6661835
					s25.3703003-56.6661835,56.6661682-56.6661835v56.6661835L500.0887146,194.7769775z"/>
			</g>
		</g>
		<g>
			<g>
				<path d="M605.5618286,335.1259766v-14.4404297h5.2792969c0.7734375,0,1.4765625,0.0839844,2.1103516,0.25
					c0.6328125,0.1669922,1.1699219,0.4277344,1.6103516,0.7802734c0.4394531,0.3535156,0.7792969,0.7998047,1.0195312,1.3398438
					s0.3603516,1.1835938,0.3603516,1.9306641c0,0.7460938-0.1201172,1.3935547-0.3603516,1.9394531
					c-0.2402344,0.546875-0.5800781,0.9931641-1.0195312,1.3398438c-0.4404297,0.3476562-0.9775391,0.6035156-1.6103516,0.7705078
					c-0.6337891,0.1669922-1.3369141,0.25-2.1103516,0.25h-2.5195312v5.8398438H605.5618286z M608.3215942,327.0458984h2.2001953
					c0.5195312,0,0.9492188-0.046875,1.2900391-0.1396484c0.3398438-0.09375,0.6123047-0.2304688,0.8193359-0.4101562
					s0.3505859-0.3964844,0.4306641-0.6503906c0.0800781-0.2529297,0.1201172-0.5400391,0.1201172-0.859375
					c0-0.3203125-0.0400391-0.6064453-0.1201172-0.8603516c-0.0800781-0.2529297-0.2236328-0.4697266-0.4306641-0.6503906
					c-0.2070312-0.1796875-0.4794922-0.3164062-0.8193359-0.4091797c-0.3408203-0.09375-0.7705078-0.140625-1.2900391-0.140625
					h-2.2001953V327.0458984z"/>
				<path d="M617.9612427,335.1259766v-14.4404297h2.4794922v14.4404297H617.9612427z"/>
				<path d="M628.5618286,335.1259766l-0.1601562-0.9003906c-0.5068359,0.3476562-1.0097656,0.6171875-1.5097656,0.8105469
					s-1.0771484,0.2900391-1.7304688,0.2900391c-0.4667969,0-0.8769531-0.0771484-1.2294922-0.2304688
					c-0.3535156-0.1533203-0.6474609-0.359375-0.8798828-0.6201172c-0.2333984-0.2597656-0.4101562-0.5527344-0.5302734-0.8798828
					c-0.1201172-0.3261719-0.1796875-0.6699219-0.1796875-1.0292969c0-1.1865234,0.4863281-2.1035156,1.4599609-2.75
					c0.9726562-0.6474609,2.4726562-1.0908203,4.5-1.3300781v-0.8798828c0-0.4003906-0.1435547-0.7070312-0.4306641-0.9208984
					c-0.2861328-0.2128906-0.6494141-0.3193359-1.0898438-0.3193359c-0.5869141,0-1.0537109,0.1298828-1.3994141,0.3896484
					c-0.3476562,0.2597656-0.640625,0.5566406-0.8808594,0.8896484l-1.5996094-1.2197266
					c0.1601562-0.2802734,0.3798828-0.5361328,0.6601562-0.7695312s0.5966797-0.4365234,0.9501953-0.6103516
					c0.3525391-0.1728516,0.7226562-0.3066406,1.109375-0.4003906c0.3867188-0.0927734,0.7734375-0.1328125,1.1601562-0.1191406
					c0.6933594,0.0126953,1.2929688,0.0927734,1.7998047,0.2392578c0.5068359,0.1474609,0.9238281,0.3837891,1.25,0.7099609
					c0.3271484,0.3271484,0.5673828,0.7568359,0.7207031,1.2900391c0.1523438,0.5341797,0.2294922,1.1875,0.2294922,1.9599609
					v4.9003906c0,0.2666016,0.0136719,0.5273438,0.0400391,0.7802734s0.0800781,0.4931641,0.1601562,0.7197266H628.5618286z
					 M628.302063,330.1455078c-0.4140625,0.0800781-0.8271484,0.1669922-1.2402344,0.2607422
					c-0.4130859,0.0927734-0.7871094,0.2167969-1.1201172,0.3701172s-0.6035156,0.3496094-0.8095703,0.5898438
					c-0.2070312,0.2402344-0.3105469,0.5400391-0.3105469,0.8994141c0,0.3876953,0.1132812,0.6875,0.3398438,0.9003906
					c0.2265625,0.2138672,0.5136719,0.3203125,0.8603516,0.3203125c0.2001953,0,0.40625-0.0371094,0.6201172-0.1103516
					c0.2128906-0.0732422,0.4199219-0.1630859,0.6201172-0.2695312c0.2001953-0.1074219,0.3896484-0.2265625,0.5693359-0.3603516
					c0.1806641-0.1328125,0.3369141-0.2529297,0.4707031-0.3603516V330.1455078z"/>
				<path d="M632.1819458,336.8056641c0.1865234,0.0400391,0.359375,0.0634766,0.5195312,0.0703125
					s0.3330078,0.0097656,0.5205078,0.0097656c0.4267578,0,0.7695312-0.0634766,1.0292969-0.1894531
					c0.2607422-0.1269531,0.4638672-0.3369141,0.6103516-0.6298828c0.1201172-0.2539062,0.2167969-0.4677734,0.2900391-0.640625
					s0.1103516-0.3662109,0.1103516-0.5800781c0-0.1865234-0.0371094-0.3867188-0.1103516-0.5996094
					s-0.1435547-0.4267578-0.2099609-0.6396484l-2.7802734-8.8808594h2.5l1.7207031,6.4003906h0.0400391l1.7792969-6.4003906
					h2.4804688l-3.2802734,10.4199219c-0.2802734,0.7470703-0.5498047,1.3632812-0.8095703,1.8505859
					c-0.2607422,0.4863281-0.5439453,0.8730469-0.8505859,1.1601562c-0.3066406,0.2861328-0.6494141,0.4863281-1.0292969,0.5996094
					c-0.3808594,0.1132812-0.8242188,0.1699219-1.3300781,0.1699219c-0.3076172,0-0.546875-0.0068359-0.7207031-0.0195312
					c-0.1728516-0.0136719-0.3330078-0.0341797-0.4794922-0.0605469V336.8056641z"/>
				<path d="M643.8206177,330.3261719c0.0263672,1.0800781,0.2470703,1.8496094,0.6601562,2.3095703
					s0.9130859,0.6904297,1.5,0.6904297c0.5732422,0,1.0263672-0.1171875,1.3603516-0.3505859
					c0.3330078-0.2324219,0.6523438-0.5292969,0.9599609-0.8896484l1.7998047,1.1201172
					c-0.4804688,0.7470703-1.0771484,1.2871094-1.7900391,1.6201172c-0.7138672,0.3330078-1.5703125,0.5-2.5703125,0.5
					c-0.6796875,0-1.2900391-0.1269531-1.8300781-0.3798828c-0.5400391-0.2539062-1-0.6132812-1.3798828-1.0800781
					s-0.6738281-1.0332031-0.8798828-1.7001953c-0.2070312-0.6669922-0.3095703-1.4130859-0.3095703-2.2402344
					c0-0.8261719,0.1025391-1.5732422,0.3095703-2.2402344c0.2060547-0.6660156,0.5029297-1.2324219,0.8896484-1.6992188
					s0.8603516-0.8271484,1.4199219-1.0800781c0.5605469-0.2529297,1.1933594-0.3798828,1.9003906-0.3798828
					c0.6796875,0,1.2832031,0.1298828,1.8095703,0.3896484c0.5273438,0.2597656,0.9707031,0.6103516,1.3300781,1.0498047
					c0.3603516,0.4404297,0.6337891,0.9501953,0.8203125,1.5302734s0.2802734,1.1835938,0.2802734,1.8095703v1.0205078H643.8206177z
					 M647.8206177,328.6455078c-0.0263672-0.7197266-0.2167969-1.2792969-0.5703125-1.6796875
					c-0.3535156-0.3994141-0.8300781-0.5996094-1.4296875-0.5996094s-1.0771484,0.2001953-1.4296875,0.5996094
					c-0.3535156,0.4003906-0.5439453,0.9599609-0.5703125,1.6796875H647.8206177z"/>
				<path d="M651.9807739,335.1259766v-10.4003906h2.2802734v1.7802734h0.0400391
					c0.3056641-0.6259766,0.6826172-1.1064453,1.1298828-1.4394531c0.4462891-0.3339844,1.0429688-0.5136719,1.7900391-0.5400391
					v2.6191406c-0.0673828-0.0126953-0.1337891-0.0195312-0.2001953-0.0195312c-0.0673828,0-0.1474609,0-0.2402344,0
					c-0.3066406,0-0.5996094,0.0771484-0.8798828,0.2304688s-0.5273438,0.3261719-0.7402344,0.5195312
					s-0.3828125,0.3798828-0.5097656,0.5595703c-0.1269531,0.1806641-0.1904297,0.3037109-0.1904297,0.3701172v6.3203125
					H651.9807739z"/>
				<path d="M665.3001099,335.1259766v-14.4404297h9.5605469v2.3203125h-6.7998047v3.4404297h4.9394531v2.3193359h-4.9394531
					v4.0400391h7.0195312v2.3203125H665.3001099z"/>
			</g>
			<g>
				<circle class="st0" cx="642.8547363" cy="246.990036" r="50.9995613"/>
				<path class="st3" d="M642.8547363,303.6562195c-31.2958984,0-56.6661987-25.3703003-56.6661987-56.6661835
					s25.3703003-56.6661835,56.6661987-56.6661835V303.6562195z"/>
			</g>
		</g>
	</g>
	<g>
		<g>
			<g>
				<path d="M379.8138123,156.4433594v-14.4404297h5.2792969c0.7734375,0,1.4765625,0.0839844,2.1103516,0.25
					c0.6328125,0.1669922,1.1699219,0.4277344,1.6103516,0.7802734c0.4394531,0.3535156,0.7792969,0.7998047,1.0195312,1.3398438
					s0.3603516,1.1835938,0.3603516,1.9306641c0,0.7460938-0.1201172,1.3935547-0.3603516,1.9394531
					c-0.2402344,0.546875-0.5800781,0.9931641-1.0195312,1.3398438c-0.4404297,0.3476562-0.9775391,0.6035156-1.6103516,0.7705078
					c-0.6337891,0.1669922-1.3369141,0.25-2.1103516,0.25h-2.5195312v5.8398438H379.8138123z M382.5735779,148.3632812h2.2001953
					c0.5195312,0,0.9492188-0.046875,1.2900391-0.1396484c0.3398438-0.09375,0.6123047-0.2304688,0.8193359-0.4101562
					s0.3505859-0.3964844,0.4306641-0.6503906c0.0800781-0.2529297,0.1201172-0.5400391,0.1201172-0.859375
					c0-0.3203125-0.0400391-0.6064453-0.1201172-0.8603516c-0.0800781-0.2529297-0.2236328-0.4697266-0.4306641-0.6503906
					c-0.2070312-0.1796875-0.4794922-0.3164062-0.8193359-0.4091797c-0.3408203-0.09375-0.7705078-0.140625-1.2900391-0.140625
					h-2.2001953V148.3632812z"/>
				<path d="M392.2132263,156.4433594v-14.4404297h2.4794922v14.4404297H392.2132263z"/>
				<path d="M402.8138123,156.4433594l-0.1601562-0.9003906c-0.5068359,0.3476562-1.0097656,0.6171875-1.5097656,0.8105469
					s-1.0771484,0.2900391-1.7304688,0.2900391c-0.4667969,0-0.8769531-0.0771484-1.2294922-0.2304688
					c-0.3535156-0.1533203-0.6474609-0.359375-0.8798828-0.6201172c-0.2333984-0.2597656-0.4101562-0.5527344-0.5302734-0.8798828
					c-0.1201172-0.3261719-0.1796875-0.6699219-0.1796875-1.0292969c0-1.1865234,0.4863281-2.1035156,1.4599609-2.75
					c0.9726562-0.6474609,2.4726562-1.0908203,4.5-1.3300781v-0.8798828c0-0.4003906-0.1435547-0.7070312-0.4306641-0.9208984
					c-0.2861328-0.2128906-0.6494141-0.3193359-1.0898438-0.3193359c-0.5869141,0-1.0537109,0.1298828-1.3994141,0.3896484
					c-0.3476562,0.2597656-0.640625,0.5566406-0.8808594,0.8896484l-1.5996094-1.2197266
					c0.1601562-0.2802734,0.3798828-0.5361328,0.6601562-0.7695312s0.5966797-0.4365234,0.9501953-0.6103516
					c0.3525391-0.1728516,0.7226562-0.3066406,1.109375-0.4003906c0.3867188-0.0927734,0.7734375-0.1328125,1.1601562-0.1191406
					c0.6933594,0.0126953,1.2929688,0.0927734,1.7998047,0.2392578c0.5068359,0.1474609,0.9238281,0.3837891,1.25,0.7099609
					c0.3271484,0.3271484,0.5673828,0.7568359,0.7207031,1.2900391c0.1523438,0.5341797,0.2294922,1.1875,0.2294922,1.9599609
					v4.9003906c0,0.2666016,0.0136719,0.5273438,0.0400391,0.7802734s0.0800781,0.4931641,0.1601562,0.7197266H402.8138123z
					 M402.5540466,151.4628906c-0.4140625,0.0800781-0.8271484,0.1669922-1.2402344,0.2607422
					c-0.4130859,0.0927734-0.7871094,0.2167969-1.1201172,0.3701172s-0.6035156,0.3496094-0.8095703,0.5898438
					c-0.2070312,0.2402344-0.3105469,0.5400391-0.3105469,0.8994141c0,0.3876953,0.1132812,0.6875,0.3398438,0.9003906
					c0.2265625,0.2138672,0.5136719,0.3203125,0.8603516,0.3203125c0.2001953,0,0.40625-0.0371094,0.6201172-0.1103516
					c0.2128906-0.0732422,0.4199219-0.1630859,0.6201172-0.2695312c0.2001953-0.1074219,0.3896484-0.2265625,0.5693359-0.3603516
					c0.1806641-0.1328125,0.3369141-0.2529297,0.4707031-0.3603516V151.4628906z"/>
				<path d="M406.4339294,158.1230469c0.1865234,0.0400391,0.359375,0.0634766,0.5195312,0.0703125
					s0.3330078,0.0097656,0.5205078,0.0097656c0.4267578,0,0.7695312-0.0634766,1.0292969-0.1894531
					c0.2607422-0.1269531,0.4638672-0.3369141,0.6103516-0.6298828c0.1201172-0.2539062,0.2167969-0.4677734,0.2900391-0.640625
					s0.1103516-0.3662109,0.1103516-0.5800781c0-0.1865234-0.0371094-0.3867188-0.1103516-0.5996094
					s-0.1435547-0.4267578-0.2099609-0.6396484l-2.7802734-8.8808594h2.5l1.7207031,6.4003906h0.0400391l1.7792969-6.4003906
					h2.4804688l-3.2802734,10.4199219c-0.2802734,0.7470703-0.5498047,1.3632812-0.8095703,1.8505859
					c-0.2607422,0.4863281-0.5439453,0.8730469-0.8505859,1.1601562c-0.3066406,0.2861328-0.6494141,0.4863281-1.0292969,0.5996094
					c-0.3808594,0.1132812-0.8242188,0.1699219-1.3300781,0.1699219c-0.3076172,0-0.546875-0.0068359-0.7207031-0.0195312
					c-0.1728516-0.0136719-0.3330078-0.0341797-0.4794922-0.0605469V158.1230469z"/>
				<path d="M418.0726013,151.6435547c0.0263672,1.0800781,0.2470703,1.8496094,0.6601562,2.3095703
					s0.9130859,0.6904297,1.5,0.6904297c0.5732422,0,1.0263672-0.1171875,1.3603516-0.3505859
					c0.3330078-0.2324219,0.6523438-0.5292969,0.9599609-0.8896484l1.7998047,1.1201172
					c-0.4804688,0.7470703-1.0771484,1.2871094-1.7900391,1.6201172c-0.7138672,0.3330078-1.5703125,0.5-2.5703125,0.5
					c-0.6796875,0-1.2900391-0.1269531-1.8300781-0.3798828c-0.5400391-0.2539062-1-0.6132812-1.3798828-1.0800781
					s-0.6738281-1.0332031-0.8798828-1.7001953c-0.2070312-0.6669922-0.3095703-1.4130859-0.3095703-2.2402344
					c0-0.8261719,0.1025391-1.5732422,0.3095703-2.2402344c0.2060547-0.6660156,0.5029297-1.2324219,0.8896484-1.6992188
					s0.8603516-0.8271484,1.4199219-1.0800781c0.5605469-0.2529297,1.1933594-0.3798828,1.9003906-0.3798828
					c0.6796875,0,1.2832031,0.1298828,1.8095703,0.3896484c0.5273438,0.2597656,0.9707031,0.6103516,1.3300781,1.0498047
					c0.3603516,0.4404297,0.6337891,0.9501953,0.8203125,1.5302734s0.2802734,1.1835938,0.2802734,1.8095703v1.0205078H418.0726013z
					 M422.0726013,149.9628906c-0.0263672-0.7197266-0.2167969-1.2792969-0.5703125-1.6796875
					c-0.3535156-0.3994141-0.8300781-0.5996094-1.4296875-0.5996094s-1.0771484,0.2001953-1.4296875,0.5996094
					c-0.3535156,0.4003906-0.5439453,0.9599609-0.5703125,1.6796875H422.0726013z"/>
				<path d="M426.2327576,156.4433594v-10.4003906h2.2802734v1.7802734h0.0400391
					c0.3056641-0.6259766,0.6826172-1.1064453,1.1298828-1.4394531c0.4462891-0.3339844,1.0429688-0.5136719,1.7900391-0.5400391
					v2.6191406c-0.0673828-0.0126953-0.1337891-0.0195312-0.2001953-0.0195312c-0.0673828,0-0.1474609,0-0.2402344,0
					c-0.3066406,0-0.5996094,0.0771484-0.8798828,0.2304688S429.6253357,149,429.4124451,149.1933594
					s-0.3828125,0.3798828-0.5097656,0.5595703c-0.1269531,0.1806641-0.1904297,0.3037109-0.1904297,0.3701172v6.3203125
					H426.2327576z"/>
				<path d="M442.2923279,141.9833984h3.4404297l4.0996094,14.4599609h-2.7402344l-0.7998047-3.1201172h-4.5595703
					l-0.8603516,3.1201172h-2.7402344L442.2923279,141.9833984z M442.3323669,151.0429688h3.3603516l-1.6201172-6.2792969
					h-0.0400391L442.3323669,151.0429688z"/>
			</g>
			<g>
				<circle class="st0" cx="417.105896" cy="66.9601822" r="50.9995613"/>
				<path class="st4" d="M456.1150208,108.0619965c-10.1601257,9.6459427-23.8934631,15.5643692-39.0091248,15.5643692
					c-31.2958679,0-56.6661682-25.3703156-56.6661682-56.6661835s25.3703003-56.6661758,56.6661682-56.6661758v56.6661758
					L456.1150208,108.0619965z"/>
			</g>
		</g>
		<g>
			<g>
				<path d="M666.4876099,156.4433594v-14.4404297h5.2792969c0.7734375,0,1.4765625,0.0839844,2.1103516,0.25
					c0.6328125,0.1669922,1.1699219,0.4277344,1.6103516,0.7802734c0.4394531,0.3535156,0.7792969,0.7998047,1.0195312,1.3398438
					s0.3603516,1.1835938,0.3603516,1.9306641c0,0.7460938-0.1201172,1.3935547-0.3603516,1.9394531
					c-0.2402344,0.546875-0.5800781,0.9931641-1.0195312,1.3398438c-0.4404297,0.3476562-0.9775391,0.6035156-1.6103516,0.7705078
					c-0.6337891,0.1669922-1.3369141,0.25-2.1103516,0.25h-2.5195312v5.8398438H666.4876099z M669.2473755,148.3632812h2.2001953
					c0.5195312,0,0.9492188-0.046875,1.2900391-0.1396484c0.3398438-0.09375,0.6123047-0.2304688,0.8193359-0.4101562
					s0.3505859-0.3964844,0.4306641-0.6503906c0.0800781-0.2529297,0.1201172-0.5400391,0.1201172-0.859375
					c0-0.3203125-0.0400391-0.6064453-0.1201172-0.8603516c-0.0800781-0.2529297-0.2236328-0.4697266-0.4306641-0.6503906
					c-0.2070312-0.1796875-0.4794922-0.3164062-0.8193359-0.4091797c-0.3408203-0.09375-0.7705078-0.140625-1.2900391-0.140625
					h-2.2001953V148.3632812z"/>
				<path d="M678.8870239,156.4433594v-14.4404297h2.4794922v14.4404297H678.8870239z"/>
				<path d="M689.4876099,156.4433594l-0.1601562-0.9003906c-0.5068359,0.3476562-1.0097656,0.6171875-1.5097656,0.8105469
					s-1.0771484,0.2900391-1.7304688,0.2900391c-0.4667969,0-0.8769531-0.0771484-1.2294922-0.2304688
					c-0.3535156-0.1533203-0.6474609-0.359375-0.8798828-0.6201172c-0.2333984-0.2597656-0.4101562-0.5527344-0.5302734-0.8798828
					c-0.1201172-0.3261719-0.1796875-0.6699219-0.1796875-1.0292969c0-1.1865234,0.4863281-2.1035156,1.4599609-2.75
					c0.9726562-0.6474609,2.4726562-1.0908203,4.5-1.3300781v-0.8798828c0-0.4003906-0.1435547-0.7070312-0.4306641-0.9208984
					c-0.2861328-0.2128906-0.6494141-0.3193359-1.0898438-0.3193359c-0.5869141,0-1.0537109,0.1298828-1.3994141,0.3896484
					c-0.3476562,0.2597656-0.640625,0.5566406-0.8808594,0.8896484l-1.5996094-1.2197266
					c0.1601562-0.2802734,0.3798828-0.5361328,0.6601562-0.7695312s0.5966797-0.4365234,0.9501953-0.6103516
					c0.3525391-0.1728516,0.7226562-0.3066406,1.109375-0.4003906c0.3867188-0.0927734,0.7734375-0.1328125,1.1601562-0.1191406
					c0.6933594,0.0126953,1.2929688,0.0927734,1.7998047,0.2392578c0.5068359,0.1474609,0.9238281,0.3837891,1.25,0.7099609
					c0.3271484,0.3271484,0.5673828,0.7568359,0.7207031,1.2900391c0.1523438,0.5341797,0.2294922,1.1875,0.2294922,1.9599609
					v4.9003906c0,0.2666016,0.0136719,0.5273438,0.0400391,0.7802734s0.0800781,0.4931641,0.1601562,0.7197266H689.4876099z
					 M689.2278442,151.4628906c-0.4140625,0.0800781-0.8271484,0.1669922-1.2402344,0.2607422
					c-0.4130859,0.0927734-0.7871094,0.2167969-1.1201172,0.3701172s-0.6035156,0.3496094-0.8095703,0.5898438
					c-0.2070312,0.2402344-0.3105469,0.5400391-0.3105469,0.8994141c0,0.3876953,0.1132812,0.6875,0.3398438,0.9003906
					c0.2265625,0.2138672,0.5136719,0.3203125,0.8603516,0.3203125c0.2001953,0,0.40625-0.0371094,0.6201172-0.1103516
					c0.2128906-0.0732422,0.4199219-0.1630859,0.6201172-0.2695312c0.2001953-0.1074219,0.3896484-0.2265625,0.5693359-0.3603516
					c0.1806641-0.1328125,0.3369141-0.2529297,0.4707031-0.3603516V151.4628906z"/>
				<path d="M693.1077271,158.1230469c0.1865234,0.0400391,0.359375,0.0634766,0.5195312,0.0703125
					s0.3330078,0.0097656,0.5205078,0.0097656c0.4267578,0,0.7695312-0.0634766,1.0292969-0.1894531
					c0.2607422-0.1269531,0.4638672-0.3369141,0.6103516-0.6298828c0.1201172-0.2539062,0.2167969-0.4677734,0.2900391-0.640625
					s0.1103516-0.3662109,0.1103516-0.5800781c0-0.1865234-0.0371094-0.3867188-0.1103516-0.5996094
					s-0.1435547-0.4267578-0.2099609-0.6396484l-2.7802734-8.8808594h2.5l1.7207031,6.4003906h0.0400391l1.7792969-6.4003906
					h2.4804688l-3.2802734,10.4199219c-0.2802734,0.7470703-0.5498047,1.3632812-0.8095703,1.8505859
					c-0.2607422,0.4863281-0.5439453,0.8730469-0.8505859,1.1601562c-0.3066406,0.2861328-0.6494141,0.4863281-1.0292969,0.5996094
					c-0.3808594,0.1132812-0.8242188,0.1699219-1.3300781,0.1699219c-0.3076172,0-0.546875-0.0068359-0.7207031-0.0195312
					c-0.1728516-0.0136719-0.3330078-0.0341797-0.4794922-0.0605469V158.1230469z"/>
				<path d="M704.7463989,151.6435547c0.0263672,1.0800781,0.2470703,1.8496094,0.6601562,2.3095703
					s0.9130859,0.6904297,1.5,0.6904297c0.5732422,0,1.0263672-0.1171875,1.3603516-0.3505859
					c0.3330078-0.2324219,0.6523438-0.5292969,0.9599609-0.8896484l1.7998047,1.1201172
					c-0.4804688,0.7470703-1.0771484,1.2871094-1.7900391,1.6201172c-0.7138672,0.3330078-1.5703125,0.5-2.5703125,0.5
					c-0.6796875,0-1.2900391-0.1269531-1.8300781-0.3798828c-0.5400391-0.2539062-1-0.6132812-1.3798828-1.0800781
					s-0.6738281-1.0332031-0.8798828-1.7001953c-0.2070312-0.6669922-0.3095703-1.4130859-0.3095703-2.2402344
					c0-0.8261719,0.1025391-1.5732422,0.3095703-2.2402344c0.2060547-0.6660156,0.5029297-1.2324219,0.8896484-1.6992188
					s0.8603516-0.8271484,1.4199219-1.0800781c0.5605469-0.2529297,1.1933594-0.3798828,1.9003906-0.3798828
					c0.6796875,0,1.2832031,0.1298828,1.8095703,0.3896484c0.5273438,0.2597656,0.9707031,0.6103516,1.3300781,1.0498047
					c0.3603516,0.4404297,0.6337891,0.9501953,0.8203125,1.5302734s0.2802734,1.1835938,0.2802734,1.8095703v1.0205078H704.7463989z
					 M708.7463989,149.9628906c-0.0263672-0.7197266-0.2167969-1.2792969-0.5703125-1.6796875
					c-0.3535156-0.3994141-0.8300781-0.5996094-1.4296875-0.5996094s-1.0771484,0.2001953-1.4296875,0.5996094
					c-0.3535156,0.4003906-0.5439453,0.9599609-0.5703125,1.6796875H708.7463989z"/>
				<path d="M712.9065552,156.4433594v-10.4003906h2.2802734v1.7802734h0.0400391
					c0.3056641-0.6259766,0.6826172-1.1064453,1.1298828-1.4394531c0.4462891-0.3339844,1.0429688-0.5136719,1.7900391-0.5400391
					v2.6191406c-0.0673828-0.0126953-0.1337891-0.0195312-0.2001953-0.0195312c-0.0673828,0-0.1474609,0-0.2402344,0
					c-0.3066406,0-0.5996094,0.0771484-0.8798828,0.2304688S716.2991333,149,716.0862427,149.1933594
					s-0.3828125,0.3798828-0.5097656,0.5595703c-0.1269531,0.1806641-0.1904297,0.3037109-0.1904297,0.3701172v6.3203125
					H712.9065552z"/>
				<path d="M733.4866333,146.203125c-0.2001953-0.6132812-0.5175781-1.1132812-0.9501953-1.5
					c-0.4335938-0.3867188-0.9902344-0.5800781-1.6699219-0.5800781c-0.9199219,0-1.6435547,0.4238281-2.1699219,1.2705078
					c-0.5273438,0.8466797-0.7900391,2.1230469-0.7900391,3.8300781c-0.0400391,3.3994141,0.9726562,5.0996094,3.0400391,5.0996094
					c0.3066406,0,0.5898438-0.0332031,0.8496094-0.0996094s0.5-0.1806641,0.7197266-0.3398438
					c0.2207031-0.1601562,0.4335938-0.3769531,0.640625-0.6503906c0.2060547-0.2734375,0.4091797-0.6230469,0.609375-1.0498047
					l2.5605469,0.6796875c-0.4267578,1.2539062-1.0966797,2.1972656-2.0107422,2.8300781
					c-0.9130859,0.6337891-2.0361328,0.9501953-3.3691406,0.9501953c-1.8535156,0-3.2841797-0.6435547-4.2900391-1.9306641
					c-1.0068359-1.2861328-1.5107422-3.1162109-1.5107422-5.4892578s0.5039062-4.203125,1.5107422-5.4902344
					c1.0058594-1.2861328,2.4365234-1.9296875,4.2900391-1.9296875c1.3857422,0,2.4863281,0.3095703,3.2998047,0.9296875
					c0.8125,0.6201172,1.3925781,1.5771484,1.7402344,2.8701172L733.4866333,146.203125z"/>
			</g>
			<g>
				<circle class="st0" cx="703.7804565" cy="66.9601822" r="50.9995613"/>
				<path class="st5" d="M647.1143188,66.9601822c0-31.2958641,25.3703003-56.6661758,56.6661377-56.6661758v56.6661758H647.1143188
					z"/>
			</g>
		</g>
		<g>
			<g>
				<path d="M522.5911255,156.4433594v-14.4404297h5.2792969c0.7734375,0,1.4765625,0.0839844,2.1103516,0.25
					c0.6328125,0.1669922,1.1699219,0.4277344,1.6103516,0.7802734c0.4394531,0.3535156,0.7792969,0.7998047,1.0195312,1.3398438
					s0.3603516,1.1835938,0.3603516,1.9306641c0,0.7460938-0.1201172,1.3935547-0.3603516,1.9394531
					c-0.2402344,0.546875-0.5800781,0.9931641-1.0195312,1.3398438c-0.4404297,0.3476562-0.9775391,0.6035156-1.6103516,0.7705078
					c-0.6337891,0.1669922-1.3369141,0.25-2.1103516,0.25h-2.5195312v5.8398438H522.5911255z M525.3508911,148.3632812h2.2001953
					c0.5195312,0,0.9492188-0.046875,1.2900391-0.1396484c0.3398438-0.09375,0.6123047-0.2304688,0.8193359-0.4101562
					s0.3505859-0.3964844,0.4306641-0.6503906c0.0800781-0.2529297,0.1201172-0.5400391,0.1201172-0.859375
					c0-0.3203125-0.0400391-0.6064453-0.1201172-0.8603516c-0.0800781-0.2529297-0.2236328-0.4697266-0.4306641-0.6503906
					c-0.2070312-0.1796875-0.4794922-0.3164062-0.8193359-0.4091797c-0.3408203-0.09375-0.7705078-0.140625-1.2900391-0.140625
					h-2.2001953V148.3632812z"/>
				<path d="M534.9905396,156.4433594v-14.4404297h2.4794922v14.4404297H534.9905396z"/>
				<path d="M545.5911255,156.4433594l-0.1601562-0.9003906c-0.5068359,0.3476562-1.0097656,0.6171875-1.5097656,0.8105469
					s-1.0771484,0.2900391-1.7304688,0.2900391c-0.4667969,0-0.8769531-0.0771484-1.2294922-0.2304688
					c-0.3535156-0.1533203-0.6474609-0.359375-0.8798828-0.6201172c-0.2333984-0.2597656-0.4101562-0.5527344-0.5302734-0.8798828
					c-0.1201172-0.3261719-0.1796875-0.6699219-0.1796875-1.0292969c0-1.1865234,0.4863281-2.1035156,1.4599609-2.75
					c0.9726562-0.6474609,2.4726562-1.0908203,4.5-1.3300781v-0.8798828c0-0.4003906-0.1435547-0.7070312-0.4306641-0.9208984
					c-0.2861328-0.2128906-0.6494141-0.3193359-1.0898438-0.3193359c-0.5869141,0-1.0537109,0.1298828-1.3994141,0.3896484
					c-0.3476562,0.2597656-0.640625,0.5566406-0.8808594,0.8896484l-1.5996094-1.2197266
					c0.1601562-0.2802734,0.3798828-0.5361328,0.6601562-0.7695312s0.5966797-0.4365234,0.9501953-0.6103516
					c0.3525391-0.1728516,0.7226562-0.3066406,1.109375-0.4003906c0.3867188-0.0927734,0.7734375-0.1328125,1.1601562-0.1191406
					c0.6933594,0.0126953,1.2929688,0.0927734,1.7998047,0.2392578c0.5068359,0.1474609,0.9238281,0.3837891,1.25,0.7099609
					c0.3271484,0.3271484,0.5673828,0.7568359,0.7207031,1.2900391c0.1523438,0.5341797,0.2294922,1.1875,0.2294922,1.9599609
					v4.9003906c0,0.2666016,0.0136719,0.5273438,0.0400391,0.7802734s0.0800781,0.4931641,0.1601562,0.7197266H545.5911255z
					 M545.3313599,151.4628906c-0.4140625,0.0800781-0.8271484,0.1669922-1.2402344,0.2607422
					c-0.4130859,0.0927734-0.7871094,0.2167969-1.1201172,0.3701172s-0.6035156,0.3496094-0.8095703,0.5898438
					c-0.2070312,0.2402344-0.3105469,0.5400391-0.3105469,0.8994141c0,0.3876953,0.1132812,0.6875,0.3398438,0.9003906
					c0.2265625,0.2138672,0.5136719,0.3203125,0.8603516,0.3203125c0.2001953,0,0.40625-0.0371094,0.6201172-0.1103516
					c0.2128906-0.0732422,0.4199219-0.1630859,0.6201172-0.2695312c0.2001953-0.1074219,0.3896484-0.2265625,0.5693359-0.3603516
					c0.1806641-0.1328125,0.3369141-0.2529297,0.4707031-0.3603516V151.4628906z"/>
				<path d="M549.2112427,158.1230469c0.1865234,0.0400391,0.359375,0.0634766,0.5195312,0.0703125
					s0.3330078,0.0097656,0.5205078,0.0097656c0.4267578,0,0.7695312-0.0634766,1.0292969-0.1894531
					c0.2607422-0.1269531,0.4638672-0.3369141,0.6103516-0.6298828c0.1201172-0.2539062,0.2167969-0.4677734,0.2900391-0.640625
					s0.1103516-0.3662109,0.1103516-0.5800781c0-0.1865234-0.0371094-0.3867188-0.1103516-0.5996094
					s-0.1435547-0.4267578-0.2099609-0.6396484l-2.7802734-8.8808594h2.5l1.7207031,6.4003906h0.0400391l1.7792969-6.4003906
					h2.4804688l-3.2802734,10.4199219c-0.2802734,0.7470703-0.5498047,1.3632812-0.8095703,1.8505859
					c-0.2607422,0.4863281-0.5439453,0.8730469-0.8505859,1.1601562c-0.3066406,0.2861328-0.6494141,0.4863281-1.0292969,0.5996094
					c-0.3808594,0.1132812-0.8242188,0.1699219-1.3300781,0.1699219c-0.3076172,0-0.546875-0.0068359-0.7207031-0.0195312
					c-0.1728516-0.0136719-0.3330078-0.0341797-0.4794922-0.0605469V158.1230469z"/>
				<path d="M560.8499146,151.6435547c0.0263672,1.0800781,0.2470703,1.8496094,0.6601562,2.3095703
					s0.9130859,0.6904297,1.5,0.6904297c0.5732422,0,1.0263672-0.1171875,1.3603516-0.3505859
					c0.3330078-0.2324219,0.6523438-0.5292969,0.9599609-0.8896484l1.7998047,1.1201172
					c-0.4804688,0.7470703-1.0771484,1.2871094-1.7900391,1.6201172c-0.7138672,0.3330078-1.5703125,0.5-2.5703125,0.5
					c-0.6796875,0-1.2900391-0.1269531-1.8300781-0.3798828c-0.5400391-0.2539062-1-0.6132812-1.3798828-1.0800781
					s-0.6738281-1.0332031-0.8798828-1.7001953c-0.2070312-0.6669922-0.3095703-1.4130859-0.3095703-2.2402344
					c0-0.8261719,0.1025391-1.5732422,0.3095703-2.2402344c0.2060547-0.6660156,0.5029297-1.2324219,0.8896484-1.6992188
					s0.8603516-0.8271484,1.4199219-1.0800781c0.5605469-0.2529297,1.1933594-0.3798828,1.9003906-0.3798828
					c0.6796875,0,1.2832031,0.1298828,1.8095703,0.3896484c0.5273438,0.2597656,0.9707031,0.6103516,1.3300781,1.0498047
					c0.3603516,0.4404297,0.6337891,0.9501953,0.8203125,1.5302734s0.2802734,1.1835938,0.2802734,1.8095703v1.0205078H560.8499146z
					 M564.8499146,149.9628906c-0.0263672-0.7197266-0.2167969-1.2792969-0.5703125-1.6796875
					c-0.3535156-0.3994141-0.8300781-0.5996094-1.4296875-0.5996094s-1.0771484,0.2001953-1.4296875,0.5996094
					c-0.3535156,0.4003906-0.5439453,0.9599609-0.5703125,1.6796875H564.8499146z"/>
				<path d="M569.0100708,156.4433594v-10.4003906h2.2802734v1.7802734h0.0400391
					c0.3056641-0.6259766,0.6826172-1.1064453,1.1298828-1.4394531c0.4462891-0.3339844,1.0429688-0.5136719,1.7900391-0.5400391
					v2.6191406c-0.0673828-0.0126953-0.1337891-0.0195312-0.2001953-0.0195312c-0.0673828,0-0.1474609,0-0.2402344,0
					c-0.3066406,0-0.5996094,0.0771484-0.8798828,0.2304688S572.4026489,149,572.1897583,149.1933594
					s-0.3828125,0.3798828-0.5097656,0.5595703c-0.1269531,0.1806641-0.1904297,0.3037109-0.1904297,0.3701172v6.3203125
					H569.0100708z"/>
				<path d="M582.2092896,142.0029297h5.3603516c0.7197266,0,1.3730469,0.0634766,1.9599609,0.1904297
					s1.0898438,0.3300781,1.5097656,0.6103516c0.4199219,0.2792969,0.7539062,0.6464844,1,1.0996094
					c0.2470703,0.453125,0.390625,1,0.4306641,1.6396484c0,0.7607422-0.1669922,1.4199219-0.5,1.9804688
					c-0.3339844,0.5595703-0.9003906,0.9931641-1.7001953,1.2998047c0.4667969,0.1865234,0.8603516,0.3896484,1.1796875,0.6103516
					c0.3203125,0.2197266,0.5800781,0.4736328,0.7802734,0.7597656c0.2001953,0.2871094,0.3427734,0.6298828,0.4296875,1.0302734
					c0.0869141,0.3994141,0.1298828,0.8730469,0.1298828,1.4199219c0,0.5595703-0.0996094,1.0732422-0.2998047,1.5400391
					s-0.5166016,0.8662109-0.9501953,1.2001953c-0.4326172,0.3330078-0.9794922,0.5927734-1.6396484,0.7792969
					c-0.6601562,0.1875-1.4501953,0.2802734-2.3701172,0.2802734h-5.3203125V142.0029297z M584.9700317,147.7636719h2.7597656
					c0.6660156,0,1.1630859-0.1669922,1.4902344-0.5c0.3261719-0.3330078,0.4892578-0.7539062,0.4892578-1.2607422
					c0-0.5058594-0.1630859-0.9257812-0.4892578-1.2597656c-0.3271484-0.3330078-0.8242188-0.5-1.4902344-0.5h-2.7597656
					V147.7636719z M584.9700317,154.203125h2.7597656c0.7998047,0,1.3828125-0.1767578,1.75-0.5292969
					c0.3662109-0.3535156,0.5498047-0.8769531,0.5498047-1.5703125s-0.1835938-1.2167969-0.5498047-1.5703125
					c-0.3671875-0.3525391-0.9501953-0.5302734-1.75-0.5302734h-2.7597656V154.203125z"/>
			</g>
			<g>
				<circle class="st0" cx="554.7766113" cy="66.9601822" r="50.9995613"/>
				<g>
					<path class="st6" d="M554.7766113,10.2940197v56.6661377l38.9980469,41.0901489
						c10.8756104-10.3253174,17.6680908-24.9099731,17.6680908-41.0901489
						C611.442749,35.6643219,586.0724487,10.2940197,554.7766113,10.2940197z"/>
				</g>
			</g>
		</g>
	</g>
</g>
</svg>
