<?xml version="1.0" encoding="utf-8"?>
<!-- Generator: Adobe Illustrator 21.1.0, SVG Export Plug-In . SVG Version: 6.00 Build 0)  -->
<svg version="1.1" id="Layer_1" xmlns="http://www.w3.org/2000/svg" xmlns:xlink="http://www.w3.org/1999/xlink" x="0px" y="0px"
	 viewBox="0 0 500 350" style="enable-background:new 0 0 500 350;" xml:space="preserve">
<style type="text/css">
	.st0{fill:#3669C9;}
	.st1{fill:#FFFFFF;}
</style>
<g>
	<g>
		<path d="M251.1679688,339.8330078c-16.7553711,0-33.2890625-2.5273438-49.1416016-7.5117188l0.2998047-0.953125
			c15.7558594,4.953125,32.1884766,7.4648438,48.8417969,7.4648438c89.6943359,0,162.6660156-72.9716797,162.6660156-162.6660156
			c0-43.3046875-16.8242188-84.0551758-47.3720703-114.7456055
			c-30.5380859-30.6791992-71.1884766-47.6938477-114.4648438-47.9106445l0.0058594-1
			c43.5419922,0.2177734,84.4423828,17.3374023,115.1669922,48.2050781
			c30.7363281,30.8789062,47.6640625,71.8803711,47.6640625,115.4511719
			C414.8339844,266.4130859,341.4140625,339.8330078,251.1679688,339.8330078z"/>
	</g>
	<g>
		<path class="st0" d="M249,13.0274048C159.8859253,14.1893311,88.0007935,86.7768555,88.0007935,176.166626
			c0,71.9901123,46.6240845,133.0858765,111.3218994,154.7518311L249,177.4306641V13.0274048z"/>
	</g>
	<g>
		<path class="st1" d="M198.90625,332.2050781l2.8544922,0.9238281l0.4155273-1.2839355
			c-0.9550781-0.300293-1.906189-0.6092529-2.8535767-0.9265137L198.90625,332.2050781z"/>
	</g>
	<g>
		<path class="st1" d="M249,13v0.0274048C249.7224121,13.0180054,250.4428101,13,251.1674805,13H249z"/>
	</g>
	<g>
		<path class="st1" d="M252,13h-0.8325195c0.2783203,0,0.5545044,0.0091553,0.8325195,0.0105591V13z"/>
	</g>
</g>
<g>
	<g>
		<path class="st1" d="M108.9291992,169.605957l7.6352539-10.6352539h3.4956055v11.3046875h2.5288086v2.4790039h-2.5288086
			v4.1147461h-3.0742188v-4.1147461h-8.0566406V169.605957z M116.9858398,170.2753906v-7.9829102h-0.0493164l-5.5283203,7.9829102
			H116.9858398z"/>
	</g>
	<g>
		<path class="st1" d="M126.3320312,158.9707031h9.668457v2.7763672h-7.2392578l-0.2475586,4.065918
			c0.1484375-0.1489258,0.3134766-0.2851562,0.4956055-0.4091797c0.1816406-0.1240234,0.4047852-0.2353516,0.6694336-0.3344727
			c0.2641602-0.0991211,0.5742188-0.1738281,0.9296875-0.2231445c0.3549805-0.0498047,0.7724609-0.074707,1.2519531-0.074707
			c0.8095703,0,1.5410156,0.1738281,2.1938477,0.5209961c0.652832,0.3466797,1.2148438,0.8017578,1.6860352,1.3632812
			c0.4707031,0.5620117,0.8339844,1.1982422,1.0908203,1.9086914c0.2558594,0.7109375,0.3842773,1.4301758,0.3842773,2.1572266
			c0,0.9750977-0.140625,1.8588867-0.421875,2.6523438c-0.2807617,0.793457-0.6982422,1.4667969-1.2514648,2.0205078
			c-0.5541992,0.5541992-1.2441406,0.9794922-2.0703125,1.2763672c-0.8266602,0.2978516-1.7768555,0.4462891-2.8510742,0.4462891
			c-1.4213867,0-2.6196289-0.3056641-3.5947266-0.9169922s-1.7104492-1.4208984-2.2060547-2.4291992l2.6772461-1.3886719
			c0.2807617,0.628418,0.7270508,1.1201172,1.3388672,1.4750977c0.6113281,0.3554688,1.2226562,0.5415039,1.8344727,0.5581055
			c1.1401367,0.0332031,1.9790039-0.293457,2.5161133-0.9794922c0.5371094-0.6855469,0.8056641-1.590332,0.8056641-2.7143555
			c0-0.4628906-0.0703125-0.8925781-0.2104492-1.2895508c-0.140625-0.3964844-0.3432617-0.7436523-0.6074219-1.0410156
			c-0.2646484-0.2973633-0.5869141-0.5288086-0.9667969-0.6943359c-0.3803711-0.1650391-0.8017578-0.2475586-1.2646484-0.2475586
			c-0.6279297,0-1.1733398,0.1445312-1.6362305,0.4335938c-0.4628906,0.2895508-0.8178711,0.6572266-1.065918,1.1035156
			l-2.578125-0.4960938L126.3320312,158.9707031z"/>
	</g>
	<g>
		<path class="st1" d="M143.9331055,158.9707031c0.6279297,0,1.2148438,0.1201172,1.7602539,0.359375
			c0.5454102,0.2397461,1.0166016,0.5620117,1.4130859,0.9667969c0.3964844,0.4052734,0.7104492,0.8759766,0.9418945,1.4130859
			s0.347168,1.1118164,0.347168,1.7231445s-0.1157227,1.1860352-0.347168,1.7226562
			c-0.2314453,0.5375977-0.5454102,1.0083008-0.9418945,1.4130859c-0.3964844,0.4052734-0.8676758,0.7275391-1.4130859,0.9667969
			c-0.5454102,0.2397461-1.1323242,0.3598633-1.7602539,0.3598633c-0.628418,0-1.2148438-0.1201172-1.7602539-0.3598633
			c-0.5454102-0.2392578-1.0161133-0.5615234-1.4130859-0.9667969c-0.3964844-0.4047852-0.7104492-0.8754883-0.9418945-1.4130859
			c-0.2314453-0.5366211-0.347168-1.1113281-0.347168-1.7226562s0.1157227-1.1860352,0.347168-1.7231445
			s0.5454102-1.0078125,0.9418945-1.4130859c0.3969727-0.4047852,0.8676758-0.7270508,1.4130859-0.9667969
			C142.7182617,159.0908203,143.3046875,158.9707031,143.9331055,158.9707031z M143.9331055,161.3999023
			c-0.28125,0-0.5454102,0.0581055-0.793457,0.1738281c-0.2475586,0.1157227-0.4628906,0.2646484-0.6445312,0.4462891
			c-0.1816406,0.1821289-0.3261719,0.3964844-0.4335938,0.6445312c-0.1079102,0.2475586-0.1611328,0.5043945-0.1611328,0.7685547
			s0.0532227,0.5205078,0.1611328,0.7685547c0.1074219,0.2475586,0.2519531,0.4628906,0.4335938,0.6445312
			c0.1816406,0.1821289,0.3969727,0.3305664,0.6445312,0.4462891c0.2480469,0.1157227,0.512207,0.1733398,0.793457,0.1733398
			c0.2807617,0,0.5454102-0.0576172,0.793457-0.1733398s0.4624023-0.2641602,0.6445312-0.4462891
			c0.1816406-0.1816406,0.3261719-0.3969727,0.4335938-0.6445312c0.1074219-0.2480469,0.1611328-0.5043945,0.1611328-0.7685547
			s-0.0537109-0.5209961-0.1611328-0.7685547c-0.1074219-0.2480469-0.2519531-0.4624023-0.4335938-0.6445312
			c-0.1821289-0.1816406-0.3964844-0.3305664-0.6445312-0.4462891S144.2138672,161.3999023,143.9331055,161.3999023z
			 M153.7998047,158.7226562h2.1074219l-10.2880859,18.3945312h-2.1074219L153.7998047,158.7226562z M155.3618164,167.9448242
			c0.6279297,0,1.2148438,0.1201172,1.7602539,0.359375c0.5454102,0.2397461,1.0161133,0.5620117,1.4130859,0.9667969
			c0.3964844,0.4052734,0.7104492,0.8764648,0.9418945,1.4130859c0.2314453,0.5375977,0.347168,1.1118164,0.347168,1.7231445
			c0,0.6118164-0.1157227,1.1860352-0.347168,1.7231445s-0.5454102,1.0083008-0.9418945,1.4130859
			c-0.3969727,0.4052734-0.8676758,0.7270508-1.4130859,0.9663086c-0.5454102,0.2402344-1.1323242,0.359375-1.7602539,0.359375
			c-0.628418,0-1.2148438-0.1191406-1.7602539-0.359375c-0.5454102-0.2392578-1.0161133-0.5610352-1.4130859-0.9663086
			c-0.3964844-0.4047852-0.7109375-0.8759766-0.9418945-1.4130859c-0.2319336-0.5371094-0.347168-1.1113281-0.347168-1.7231445
			c0-0.6113281,0.1152344-1.1855469,0.347168-1.7231445c0.230957-0.5366211,0.5454102-1.0078125,0.9418945-1.4130859
			c0.3969727-0.4047852,0.8676758-0.7270508,1.4130859-0.9667969
			C154.1469727,168.0649414,154.7333984,167.9448242,155.3618164,167.9448242z M155.3618164,170.3745117
			c-0.28125,0-0.5454102,0.0581055-0.793457,0.1733398c-0.2475586,0.1157227-0.4628906,0.2646484-0.6445312,0.4462891
			c-0.1821289,0.1821289-0.3266602,0.3964844-0.4335938,0.6445312c-0.1079102,0.2480469-0.1611328,0.5043945-0.1611328,0.7685547
			c0,0.2646484,0.0532227,0.5205078,0.1611328,0.7685547c0.1069336,0.2480469,0.2514648,0.4628906,0.4335938,0.6445312
			c0.1816406,0.1821289,0.3969727,0.3310547,0.6445312,0.4462891c0.2480469,0.1157227,0.512207,0.1733398,0.793457,0.1733398
			c0.2807617,0,0.5454102-0.0576172,0.793457-0.1733398c0.2475586-0.1152344,0.4624023-0.2641602,0.6445312-0.4462891
			c0.1816406-0.1816406,0.3261719-0.3964844,0.4335938-0.6445312s0.1611328-0.5039062,0.1611328-0.7685547
			c0-0.2641602-0.0537109-0.5205078-0.1611328-0.7685547s-0.2519531-0.4624023-0.4335938-0.6445312
			c-0.1821289-0.1816406-0.3969727-0.3305664-0.6445312-0.4462891
			C155.9072266,170.4326172,155.6425781,170.3745117,155.3618164,170.3745117z"/>
	</g>
</g>
</svg>
