<?xml version="1.0" encoding="utf-8"?>
<!-- Generator: Adobe Illustrator 21.1.0, SVG Export Plug-In . SVG Version: 6.00 Build 0)  -->
<svg version="1.1" id="Layer_1" xmlns="http://www.w3.org/2000/svg" xmlns:xlink="http://www.w3.org/1999/xlink" x="0px" y="0px"
	 viewBox="0 0 200 200" style="enable-background:new 0 0 200 200;" xml:space="preserve">
<style type="text/css">
	.st0{fill:#E7B900;}
	.st1{fill:#D3AB02;}
	.st2{fill:#FFFFFF;}
</style>
<circle class="st0" cx="100" cy="100" r="83.75"/>
<circle class="st1" cx="100" cy="100" r="62"/>
<g>
	<path class="st2" d="M80.1220703,95.8422852c-0.3505859-0.7558594-0.7568359-1.3022461-1.21875-1.6381836
		s-1.0703125-0.5039062-1.8261719-0.5039062c-0.5322266,0-0.9980469,0.1298828-1.3964844,0.3886719
		c-0.3994141,0.2592773-0.7324219,0.6264648-0.9980469,1.1025391s-0.4658203,1.0532227-0.5986328,1.7324219
		s-0.1992188,1.4384766-0.1992188,2.2783203c0,1.5961914,0.2832031,2.8632812,0.8505859,3.8017578
		c0.5664062,0.9375,1.3544922,1.40625,2.3623047,1.40625c0.9521484,0,1.7119141-0.2792969,2.2783203-0.8398438
		c0.5673828-0.5605469,0.8642578-1.28125,0.8925781-2.1630859h-2.8769531v-2.4360352h5.6699219v7.6655273h-2.0996094v-1.5546875
		c-0.6162109,0.671875-1.2285156,1.1347656-1.8378906,1.3867188c-0.6083984,0.2519531-1.3125,0.3769531-2.1103516,0.3769531
		c-1.0361328,0-1.9316406-0.1914062-2.6875-0.5771484c-0.7568359-0.3847656-1.3798828-0.9169922-1.8691406-1.5957031
		c-0.4902344-0.6787109-0.8583984-1.4775391-1.1025391-2.3935547c-0.2451172-0.9179688-0.3681641-1.9150391-0.3681641-2.9931641
		c0-0.9658203,0.1015625-1.9282227,0.3046875-2.887207s0.5498047-1.8168945,1.0400391-2.5727539
		c0.4892578-0.7558594,1.1367188-1.3720703,1.9423828-1.8481445c0.8046875-0.4755859,1.8164062-0.7138672,3.0341797-0.7138672
		c0.7558594,0,1.4345703,0.0981445,2.0371094,0.2939453c0.6015625,0.1962891,1.1298828,0.4658203,1.5859375,0.8085938
		c0.4541016,0.3432617,0.8359375,0.7490234,1.1435547,1.2182617c0.3085938,0.46875,0.5537109,0.9833984,0.7353516,1.543457
		L80.1220703,95.8422852z"/>
	<path class="st2" d="M99.0966797,99.0551758c0,2.4916992-0.5390625,4.4135742-1.6171875,5.7651367
		c-1.078125,1.3505859-2.6591797,2.0253906-4.7451172,2.0253906c-2.0869141,0-3.6689453-0.6748047-4.7460938-2.0253906
		c-1.078125-1.3515625-1.6171875-3.2734375-1.6171875-5.7651367s0.5390625-4.4130859,1.6171875-5.7646484
		c1.0771484-1.3505859,2.6591797-2.0263672,4.7460938-2.0263672c2.0859375,0,3.6669922,0.6757812,4.7451172,2.0263672
		C98.5576172,94.6420898,99.0966797,96.5634766,99.0966797,99.0551758z M96.1992188,99.0551758
		c0-1.7919922-0.2802734-3.1323242-0.8398438-4.0214844c-0.5605469-0.8886719-1.4355469-1.3334961-2.625-1.3334961
		c-1.1904297,0-2.0654297,0.4448242-2.625,1.3334961c-0.5605469,0.8891602-0.8408203,2.2294922-0.8408203,4.0214844
		c-0.0273438,1.7924805,0.2421875,3.1323242,0.8085938,4.0209961c0.5673828,0.8896484,1.4521484,1.3339844,2.6572266,1.3339844
		c1.1894531,0,2.0644531-0.4443359,2.625-1.3339844C95.9189453,102.1875,96.1992188,100.8476562,96.1992188,99.0551758z"/>
	<path class="st2" d="M102.7529297,106.6367188V91.4741211h2.8984375v12.7260742h6.59375v2.4365234H102.7529297z"/>
	<path class="st2" d="M115.5947266,91.4741211h5.0195312c1.0078125,0,1.9238281,0.144043,2.7509766,0.4306641
		c0.8251953,0.2871094,1.5390625,0.7387695,2.1416016,1.3544922c0.6015625,0.6162109,1.0712891,1.3999023,1.4072266,2.3520508
		s0.5039062,2.1000977,0.5039062,3.4438477c0,1.3442383-0.1679688,2.4916992-0.5039062,3.4438477
		s-0.8056641,1.7363281-1.4072266,2.3525391c-0.6025391,0.6152344-1.3164062,1.0673828-2.1416016,1.3535156
		c-0.8271484,0.2871094-1.7431641,0.4316406-2.7509766,0.4316406h-5.0195312V91.4741211z M118.4931641,104.2001953h1.9316406
		c0.8261719,0,1.5048828-0.1396484,2.0371094-0.4199219s0.9482422-0.6572266,1.2490234-1.1337891
		s0.5117188-1.0253906,0.6298828-1.6489258c0.1191406-0.6225586,0.1787109-1.2705078,0.1787109-1.9423828
		s-0.0595703-1.3193359-0.1787109-1.9423828c-0.1181641-0.6230469-0.3291016-1.1723633-0.6298828-1.6484375
		s-0.7167969-0.8540039-1.2490234-1.1342773c-0.5322266-0.2797852-1.2109375-0.4199219-2.0371094-0.4199219h-1.9316406V104.2001953z
		"/>
</g>
</svg>
