<?xml version="1.0" encoding="utf-8"?>
<!-- Generator: Adobe Illustrator 19.2.1, SVG Export Plug-In . SVG Version: 6.00 Build 0)  -->
<svg version="1.1" id="Layer_1" xmlns="http://www.w3.org/2000/svg" xmlns:xlink="http://www.w3.org/1999/xlink" x="0px" y="0px"
	 viewBox="0 0 500 300" enable-background="new 0 0 500 300" xml:space="preserve">
<g>
	<path fill="#FFFFFF" d="M409.4,77.3c0-1.8-1.4-2.8-3.2-2.8h-12.8c-1.8,0-3,1.2-3,2.8v44.1h19V77.3z"/>
	<path fill="#FFFFFF" d="M26.9,169.2c0,36.8,26.2,69,62.2,76.5l160.6,33.5l161.1-33.5c36.1-7.5,62.3-39.7,62.3-76.5V20.4H26.9V169.2
		z M366.6,67.4c0-7.2,5.8-13,13-13h40.7c7.2,0,13,5.8,13,13v104.5c0,1.3-1.1,2.4-2.4,2.4h-19c-1.3,0-2.4-1.1-2.4-2.4v-30.6h-19v30.6
		c0,1.3-1.1,2.4-2.4,2.4h-19c-1.3,0-2.4-1.1-2.4-2.4V67.4z M257.1,68.1c0-8.5,5.9-14.4,14-14.4H309c8.4,0,14.2,5.9,14.2,14.4v28.3
		c0,1.3-1.1,2.4-2.4,2.4h-19.2c-1.3,0-2.4-1.1-2.4-2.4V76.1c0-1.1-0.7-2-1.2-2h-15.3c-0.9,0-1.6,0.9-1.6,2v76.6
		c0,1.1,0.7,1.8,1.6,1.8h14.9c0.9,0,1.6-0.7,1.6-1.8V132c0-1.3,1.1-2.4,2.4-2.4h19.2c1.3,0,2.4,1.1,2.4,2.4v28.9
		c0,7.8-6.4,14.2-14.2,14.2h-37.8c-8.2,0-14-5.9-14-14.2V68.1z M226.3,219.2h17.3l5.3-16.4c0.3-1.1,1.9-1.1,2.2,0l5.3,16.4h17.3
		c1.1,0,1.6,1.4,0.7,2.1l-14,10.1l5.3,16.4c0.3,1.1-0.9,2-1.8,1.3l-14-10.1l-14,10.1c-0.9,0.7-2.1-0.2-1.8-1.3l5.3-16.4l-14-10.1
		C224.7,220.6,225.2,219.2,226.3,219.2z M160.3,56.8c0-1.3,1.1-2.4,2.4-2.4H214c1.3,0,2.4,1.1,2.4,2.4v15.6c0,1.3-1.1,2.4-2.4,2.4
		h-29.9v34.3H209c1.3,0,2.4,1.1,2.4,2.4v15.4c0,1.3-1.1,2.4-2.4,2.4h-24.9v42.5c0,1.3-1.1,2.4-2.4,2.4h-19c-1.3,0-2.4-1.1-2.4-2.4
		V56.8z M66.8,56.8c0-1.3,1.1-2.4,2.4-2.4h19c1.3,0,2.4,1.1,2.4,2.4v96.7h26.2c1.3,0,2.4,1.1,2.4,2.4v16c0,1.3-1.1,2.4-2.4,2.4H69.2
		c-1.3,0-2.4-1.1-2.4-2.4V56.8z"/>
	<path d="M8.8,2.3v166.9c0,45.4,32.2,85,76.6,94.3l162.5,33.9l1.8,0.4l164.8-34.3c44.4-9.2,76.7-48.9,76.7-94.3V2.3H8.8z
		 M473.1,169.1c0,36.8-26.2,69-62.3,76.5l-161.1,33.5L89.1,245.7c-36.1-7.5-62.2-39.7-62.2-76.5V20.4h446.2V169.1z"/>
	<path d="M239.6,231.4l-5.3,16.4c-0.3,1.1,0.9,2,1.8,1.3l14-10.1l14,10.1c0.9,0.7,2.1-0.2,1.8-1.3l-5.3-16.4l14-10.1
		c0.9-0.7,0.4-2.1-0.7-2.1h-17.3l-5.3-16.4c-0.3-1.1-1.9-1.1-2.2,0l-5.3,16.4h-17.3c-1.1,0-1.6,1.4-0.7,2.1L239.6,231.4z"/>
	<path d="M69.2,174.3h47.6c1.3,0,2.4-1.1,2.4-2.4v-16c0-1.3-1.1-2.4-2.4-2.4H90.6V56.8c0-1.3-1.1-2.4-2.4-2.4h-19
		c-1.3,0-2.4,1.1-2.4,2.4v115.1C66.8,173.2,67.9,174.3,69.2,174.3z"/>
	<path d="M162.7,174.3h19c1.3,0,2.4-1.1,2.4-2.4v-42.5H209c1.3,0,2.4-1.1,2.4-2.4v-15.4c0-1.3-1.1-2.4-2.4-2.4h-24.9V74.8H214
		c1.3,0,2.4-1.1,2.4-2.4V56.8c0-1.3-1.1-2.4-2.4-2.4h-51.3c-1.3,0-2.4,1.1-2.4,2.4v115.1C160.3,173.2,161.4,174.3,162.7,174.3z"/>
	<path d="M271.1,175H309c7.8,0,14.2-6.4,14.2-14.2V132c0-1.3-1.1-2.4-2.4-2.4h-19.2c-1.3,0-2.4,1.1-2.4,2.4v20.7
		c0,1.1-0.7,1.8-1.6,1.8h-14.9c-0.9,0-1.6-0.7-1.6-1.8V76.1c0-1.1,0.7-2,1.6-2H298c0.5,0,1.2,0.9,1.2,2v20.3c0,1.3,1.1,2.4,2.4,2.4
		h19.2c1.3,0,2.4-1.1,2.4-2.4V68.1c0-8.5-5.9-14.4-14.2-14.4h-37.8c-8.2,0-14,5.9-14,14.4v92.7C257.1,169.2,263,175,271.1,175z"/>
	<path d="M369,174.3h19c1.3,0,2.4-1.1,2.4-2.4v-30.6h19v30.6c0,1.3,1.1,2.4,2.4,2.4h19c1.3,0,2.4-1.1,2.4-2.4V67.4
		c0-7.2-5.8-13-13-13h-40.7c-7.2,0-13,5.8-13,13v104.5C366.6,173.2,367.6,174.3,369,174.3z M390.4,77.3c0-1.6,1.2-2.8,3-2.8h12.8
		c1.8,0,3.2,1.1,3.2,2.8v44.1h-19V77.3z"/>
</g>
</svg>
