<?xml version="1.0" encoding="utf-8"?>
<!-- Generator: Adobe Illustrator 21.1.0, SVG Export Plug-In . SVG Version: 6.00 Build 0)  -->
<svg version="1.1" id="Layer_1" xmlns="http://www.w3.org/2000/svg" xmlns:xlink="http://www.w3.org/1999/xlink" x="0px" y="0px"
	 viewBox="0 0 200 200" style="enable-background:new 0 0 200 200;" xml:space="preserve">
<style type="text/css">
	.st0{fill:#DBDBDB;}
	.st1{fill:#C1C1C1;}
	.st2{fill:#FFFFFF;}
</style>
<circle class="st0" cx="100" cy="100" r="83.75"/>
<circle class="st1" cx="100" cy="100" r="62"/>
<g>
	<path class="st2" d="M70.7763672,95.5063477c-0.2236328-0.5878906-0.5595703-1.0639648-1.0078125-1.4282227
		c-0.4482422-0.3637695-1.0146484-0.5458984-1.7011719-0.5458984c-0.6298828,0-1.1474609,0.1333008-1.5537109,0.3989258
		c-0.40625,0.2661133-0.609375,0.6928711-0.609375,1.28125c0,0.434082,0.1923828,0.7944336,0.578125,1.081543
		c0.3847656,0.2871094,0.8681641,0.5532227,1.4492188,0.7978516c0.5800781,0.2451172,1.2070312,0.4936523,1.8789062,0.7456055
		s1.2988281,0.5634766,1.8798828,0.9345703s1.0634766,0.8291016,1.4492188,1.3754883
		c0.3847656,0.5458984,0.5771484,1.2255859,0.5771484,2.0361328c0,1.5683594-0.4619141,2.7382812-1.3857422,3.5078125
		s-2.2333984,1.1542969-3.9277344,1.1542969c-0.6162109,0-1.2177734-0.0839844-1.8056641-0.2519531
		s-1.1337891-0.4052734-1.6376953-0.7128906c-0.5039062-0.3085938-0.9492188-0.6865234-1.3339844-1.1347656
		c-0.3847656-0.4472656-0.6826172-0.9453125-0.8925781-1.4902344l2.3945312-1.0507812
		c0.3496094,0.7148438,0.7734375,1.2890625,1.2705078,1.7226562s1.171875,0.6503906,2.0263672,0.6503906
		c0.3642578,0,0.7001953-0.0351562,1.0078125-0.1054688c0.3076172-0.0693359,0.578125-0.1855469,0.8085938-0.3457031
		c0.2314453-0.1611328,0.4130859-0.3710938,0.5458984-0.6308594c0.1328125-0.2578125,0.1992188-0.5703125,0.1992188-0.9335938
		c0-0.4902344-0.1923828-0.9003906-0.5771484-1.2285156c-0.3847656-0.3291016-0.8681641-0.6264648-1.4492188-0.8925781
		s-1.2070312-0.5253906-1.8789062-0.7773438s-1.2988281-0.5561523-1.8798828-0.9135742
		c-0.5810547-0.3569336-1.0644531-0.7905273-1.4492188-1.3017578c-0.3847656-0.5107422-0.5771484-1.1582031-0.5771484-1.9423828
		c0-0.671875,0.1328125-1.2739258,0.3994141-1.8061523c0.265625-0.5317383,0.6220703-0.9765625,1.0703125-1.3334961
		s0.9658203-0.6298828,1.5546875-0.8188477c0.5878906-0.1889648,1.2099609-0.2836914,1.8681641-0.2836914
		c1.21875,0,2.3027344,0.2939453,3.2558594,0.8818359c0.9511719,0.5883789,1.6513672,1.4355469,2.0996094,2.5410156
		L70.7763672,95.5063477z"/>
	<path class="st2" d="M77.7275391,106.6367188V91.4741211h2.8984375v15.1625977H77.7275391z"/>
	<path class="st2" d="M85.2753906,106.6367188V91.4741211h2.8974609v12.7260742h6.59375v2.4365234H85.2753906z"/>
	<path class="st2" d="M95.75,91.4741211h2.8554688l2.6884766,11.1723633h0.0419922l2.8134766-11.1723633h2.8564453
		l-4.0107422,15.1625977h-3.234375L95.75,91.4741211z"/>
	<path class="st2" d="M110.2421875,106.6367188V91.4741211h10.0371094v2.4360352h-7.1396484v3.6123047h5.1875v2.4355469h-5.1875
		v4.2421875h7.3710938v2.4365234H110.2421875z"/>
	<path class="st2" d="M123.9736328,106.6367188V91.4741211h6.0478516c0.8535156,0,1.5888672,0.1157227,2.2050781,0.3466797
		s1.1162109,0.5493164,1.5019531,0.9555664c0.3847656,0.40625,0.671875,0.8818359,0.8603516,1.4277344
		c0.1894531,0.5458984,0.2841797,1.1342773,0.2841797,1.7641602c0.0136719,0.9379883-0.2138672,1.7568359-0.6826172,2.4570312
		c-0.4697266,0.7001953-1.1660156,1.1831055-2.0898438,1.4487305l3.3388672,6.7626953h-3.2128906l-2.8554688-6.1743164h-2.4990234
		v6.1743164H123.9736328z M126.8720703,98.1103516h2.1416016c1.1337891,0,1.9111328-0.1787109,2.3310547-0.5356445
		s0.6298828-0.8925781,0.6298828-1.6064453s-0.2099609-1.2495117-0.6298828-1.6064453s-1.0292969-0.5356445-1.8271484-0.5356445
		h-2.6455078V98.1103516z"/>
</g>
</svg>
